<svg id="Layer_1" data-name="Layer 1" xmlns="http://www.w3.org/2000/svg" viewBox="0 0 360 50"><defs><style>.cls-1{fill:#fff;stroke:#000;stroke-miterlimit:10;}.cls-2{isolation:isolate;}</style></defs><title>Artboard 1</title><path class="cls-1" d="M38.81,18.28a3,3,0,0,1-3,2.92H29.26a3.27,3.27,0,0,1-.41,4.72,3.07,3.07,0,0,1-1.1,4.14c.59,3.27-1.45,4.73-4.77,4.73H21.93c-4.08,0-5.08-2-8.17-2.49a1.59,1.59,0,0,1-1.34-1.57l0-11.43h0a3.21,3.21,0,0,1,1.87-2.92c1.92-.87,6.29-3.27,7.1-5.14A2.78,2.78,0,0,1,24,9.33a3.16,3.16,0,0,1,2.92,4.42A7.59,7.59,0,0,1,26,15.39l9.85,0A3.06,3.06,0,0,1,38.81,18.28Zm-27.51,0V31a1.57,1.57,0,0,1-1.57,1.58H6.59A1.57,1.57,0,0,1,5,31L5,18.33a1.57,1.57,0,0,1,1.57-1.58H9.72A1.58,1.58,0,0,1,11.3,18.32ZM9.45,29.46A1.35,1.35,0,1,0,8.11,30.8,1.33,1.33,0,0,0,9.45,29.46Z"/><g class="cls-2"><path d="M50.85,30.53l-1.12,5.82H39.14l5-26.16,20.55,0-1.79,9.21h-10l-.46,2.51h8.08L58.8,30.52Z"/><path d="M62.28,36.33,65.9,17.41,76.36,16.1,72.45,36.32Zm9.6-20.69c-3.51,0-5.4-1.62-5.4-4.22,0-3,2.08-5.27,6.1-5.28,3.52,0,5.4,1.63,5.41,4.22C78,13.33,75.9,15.64,71.88,15.64Z"/><path d="M75.59,36.31l5.2-27.17L91.25,7.83,85.76,36.3Z"/><path d="M104,36.4a18.9,18.9,0,0,1-5,.64c-6.23,0-8.71-3.68-7.46-9.12l.79-3.47-2.34-.29,1.29-6.58,2.8-.8,1.08-4.56h10.21l-1.12,4.85h3.18L106,24.26h-3.47L101.65,28c-.33,1.38.34,1.92,1.43,1.92a4,4,0,0,0,1.46-.33Z"/><path d="M117.56,28.43c0,1.09.71,1.76,3.47,1.75a21.68,21.68,0,0,0,6.45-.93l-.54,6.83a27.27,27.27,0,0,1-7.61.93c-7.5,0-12-3.84-12-9.15,0-7.33,5.43-11.94,13.09-11.95,5.94,0,9.84,3.21,9.84,7.44a12.46,12.46,0,0,1-.91,4.69Zm4-4.19c.21-1.26-.21-1.93-1.34-1.92s-1.84.79-2.18,2Z"/><path d="M130.41,36.24,134,17.32,144.36,16l-.54,2.68a5.22,5.22,0,0,1,4.44-2.81,4.15,4.15,0,0,1,2.64.92l-2.34,8.58a5.55,5.55,0,0,0-2.34-.66,4.21,4.21,0,0,0-3.77,2.05l-1.87,9.47Z"/><path d="M155.65,37c-2.93,0-5.15-1.88-5.15-4.22,0-3.43,2.58-5.49,6.23-5.49,2.92,0,5.15,1.87,5.15,4.22C161.88,34.9,159.29,37,155.65,37Zm2.2-11.43c-2.93,0-5.15-1.88-5.15-4.22,0-3.43,2.59-5.49,6.23-5.49,2.93,0,5.15,1.87,5.15,4.22C164.09,23.47,161.49,25.52,157.85,25.53Z"/><path d="M175.65,30.36l-1.13,5.82H163.93l5-26.16,20.55,0-1.79,9.21h-10l-.46,2.52h8.08l-1.66,8.62Z"/><path d="M187.08,36.16l3.61-18.92,10.46-1.31-3.9,20.22Zm9.59-20.69c-3.51,0-5.4-1.62-5.4-4.22,0-3,2.09-5.27,6.1-5.28,3.52,0,5.4,1.63,5.41,4.22C202.78,13.16,200.69,15.47,196.67,15.47Z"/><path d="M213.48,36.13,215.23,27c.29-1.38-.3-1.76-1-1.76a2.66,2.66,0,0,0-1.67.84l-2,10.09-10.17,0L204,17.22l10.25-1.31L213.79,18a11.62,11.62,0,0,1,6.28-2.18c4.6,0,7,3.13,6,7.86L223.7,36.11Z"/><path d="M239.89,36.09l.29-1.46a8.94,8.94,0,0,1-5.9,2.22c-4.18,0-6.57-2.92-6.58-7.15,0-7.61,4.21-13.94,12.25-13.95a13,13,0,0,1,3.18.41l1.45-7.24,10.47-1.31-5.49,28.47Zm2.2-12.93a2,2,0,0,0-1.25-.38c-1.51,0-2.8,2.43-2.8,5,0,1.17.71,1.67,1.42,1.67A2.32,2.32,0,0,0,241,29Z"/></g></svg>