<svg id="Layer_1" data-name="Layer 1" xmlns="http://www.w3.org/2000/svg" viewBox="0 0 360 50"><title>Artboard 2</title><path d="M52.24,16.32H62.5a8.68,8.68,0,0,1,2.85.45,6.44,6.44,0,0,1,4,3.7,8.45,8.45,0,0,1,.6,3.32,7.74,7.74,0,0,1-.6,3.11,6.89,6.89,0,0,1-1.61,2.31,7,7,0,0,1-2.36,1.44,8.22,8.22,0,0,1-2.85.5H57.87v5.1H52.24Zm5.63,4.86v5.1H61.6a2.47,2.47,0,0,0,1.8-.7,2.44,2.44,0,0,0,.72-1.82,2.52,2.52,0,0,0-.72-1.88,2.47,2.47,0,0,0-1.8-.7Z"/><path d="M73,16.32H78.6V36.25H73Z"/><path d="M87.89,26.28a5.56,5.56,0,0,0,.35,1.95,5,5,0,0,0,1,1.61,4.66,4.66,0,0,0,1.59,1.1,5.18,5.18,0,0,0,2.08.41,6.68,6.68,0,0,0,3-.61,14.73,14.73,0,0,0,2.16-1.32l2.55,4.07a11.88,11.88,0,0,1-3.47,2.21,11.38,11.38,0,0,1-4.47.84,11.21,11.21,0,0,1-4.23-.78,10.44,10.44,0,0,1-3.37-2.15,9.84,9.84,0,0,1-2.24-3.25,10.68,10.68,0,0,1,0-8.16A10,10,0,0,1,85.1,19a10.28,10.28,0,0,1,3.37-2.15A11.21,11.21,0,0,1,92.7,16a11.38,11.38,0,0,1,4.47.84,11.88,11.88,0,0,1,3.47,2.21l-2.55,4.07a13.9,13.9,0,0,0-2.16-1.31,6.54,6.54,0,0,0-3-.62,5.18,5.18,0,0,0-2.08.41,4.66,4.66,0,0,0-1.59,1.1,5,5,0,0,0-1,1.61A5.48,5.48,0,0,0,87.89,26.28Z"/><path d="M113.6,21.21v15H108v-15h-5.71V16.32h17v4.89Z"/><path d="M121.16,26.31a10.79,10.79,0,0,1,.77-4.09A9.92,9.92,0,0,1,124.09,19a9.82,9.82,0,0,1,3.24-2.15,10.38,10.38,0,0,1,4.06-.78,10.64,10.64,0,0,1,4.09.78,9.75,9.75,0,0,1,5.42,5.42,10.6,10.6,0,0,1,.78,4.09,10.38,10.38,0,0,1-.78,4.06,10,10,0,0,1-2.16,3.24,9.7,9.7,0,0,1-3.26,2.15,10.64,10.64,0,0,1-4.09.78,10.38,10.38,0,0,1-4.06-.78,9.87,9.87,0,0,1-5.4-5.39A10.6,10.6,0,0,1,121.16,26.31Zm5.51,0a5.13,5.13,0,0,0,.35,1.93,4.78,4.78,0,0,0,1,1.59,4.42,4.42,0,0,0,1.5,1.05,4.57,4.57,0,0,0,1.92.38,4.68,4.68,0,0,0,1.93-.38,4.32,4.32,0,0,0,1.5-1.05,4.9,4.9,0,0,0,1-1.59,5.13,5.13,0,0,0,.35-1.93,5.34,5.34,0,0,0-.35-2,5,5,0,0,0-1-1.58,4.32,4.32,0,0,0-1.5-1.05,4.68,4.68,0,0,0-1.93-.38,4.57,4.57,0,0,0-1.92.38,4.42,4.42,0,0,0-1.5,1.05,4.84,4.84,0,0,0-1,1.58A5.34,5.34,0,0,0,126.67,26.31Z"/><path d="M163.28,33.7a11.37,11.37,0,0,1-1.7,1.07,17.24,17.24,0,0,1-2.17.91,18,18,0,0,1-2.4.62,12.47,12.47,0,0,1-2.38.24,12.18,12.18,0,0,1-4.13-.69,9.79,9.79,0,0,1-3.37-2,9.34,9.34,0,0,1-2.27-3.22,10.59,10.59,0,0,1-.84-4.31,10.67,10.67,0,0,1,.84-4.34,9.34,9.34,0,0,1,2.27-3.22,10,10,0,0,1,3.37-2,12.18,12.18,0,0,1,4.13-.7,12.83,12.83,0,0,1,4.41.73,13.45,13.45,0,0,1,3.48,1.88L160,22.91a8.12,8.12,0,0,0-5.19-1.7,5.55,5.55,0,0,0-2,.34,4.48,4.48,0,0,0-1.57,1,4.58,4.58,0,0,0-1,1.6,6.11,6.11,0,0,0-.37,2.18,4.82,4.82,0,0,0,1.43,3.74,5.28,5.28,0,0,0,3.73,1.3,8.12,8.12,0,0,0,1.59-.17,9.67,9.67,0,0,0,1.58-.5V28.42h-4.4v-4h9.5Z"/><path d="M167.12,16.32H177.2a10.54,10.54,0,0,1,3,.4A6.41,6.41,0,0,1,182.55,18a5.54,5.54,0,0,1,1.52,2.09,7.24,7.24,0,0,1,.55,2.94,5.73,5.73,0,0,1-1.18,3.63,6.48,6.48,0,0,1-3.1,2.2l5.39,6.22v1.2h-5.8l-5.63-7h-1.55v7h-5.63Zm5.63,4.86v4.07h3.92a2.08,2.08,0,0,0,1.59-.58,2,2,0,0,0,.55-1.44,2,2,0,0,0-2.14-2.05Z"/><path d="M194,16.32h6.62L208,36.25h-5.69l-1.2-3.37h-7.77l-1.17,3.37h-5.69Zm.79,12.42h5l-2.46-6.89Z"/><path d="M210.32,16.32h10.26a8.68,8.68,0,0,1,2.85.45,6.42,6.42,0,0,1,4,3.71,8.36,8.36,0,0,1,.6,3.31,7.74,7.74,0,0,1-.6,3.11,6.79,6.79,0,0,1-1.61,2.31,7,7,0,0,1-2.36,1.44,8.22,8.22,0,0,1-2.85.5H216v5.1h-5.63ZM216,21.18v5.1h3.72a2.43,2.43,0,0,0,2.53-2.52,2.56,2.56,0,0,0-.72-1.88,2.47,2.47,0,0,0-1.81-.7Z"/><path d="M245,28.59h-8.32v7.66h-5.63V16.32h5.63v7.41H245V16.32h5.63V36.25H245Z"/><path d="M255.26,16.32h5.63V36.25h-5.63Z"/><path d="M270.18,26.28a5.56,5.56,0,0,0,.35,1.95,5,5,0,0,0,1,1.61,4.62,4.62,0,0,0,1.58,1.1,5.18,5.18,0,0,0,2.08.41,6.72,6.72,0,0,0,3-.61,14.61,14.61,0,0,0,2.15-1.32l2.55,4.07a11.75,11.75,0,0,1-3.47,2.21,11.34,11.34,0,0,1-4.47.84,11.12,11.12,0,0,1-4.22-.78,10.07,10.07,0,0,1-3.37-2.15,9.87,9.87,0,0,1-2.25-3.25,10.8,10.8,0,0,1,0-8.16A10,10,0,0,1,267.4,19a10.23,10.23,0,0,1,3.37-2.15A11.12,11.12,0,0,1,275,16a11.34,11.34,0,0,1,4.47.84,11.75,11.75,0,0,1,3.47,2.21l-2.55,4.07a14.59,14.59,0,0,0-2.15-1.31,6.59,6.59,0,0,0-3-.62,5.18,5.18,0,0,0-2.08.41,4.62,4.62,0,0,0-1.58,1.1,5,5,0,0,0-1,1.61A5.52,5.52,0,0,0,270.18,26.28Z"/><path d="M23,5a4.91,4.91,0,0,0-6.33,2.85L5.33,38a4.91,4.91,0,0,0,9.18,3.47l11.36-30.1L16,37.42a15.42,15.42,0,0,1,10-26.85,4.72,4.72,0,0,1-.21.8A4.93,4.93,0,0,0,23,5Z"/><path d="M26.4,10.55l-.32,0a4.72,4.72,0,0,1-.21.8L16,37.42A15.43,15.43,0,1,0,26.4,10.55Z"/></svg>