<svg id="Layer_1" data-name="Layer 1" xmlns="http://www.w3.org/2000/svg" xmlns:xlink="http://www.w3.org/1999/xlink" viewBox="0 0 360 50"><defs><style>.cls-1{fill:none;stroke-miterlimit:10;stroke-width:3px;stroke:url(#linear-gradient);}.cls-2{isolation:isolate;}</style><linearGradient id="linear-gradient" x1="6.21" y1="476.13" x2="348.15" y2="476.13" gradientTransform="matrix(1, 0, 0, -1, 0, 515.98)" gradientUnits="userSpaceOnUse"><stop offset="0" stop-color="#fff"/><stop offset="1"/></linearGradient></defs><title>Artboard 3</title><line class="cls-1" x1="348.15" y1="39.86" x2="6.21" y2="39.86"/><g class="cls-2"><path d="M8.41,36C5.81,36,3,35.29,3,32.11c0-.61.12-1.55.93-1.55,1.92,0,2.94,2.77,3.67,2.77a2.25,2.25,0,0,0,1.83-1.87c0-2.61-5.42-3.3-6.15-6.27A7,7,0,0,1,3,23.92c0-2.6,2.32-5.42,5-5.42,1.75,0,5.17,2.08,5.17,4,0,.77-.61,2.52-1.59,2.52S10,21.56,8,21.56a1.88,1.88,0,0,0-1.8,1.55c0,2.2,7.17,2.4,7.17,7.58C13.34,33.7,11.59,36,8.41,36Z"/><path d="M21.12,35.86c-3,0-4-3.1-4-5.58,0-1.83.53-3.63.53-5.46,0-1.18,0-2.89-1.26-3.42-.49-.21-.78-.33-.78-.94a4.22,4.22,0,0,1,1.59-2.65c.49-.53,2.2-2.36,2.9-2.36,1.38,0,1.38,3.83,3.13,3.83.21,0,.37-.08.57-.08.9,0,1.39,1.06,1.39,1.83s-.53,1.18-1.31,1.18c-.44,0-.89-.08-1.34-.08-.9,0-1.14.33-1.3,1.18a26.63,26.63,0,0,0-.41,4.81,5.85,5.85,0,0,0,.65,3.1,4.24,4.24,0,0,0,2.57,1.91c.32.08,1.18.08,1.18.61C25.24,35.21,22.27,35.86,21.12,35.86Z"/><path d="M37.46,23.72c-.69,0-1.39-.37-2.08-.37-1.63,0-1.71,2.41-1.71,3.75v.45c0,1.1,0,4.48.81,5.25.49.49.94.82.94,1.55A1.5,1.5,0,0,1,34,35.74c-.69,0-1.26-.37-2-.37s-1.34.73-2.16.73S27.6,34.84,27.6,34c0-1,1.43-1.39,2-2a3.38,3.38,0,0,0,.57-2.36c0-1.75-.41-6.68-1.67-7.87-.33-.32-.74-.57-.74-1.05,0-1.23,3.14-2.45,4.2-2.45,1.87,0,1.47,2,2,2,.93,0,2.24-1.31,3.34-1.31a2.22,2.22,0,0,1,2.2,2.2A2.32,2.32,0,0,1,37.46,23.72Z"/><path d="M47.19,26.16c-.61,0-1.18-.16-1.75-.16s-.9.49-.9,1.06a7.18,7.18,0,0,0,.66,2.61c.57,1.51,1.46,3.22,3.34,3.22,1.46,0,2.73-1.1,3.91-1.1.73,0,1,.77,1,1.38,0,2.24-3.71,3-5.46,3a8.4,8.4,0,0,1-2.81-.45c-3-1.18-4.48-5.14-4.48-8.15a9.31,9.31,0,0,1,2.4-6.31,6.78,6.78,0,0,1,5-2.57,7.89,7.89,0,0,1,5.62,2.93,4.68,4.68,0,0,1,1.35,2.49C55.06,26.12,48.74,26.16,47.19,26.16Zm.29-4.88a2.38,2.38,0,0,0-2.2,2c0,.86,1.42.9,2,.9s3.3,0,3.3-.78S48.25,21.28,47.48,21.28Z"/><path d="M69.11,36c-1.59,0-2.89-1.14-4.48-1.14-1.43,0-2.53,1-3.59,1a1.5,1.5,0,0,1-.57-.12c-2.48-.86-3.14-.69-3.46-3.59a1.11,1.11,0,0,1,0-.36c0-1.76,1.79-3.38,3.14-4.28,2-1.43,4.88.08,4.88-3.46,0-1.06-.65-2.53-1.91-2.53-1.43,0-1.51,3.18-3.95,3.18-1,0-2.24-.65-2.24-1.79a2.35,2.35,0,0,1,.61-1.47,7.94,7.94,0,0,1,6-2.69,8.9,8.9,0,0,1,1.46.12c2.86.41,4.12.82,4.12,4a21.25,21.25,0,0,1-.37,4.27,13.35,13.35,0,0,0-.41,2.53,3.44,3.44,0,0,0,1.51,2.61c.57.36,1.75.57,1.75,1.46A2.31,2.31,0,0,1,69.11,36Zm-5.38-7.86c-1.22,0-2.12,2-2.12,3,0,1.19.78,1.43,1.8,1.43,1.22,0,1.46-1.71,1.46-2.65C64.87,29.18,64.63,28.16,63.73,28.16Z"/><path d="M97.38,35.66c-.94,0-5.26-.33-5.26-1.39,0-.61,2-2.81,2-5.38a10.37,10.37,0,0,0-.08-1.14c-.16-1.5-1.87-5.42-3.63-5.42-1.3,0-2,2.24-2.11,3.3A45.28,45.28,0,0,0,87.85,31a2.25,2.25,0,0,0,.36,1.51c.61.77,1.14,1.22,1.14,2.28,0,.65-.28.81-.89,1a13.24,13.24,0,0,1-2.53.16h-.28a3,3,0,0,1-2.53-.81A2.13,2.13,0,0,1,82.67,34c0-.74,2-1.1,2-4.24,0-1.1-.12-2.16-.21-3.22s-.2-3.38-1.18-4.07a1.71,1.71,0,0,0-1.1-.33c-3.38,0-3.46,3.91-3.46,6.44v.28a6.77,6.77,0,0,0,.69,3.59,2.44,2.44,0,0,1,.49,1.38c0,1.76-2.16,2.29-3.54,2.29s-4.08-.41-4.08-2.08,2.9-1.71,2.9-6c0-2.16-.13-4.56-1.88-6.07-.36-.33-.57-.49-.57-1,0-1.75,2.16-2.2,3.55-2.2,1.75,0,2.36,1.14,3.13,1.14,1.35,0,2.57-1,4-1s2.44,1.18,3.79,1.18c2,0,3.74-1.18,5.74-1.18a3,3,0,0,1,2.2.86,6.48,6.48,0,0,1,2.32,4.48c0,1.26-.41,2.48-.41,3.75a10,10,0,0,0,1.19,5.21,2.7,2.7,0,0,1,.61,1.43C98.81,35.41,98.07,35.66,97.38,35.66Z"/><path d="M107.28,35.94c-.7,0-1.39-.08-2.08-.08h-1.51c-.57,0-2.81,0-2.81-.81,0-.49,2-3,2.24-4a23.24,23.24,0,0,0,.49-5.82V23.15c0-2.53.12-5,.12-7.66a3.08,3.08,0,0,0-.53-2.08c-.9-.89-2.24-.94-2.24-2.56s2.61-2,3.91-2a3.12,3.12,0,0,1,1.67.32c.82.49.86,4.32.86,5.3,0,4.48-.37,9-.37,13.57a16.24,16.24,0,0,0,.25,3.18c.24,1.18,2,3,2,3.62S107.85,35.94,107.28,35.94Z"/><path d="M116.15,35.78c-1.34,0-3.46-.16-4.4-1.31a1.19,1.19,0,0,1-.32-.73c0-.45,1.79-1.38,2.16-1.83.69-.86.73-4.32.73-6v-.45a10.64,10.64,0,0,0-.12-1.59c-.21-1.38-1.63-2.08-1.63-3,0-1.67,3.3-2.12,4.56-2.12.94,0,1,2,1,3V22c0,2.44-.16,4.89-.16,7.33a4.9,4.9,0,0,0,.93,3.5,1.88,1.88,0,0,1,.53,1.23C119.41,35.74,117.42,35.78,116.15,35.78Zm-.57-21.59a3.55,3.55,0,0,1-1-.09A2.7,2.7,0,0,1,113,11.74c0-1.14.36-2.48,1.79-2.48s3.3.85,3.3,2.4A2.34,2.34,0,0,1,115.58,14.19Z"/><path d="M135.79,35.86a1.28,1.28,0,0,1-.77.24,3,3,0,0,1-1.76-.61c-.53-.32-2-.49-2-1.26,0-1.34,2-1.55,2.28-2.77a10.22,10.22,0,0,0,.12-1.91v-.21c0-1.42-.28-2.77-.41-4.19-.12-1.68-.53-3.18-2.56-3.18-1.06,0-1.84.81-2.69,1.3s-.9,2.53-.9,3.71v.45c0,.81,0,1.63,0,2.44a3.82,3.82,0,0,0,.53,2.32,4.8,4.8,0,0,1,1,2.45c0,.81-.45,1-1.14,1.1a20.91,20.91,0,0,1-3.18.36c-1,0-2.81-.61-2.81-1.83,0-.77.61-1.22,1.1-1.67,1.06-1,.81-3.83.9-5.21,0-.7,0-2.08,0-2.12,0-.9,0-2.81-.82-3.26-.65-.33-1.42-.49-1.42-1.43,0-1.26,2.16-1.95,3.21-1.95,1.35,0,2.12,1.5,3.26,1.5a2.07,2.07,0,0,0,.49-.12,10.56,10.56,0,0,1,3.71-.77,4.09,4.09,0,0,1,2.81.89c2,1.76,2.2,3.39,2.2,5.95,0,1.43-.28,2.85-.28,4.32,0,2.81,1.91,2.57,1.91,3.91C138.6,35.37,136.48,35.45,135.79,35.86Z"/><path d="M146,26.16c-.61,0-1.18-.16-1.75-.16s-.9.49-.9,1.06a7.18,7.18,0,0,0,.66,2.61c.57,1.51,1.46,3.22,3.34,3.22,1.46,0,2.73-1.1,3.91-1.1.73,0,1,.77,1,1.38,0,2.24-3.71,3-5.46,3a8.4,8.4,0,0,1-2.81-.45c-3-1.18-4.49-5.14-4.49-8.15a9.32,9.32,0,0,1,2.41-6.31,6.78,6.78,0,0,1,5-2.57,7.89,7.89,0,0,1,5.62,2.93,4.68,4.68,0,0,1,1.35,2.49C153.88,26.12,147.56,26.16,146,26.16Zm.29-4.88a2.38,2.38,0,0,0-2.2,2c0,.86,1.42.9,2,.9s3.3,0,3.3-.78S147.07,21.28,146.3,21.28Z"/><path d="M173.83,36c-2.6,0-5.46-.73-5.46-3.91,0-.61.13-1.55.94-1.55,1.92,0,2.93,2.77,3.67,2.77a2.25,2.25,0,0,0,1.83-1.87c0-2.61-5.42-3.3-6.15-6.27a7,7,0,0,1-.21-1.27c0-2.6,2.33-5.42,5-5.42,1.75,0,5.17,2.08,5.17,4,0,.77-.61,2.52-1.59,2.52s-1.59-3.5-3.63-3.5a1.87,1.87,0,0,0-1.79,1.55c0,2.2,7.17,2.4,7.17,7.58C178.76,33.7,177,36,173.83,36Z"/><path d="M186.54,35.86c-3,0-4-3.1-4-5.58,0-1.83.53-3.63.53-5.46,0-1.18,0-2.89-1.26-3.42-.49-.21-.78-.33-.78-.94a4.22,4.22,0,0,1,1.59-2.65c.49-.53,2.2-2.36,2.89-2.36,1.39,0,1.39,3.83,3.14,3.83.21,0,.37-.08.57-.08.9,0,1.39,1.06,1.39,1.83s-.53,1.18-1.31,1.18c-.44,0-.89-.08-1.34-.08-.9,0-1.14.33-1.31,1.18a27.56,27.56,0,0,0-.4,4.81,5.85,5.85,0,0,0,.65,3.1,4.24,4.24,0,0,0,2.57,1.91c.32.08,1.18.08,1.18.61C190.66,35.21,187.68,35.86,186.54,35.86Z"/><path d="M205.36,33.37a10.62,10.62,0,0,1-6.47,2.45c-4.32,0-7.22-4.36-7.22-8.31a9.61,9.61,0,0,1,.13-1.63c.57-3.63,3.79-7.21,7.61-7.21,5.63,0,8.07,4.23,8.07,9.37A6.52,6.52,0,0,1,205.36,33.37Zm-5.82-11.32c-2.41,0-4,2.61-4,4.81a1.11,1.11,0,0,0,0,.36c.33,2.77.94,5.5,4.32,5.5,2.57,0,3.83-2.69,3.83-4.89C203.69,25.19,202.67,22.05,199.54,22.05Z"/><path d="M218.36,23.72c-.7,0-1.39-.37-2.08-.37-1.63,0-1.71,2.41-1.71,3.75v.45c0,1.1,0,4.48.81,5.25.49.49.94.82.94,1.55a1.5,1.5,0,0,1-1.47,1.39c-.69,0-1.26-.37-1.95-.37s-1.35.73-2.16.73A2.91,2.91,0,0,1,208.5,34c0-1,1.42-1.39,2-2a3.38,3.38,0,0,0,.57-2.36c0-1.75-.4-6.68-1.67-7.87-.32-.32-.73-.57-.73-1.05,0-1.23,3.14-2.45,4.2-2.45,1.87,0,1.46,2,2,2,.94,0,2.24-1.31,3.34-1.31a2.21,2.21,0,0,1,2.2,2.2A2.32,2.32,0,0,1,218.36,23.72Z"/><path d="M236.08,23.6a25.21,25.21,0,0,0-3.26,6.47c-.7,1.84-1.14,3.71-1.84,5.55-.89,2.24-4,9.49-6.76,9.49-1,0-2.2-.61-2.2-1.75,0-3.22,4.6-1.76,5.95-7a8.31,8.31,0,0,0,.2-1.71c0-2.65-1.46-5-2.24-7.5s-1.51-3.87-3.79-5.46c-.36-.24-.85-.53-.85-1.06,0-1.3,3.18-1.79,4.15-1.79,1.35,0,3.26.29,3.59,1.87a3.23,3.23,0,0,1,0,.62v.24c0,1.43-.61,2.73-.61,4.16,0,.77,1.34,2.56,2.16,2.56,1.46,0,1.63-3.13,1.63-4.15a12.61,12.61,0,0,0-.21-2.24c0-.17,0-.33,0-.45,0-1.55,1.39-2.28,2.77-2.28.9,0,3.67.28,3.67,1.59C238.44,21.48,236.61,23,236.08,23.6Z"/><path d="M257.87,36c-2.61,0-5.46-.73-5.46-3.91,0-.61.12-1.55.93-1.55,1.92,0,2.94,2.77,3.67,2.77a2.24,2.24,0,0,0,1.83-1.87c0-2.61-5.41-3.3-6.15-6.27a7,7,0,0,1-.2-1.27c0-2.6,2.32-5.42,5-5.42,1.75,0,5.17,2.08,5.17,4,0,.77-.61,2.52-1.59,2.52s-1.58-3.5-3.62-3.5a1.87,1.87,0,0,0-1.79,1.55c0,2.2,7.17,2.4,7.17,7.58C262.8,33.7,261,36,257.87,36Z"/><path d="M278.52,23.6a25.86,25.86,0,0,0-3.26,6.47c-.69,1.84-1.14,3.71-1.83,5.55-.9,2.24-4,9.49-6.76,9.49-1,0-2.2-.61-2.2-1.75,0-3.22,4.6-1.76,5.94-7a7.69,7.69,0,0,0,.21-1.71c0-2.65-1.47-5-2.24-7.5s-1.51-3.87-3.79-5.46c-.37-.24-.86-.53-.86-1.06,0-1.3,3.18-1.79,4.16-1.79,1.34,0,3.26.29,3.58,1.87a3.23,3.23,0,0,1,0,.62v.24c0,1.43-.61,2.73-.61,4.16,0,.77,1.35,2.56,2.16,2.56,1.47,0,1.63-3.13,1.63-4.15a13.62,13.62,0,0,0-.2-2.24c0-.17,0-.33,0-.45,0-1.55,1.38-2.28,2.77-2.28.89,0,3.66.28,3.66,1.59C280.88,21.48,279.05,23,278.52,23.6Z"/><path d="M287.36,36c-2.61,0-5.46-.73-5.46-3.91,0-.61.12-1.55.94-1.55,1.91,0,2.93,2.77,3.66,2.77a2.25,2.25,0,0,0,1.84-1.87c0-2.61-5.42-3.3-6.15-6.27a6.24,6.24,0,0,1-.21-1.27c0-2.6,2.32-5.42,5-5.42,1.75,0,5.18,2.08,5.18,4,0,.77-.62,2.52-1.59,2.52s-1.59-3.5-3.63-3.5a1.87,1.87,0,0,0-1.79,1.55c0,2.2,7.17,2.4,7.17,7.58C292.29,33.7,290.54,36,287.36,36Z"/><path d="M300.07,35.86c-3,0-4-3.1-4-5.58,0-1.83.53-3.63.53-5.46,0-1.18,0-2.89-1.27-3.42-.49-.21-.77-.33-.77-.94a4.22,4.22,0,0,1,1.59-2.65c.49-.53,2.2-2.36,2.89-2.36,1.39,0,1.39,3.83,3.14,3.83.2,0,.36-.08.57-.08.89,0,1.38,1.06,1.38,1.83s-.53,1.18-1.3,1.18c-.45,0-.9-.08-1.35-.08-.89,0-1.14.33-1.3,1.18a27.56,27.56,0,0,0-.41,4.81,5.86,5.86,0,0,0,.66,3.1A4.22,4.22,0,0,0,303,33.13c.33.08,1.18.08,1.18.61C304.18,35.21,301.21,35.86,300.07,35.86Z"/><path d="M312.17,26.16c-.61,0-1.18-.16-1.76-.16s-.89.49-.89,1.06a7.17,7.17,0,0,0,.65,2.61c.57,1.51,1.47,3.22,3.34,3.22,1.47,0,2.73-1.1,3.91-1.1.74,0,1,.77,1,1.38,0,2.24-3.71,3-5.46,3a8.44,8.44,0,0,1-2.81-.45c-3-1.18-4.48-5.14-4.48-8.15a9.31,9.31,0,0,1,2.4-6.31,6.82,6.82,0,0,1,5-2.57,7.93,7.93,0,0,1,5.63,2.93A4.73,4.73,0,0,1,320,24.13C320,26.12,313.71,26.16,312.17,26.16Zm.28-4.88a2.38,2.38,0,0,0-2.2,2c0,.86,1.43.9,2,.9s3.3,0,3.3-.78S313.23,21.28,312.45,21.28Z"/><path d="M346.06,35.66c-.94,0-5.25-.33-5.25-1.39,0-.61,2-2.81,2-5.38a10.37,10.37,0,0,0-.08-1.14c-.16-1.5-1.87-5.42-3.63-5.42-1.3,0-2,2.24-2.11,3.3a45.28,45.28,0,0,0-.49,5.34,2.25,2.25,0,0,0,.36,1.51c.62.77,1.14,1.22,1.14,2.28,0,.65-.28.81-.89,1a13.24,13.24,0,0,1-2.53.16h-.28a3,3,0,0,1-2.53-.81,2.13,2.13,0,0,1-.45-1.06c0-.74,2-1.1,2-4.24,0-1.1-.12-2.16-.2-3.22s-.21-3.38-1.19-4.07a1.71,1.71,0,0,0-1.1-.33c-3.38,0-3.46,3.91-3.46,6.44v.28a6.77,6.77,0,0,0,.69,3.59,2.44,2.44,0,0,1,.49,1.38c0,1.76-2.16,2.29-3.54,2.29s-4.08-.41-4.08-2.08,2.9-1.71,2.9-6c0-2.16-.13-4.56-1.88-6.07-.36-.33-.57-.49-.57-1,0-1.75,2.16-2.2,3.55-2.2,1.75,0,2.36,1.14,3.13,1.14,1.35,0,2.57-1,4-1s2.44,1.18,3.78,1.18c2,0,3.75-1.18,5.75-1.18a3,3,0,0,1,2.2.86,6.48,6.48,0,0,1,2.32,4.48c0,1.26-.41,2.48-.41,3.75a10,10,0,0,0,1.19,5.21,2.7,2.7,0,0,1,.61,1.43C347.49,35.41,346.75,35.66,346.06,35.66Z"/></g></svg>