<svg id="Layer_1" data-name="Layer 1" xmlns="http://www.w3.org/2000/svg" viewBox="0 0 360 50"><defs><style>.cls-1{isolation:isolate;}.cls-2{fill:none;stroke:#000;stroke-miterlimit:10;}</style></defs><title>Artboard 4</title><g class="cls-1"><path d="M24.72,12.89a7.35,7.35,0,0,1-1.29,0c-.13,0-.25-.13-.34-.13s-.37,0-.54,0a2.52,2.52,0,0,1-.54-.08h-.46a9.52,9.52,0,0,0-2.17.17v.37a.32.32,0,0,0,.08.21.32.32,0,0,1-.08.21c0,.17,0,.29,0,.46a2.11,2.11,0,0,0,0,.5,2.87,2.87,0,0,0,.12.46,11,11,0,0,0,0,1.21,2.62,2.62,0,0,0,.13.54c0,.17,0,.38,0,.54s.17.42.21.67,0,.71,0,1a6.83,6.83,0,0,0-.17.88c0,.25.21.46.25.75a10.18,10.18,0,0,1,0,1.25c0,.17.13.34.13.5s0,.42,0,.59a2.87,2.87,0,0,0,.25.75,1.61,1.61,0,0,1,0,.67c0,.12-.08.25-.08.33s.12.33.12.5a15.35,15.35,0,0,0,.17,2.34c-.08.12,0,.37-.17.46a2.83,2.83,0,0,1,.21.62c0,.21-.08.38-.08.59a2.25,2.25,0,0,0,.12.54c0,.21-.08.37-.08.62s0,.38,0,.55a9.72,9.72,0,0,1,0,1.08c0,.13-.17.29-.17.46s.05.59.05.88c0,.08-.05.16-.05.21s0,.12,0,.16.09.17.09.3a8.05,8.05,0,0,0-.17,1c0,.12.08.16.12.33l.21.75a1.44,1.44,0,0,1,.05.63c0,.16.16.42-.09.58a.85.85,0,0,1,.38,1c-.09.38-.55.38-.75.63-.17,0-.3-.08-.34-.21a4.92,4.92,0,0,1-1.75-.25l-.67.17c-.21,0-.42,0-.54-.09-.17.21-.42.17-.88.21,0,0-.08.09-.2,0s-.26.05-.34.09-.58,0-.79,0a1.26,1.26,0,0,1-.88,0c-.42-.09-.25-.71-.46-1,0-.34.38-.46.21-.8a5.65,5.65,0,0,0,.42-.62c.08-.25.08-.63.17-.84s0-.33,0-.62a1.94,1.94,0,0,0-.09-1.09,2.1,2.1,0,0,0,.13-1,.24.24,0,0,0,.08-.21c0-.17-.12-.37-.12-.54s.16-.54.16-.79-.12-.25-.12-.42.08-.42.08-.59a1.59,1.59,0,0,0-.12-.62c.12,0,0-.29.12-.34a3,3,0,0,1-.08-1.08,10.44,10.44,0,0,0-.13-1.67c0-.12-.08-.21-.12-.33,0-.8.37-1.67-.09-2.3.21-.75-.08-1.88.09-2.54,0-.34-.25-.25-.21-.5a4.39,4.39,0,0,0-.09-1.3,6.68,6.68,0,0,1,0-2.42,2.54,2.54,0,0,1-.25-.58,5.13,5.13,0,0,1,.17-1.34c0-.37,0-.79,0-1,0-.46-.12-1.09-.12-1.59-.67,0-1.34.17-2,.21-.12,0-.16-.08-.29-.08L10,13a1.28,1.28,0,0,1-.42.13,11.73,11.73,0,0,1-1.21,0,4.87,4.87,0,0,1-2.08.25c-.3-.46-.13-1-.17-1.38a3.46,3.46,0,0,1,0-.71c0-.12.08-.25.08-.33s-.12-.17-.17-.21a6,6,0,0,1,.05-.87c0-.3-.3-.21-.25-.5C5.86,8.67,5.4,7.55,6,7a1.53,1.53,0,0,1,1,0c.13,0,.29,0,.42,0a4.81,4.81,0,0,0,.79.25c.17,0,.38-.08.59-.08s.5.08.75.08l.25,0a2,2,0,0,1,.29,0c.25,0,.54-.17.79-.17a7.1,7.1,0,0,1,1,.17,2.29,2.29,0,0,0,.5-.09.91.91,0,0,0,.33,0,2,2,0,0,0,.46-.12c.17,0,.29.08.46.08s.16-.12.21-.12c.41-.09.91.08,1.29,0,.21,0,.25.17.42.21s.46-.16.67.09a1.07,1.07,0,0,1,.75-.3c.2,0,.54.17.91.13.21.12.84,0,1,.17l.66-.13h.3a1.57,1.57,0,0,1,.41,0,3.1,3.1,0,0,1,.5.13,7.84,7.84,0,0,0,1.38,0,6.08,6.08,0,0,1,2.09-.08,2.08,2.08,0,0,1,.46.54,2.24,2.24,0,0,1,0,.54c0,.67-.09,1.55,0,2.34a9.2,9.2,0,0,0,.16,1.17C24.85,12.26,25,12.64,24.72,12.89ZM22.84,8.8a2.37,2.37,0,0,1-.92,0,3.83,3.83,0,0,1-1.21,0c-.21-.09-.21-.29-.46-.29a4.2,4.2,0,0,0-.75.12c-.37-.21-.54-.12-.87,0-.25-.12-.5,0-.75-.08s-.34-.13-.46-.13-.25.09-.42.05-.13-.21-.25-.13-.08.13-.17.21c-.46.08-.92-.21-1.33-.17s-.59.17-.88.17c-.08,0-.25-.08-.33-.08a13.7,13.7,0,0,1-1.67,0c-.21,0-.34.16-.54.16a3.84,3.84,0,0,1-1,.09,3.58,3.58,0,0,0-.62-.17,2.55,2.55,0,0,1-.55,0,22.25,22.25,0,0,0-2.29,0,6.32,6.32,0,0,1,.12,1.29c0,.13.13.21.13.34v.33c0,.17,0,.34,0,.46,0,.29-.12.58,0,.84s.21-.13.3-.13.12,0,.2,0c.8-.17,1.63-.08,2.3-.21.08,0,.12,0,.25,0a2.14,2.14,0,0,1,.54-.12c.5-.05,1,0,1.51-.05a2.85,2.85,0,0,1,.58-.12c.08,0,.21.08.33.08s.3-.08.42-.08.38.21.46.21.21,0,.25.08c.42.34.21.84.25,1.5,0,.13.13.34.13.46s-.05.38,0,.55.12.25.12.41-.08.29-.08.46c0,1.09-.09,2.21,0,3.3,0,.29.12.54.12.83a3.85,3.85,0,0,0-.08.71,1.55,1.55,0,0,0,.12.42,1.94,1.94,0,0,0,.05.54,8.36,8.36,0,0,1,.16,1,10.65,10.65,0,0,1,0,1.13c0,.71.13,1.42.13,2.09s0,1.46,0,2v.59A13,13,0,0,0,16,28.79c0,.12-.09.21-.09.25s.09.17.09.29c0,.5,0,.92,0,1.25,0,.59,0,1.09,0,1.63s0,.92,0,1.34c0,1.25-.13,2.46,0,3.67a10.45,10.45,0,0,0,1.12,0,5.49,5.49,0,0,1,.67-.17,1.23,1.23,0,0,1,.54,0c.08,0,.08.13.13.13s.12,0,.21,0a.81.81,0,0,1,.45-.09,11.48,11.48,0,0,0-.2-2.13c0-.29.08-.58.08-.87a4.44,4.44,0,0,1,0-1.3c.25,0-.29-.12,0-.21.21-.54,0-1.12,0-1.75,0-.42.17-.83.17-1.25A6.86,6.86,0,0,0,19,27.91c0-.29-.08-.54-.08-.83s.08-.38.08-.59-.16-.41-.2-.62c-.05-.42,0-.92-.05-1.42a1.39,1.39,0,0,0-.12-.38c0-.37,0-.79,0-1.17a4,4,0,0,1,0-1.41,1.86,1.86,0,0,1-.17-.55c0-.16,0-.37,0-.58s-.13-.29-.13-.42a2.43,2.43,0,0,0,0-.54c0-.38-.16-.79-.16-1.13,0-.12.08-.33.08-.5s-.21-.5-.25-.71a1.46,1.46,0,0,1,0-.42c-.09-.58-.09-1.5-.13-1.87a.46.46,0,0,1,.09-.21,2.85,2.85,0,0,0-.13-.5,2.29,2.29,0,0,1,0-.71.87.87,0,0,0,.08-.29.86.86,0,0,1-.12-.34l-.09-.42a3,3,0,0,1,0-.87,16.68,16.68,0,0,0,1.88-.13,10.21,10.21,0,0,1,1.08,0,3,3,0,0,0,.63-.08,1.33,1.33,0,0,1,1,0c.21-.17.67-.08,1-.21,0-.21,0-.46-.08-.58.21-.21,0-.55,0-.8,0,0,.08-.12,0-.2A1,1,0,0,0,22.84,8.8ZM21.05,9c.12-.05.12.08.12.2C21.05,9.05,21.05,9,21.05,9Z"/><path d="M55.31,23.48c-.05.28.19.75-.05,1,.38.33.14.75.05,1.27-.05.28,0,.61,0,.8s-.19.28-.24.42-.09.38-.23.38a2.08,2.08,0,0,1-.19,1.08l-.09.38c0,.09-.15.19-.15.28s.05.33,0,.47-.18.29-.23.43l-.57,1.46a6.77,6.77,0,0,1-.89,1.65,2.49,2.49,0,0,1,0,.61,3.67,3.67,0,0,0-.8.89,3.15,3.15,0,0,1-.47.76c-.24.28-.57.42-.85.7-.33,0-.28.1-.52,0a3.38,3.38,0,0,1-1.6.9.92.92,0,0,0-.23.14c-.15,0-.29-.05-.38,0a4.8,4.8,0,0,1-1.23.33c-.14,0-.32-.1-.47-.1s-.42.19-.7.24a15.56,15.56,0,0,1-1.6.09c-.1,0-.14.1-.19.1s-.1-.1-.19-.1-.19.14-.28.14h-.33a1.54,1.54,0,0,0-.43,0,3.18,3.18,0,0,1-1.31.19c-.15,0-.1.14-.24.14a4.19,4.19,0,0,1-2.54-.28.87.87,0,0,1-.61,0c-.15,0-.19-.1-.33-.14h-.29A4.73,4.73,0,0,1,35.3,37a1.27,1.27,0,0,0-.43,0c-.42-.23-.66-.56-1.27-.61,0-.23-.19-.23-.14-.47-.24.14-.33-.14-.47-.23l-.47-.24a2.57,2.57,0,0,0-.33-.33c-.14-.09-.38-.14-.47-.23a2.23,2.23,0,0,1-.38-.48c-.09-.09-.38-.18-.28-.42l-.66-.56c0-.24-.19-.33-.14-.62-.14-.14-.24-.14-.38-.33l-.09-.18c-.19,0-.1-.15-.14-.19l-.38-.52a7.57,7.57,0,0,1-.28-.85c0-.14,0-.19,0-.33a1.07,1.07,0,0,1-.14-.8c-.1-.19-.33-.28-.38-.47-.09-.47-.05-.89-.14-1.32-.05-.28-.33-.52-.19-.85-.19-.18-.23-.51-.42-.66.09-.37-.14-.75-.14-1.22a4,4,0,0,1,.09-.71v-.8a5.48,5.48,0,0,1,.28-1c.05-.33,0-.66.24-.76-.24-.8.28-1.41.28-2.21.14-.1.14-.43.28-.52,0-.66.33-1,.43-1.51.33-.14.42-.47.61-.75.09-.09.19-.09.24-.14s.14-.52.47-.47c.09-.24,0-.14,0-.43.37-.14.51-.51.89-.75l.38-.14.28-.24a3.33,3.33,0,0,0,.42-.42,4.77,4.77,0,0,1,.8-.52,3.73,3.73,0,0,1,.81-.61c.09,0,.23-.24.37-.28a1,1,0,0,1,.38-.05c.19-.09.56-.42.85-.23a2.72,2.72,0,0,1,2-.57c.24,0,.24-.19.38-.19a8.65,8.65,0,0,1,1.7-.14c.23,0,.47.09.65.09a4.19,4.19,0,0,0,.85-.14c.19,0,.33,0,.47,0a2.86,2.86,0,0,1,1.13,0c.14,0,.33.18.47.18s.38-.09.52-.09l.52.19a1.68,1.68,0,0,0,.47.14c.19,0,.43,0,.61,0a2.45,2.45,0,0,1,.76.23c.23.05.51.19.75.24a9.63,9.63,0,0,1,2.35.28c.15.05.33.24.52.33s.19,0,.24,0,.19.24.28.28.38.1.28.33a6.31,6.31,0,0,1,1.84,1.18,1.47,1.47,0,0,0,.28.75l.66.71c.1.09.05.28.14.52a8.45,8.45,0,0,0,.57,1c0,.47,0,.38.23.76s.29.89.71,1.08c0,.33.23.66.28,1A11.13,11.13,0,0,1,55.31,22c0,.14-.1.28-.05.38s.1.47.1.7S55.31,23.34,55.31,23.48ZM53.9,21.17c-.33-.23-.33-.8-.43-1.32-.33-.28-.37-.84-.51-1.36-.15-.24-.48-.33-.34-.85-.28,0-.18-.28-.37-.28a6.45,6.45,0,0,0-1-1.08,2.24,2.24,0,0,0-.94-1.18c-.52-.43-1.09-.43-1.37-.9a4.38,4.38,0,0,0-1.36-.09c-.19.05-.38.14-.62.23a3.87,3.87,0,0,0-.61.19c0-.42-.37-.52-.33-1a19.59,19.59,0,0,0-2-.28A12.2,12.2,0,0,0,41.84,13c-.28,0-.47.14-.75.09S40.9,13,40.71,13s-.19.14-.23.14S40.29,13,40.1,13s-.61.14-.85.14-.33-.1-.42-.1-.19.14-.24.14h-.23a7.17,7.17,0,0,0-1,.24,1.41,1.41,0,0,1-.85.14A2.65,2.65,0,0,1,35,14.2c-.1.24-.38.38-.47.47-.57.33-.9.8-1.46.85a.56.56,0,0,1-.52.47c0,.33-.33.33-.57.43a12.39,12.39,0,0,0-.84,1.36c-.1.19-.38.19-.48.38.19.28-.28.56-.37.8l-.1.94c0,.14-.18.19-.23.28s-.05.38-.1.52a8,8,0,0,0-.23.94.48.48,0,0,1-.05.38,4.3,4.3,0,0,1-.23.94,2.88,2.88,0,0,0-.1,1.08c0,.29-.09.66-.09.9,0,.09.14.24.14.38a2.09,2.09,0,0,0,0,.56,10.47,10.47,0,0,0,.42,1c.1.38,0,.8.14,1.22,0,.1.1.19.15.29a10.18,10.18,0,0,1,.32,1.17A8.71,8.71,0,0,0,30.82,31c.43.95,1.13,1.65,1.56,2.45a1.43,1.43,0,0,1,.94.85c.52.09.89.52,1.41.8.1,0,.19,0,.24,0s.14.14.14.14.33.1.47.19.19.19.28.24a2.26,2.26,0,0,1,.57.09c.28.14.47.47.8.52a10.22,10.22,0,0,0,1.08.05c.19,0,.33.18.52.23a3.5,3.5,0,0,0,.75.09c.19,0,.33-.14.52-.14s.42.1.61.1a1.68,1.68,0,0,1,.47-.14,3.64,3.64,0,0,1,.76,0,6.27,6.27,0,0,1,.7-.09.36.36,0,0,0,.19.09c.24,0,.42-.19.61-.24s.43.05.61.05c.62-.38,1.56-.19,2.31-.33l.47-.23c.1,0,.24,0,.38,0s.09-.1.24-.15l.61-.14c.19,0,.37-.19.61-.14.19-.23.56-.33.85-.52a4.43,4.43,0,0,1,.37-.28c.15-.09.33-.14.52-.23A6.55,6.55,0,0,0,51.54,32a3.36,3.36,0,0,0,.38-.37,2,2,0,0,1,.56-1.28,5.41,5.41,0,0,1,.66-1.88c.14-.14,0-.47.1-.71s.28,0,.23-.28a21.92,21.92,0,0,1,.47-2.21C54.13,23.86,53.66,22.44,53.9,21.17Zm-2.55,2.45c0,.14,0,.14,0,.24s-.09,1-.14,1c.14.14-.42,1.41-.47,1.74-.14.85,0,1.7-.52,2.36a3.48,3.48,0,0,1-.47,1.6c-.09.09-.09.14-.19.19l-.23.37-.38.62c-.09.14-.33.33-.47.52-.23.37-.66.8-1,1.22a2.51,2.51,0,0,0-.85.47l-.56.38a4.68,4.68,0,0,1-.52.37A1.55,1.55,0,0,1,45,35a2.6,2.6,0,0,1-1,.28c-.33.05-.71-.14-1,.05a2.19,2.19,0,0,0-1.36-.15c-.43-.14-.62-.32-1.09-.14-.94-.61-2.12-.7-3.15-1.27-.28,0-.28-.33-.47-.47a1.48,1.48,0,0,1-1-.94,5.15,5.15,0,0,1-1.6-1.55c-.09-.24,0-.24-.09-.52s-.38-.33-.52-.57c.09-.19-.1-.23-.14-.42s0-.43,0-.57l-.24-.37a.42.42,0,0,1,0-.24s-.14-.05-.19-.05,0-.33-.05-.47-.14-.09-.14-.14c-.09-.28,0-.7-.28-.94.23-.47-.24-.8-.05-1.22.05-.24-.19-.19-.23-.38s.14-.52-.05-.61c.28-.29-.1-.85.23-1.27,0-.24-.18-.29-.14-.52.19-.05,0-.43.24-.38-.19-.28,0-.52.09-.75a1.24,1.24,0,0,0,0-.43,4.18,4.18,0,0,1,.28-.56,2.17,2.17,0,0,0,.29-.94c.23-.05.23-.24.33-.33l.14-.19a1.69,1.69,0,0,1,.33-.38c.09,0,.09,0,.14-.14s.23-.05.19-.28c.37-.1.56-.42.85-.66a6.22,6.22,0,0,0,.7-.75c.71-.38,1.13-1,2.12-1.18.24-.05.38-.33.57-.42s.28-.05.42-.1.71-.38,1-.42a3.17,3.17,0,0,0,.62,0c.19,0,.37-.05.52-.05s.32.19.51.19c.52,0,1.09-.47,1.75-.38s.84.61,1.5.57a2,2,0,0,0,.71.47,1.9,1.9,0,0,1,1.6,0,.77.77,0,0,0,.28.24c.29.14.61.14.85.28s.61.42.66.66c.42,0,.42.47.8.56.09.33.38.52.52.8,0,.1,0,.19.09.29l.14.14c.05.09,0,.14.05.23A5,5,0,0,1,51,19.67a.33.33,0,0,0,0,.23,4.53,4.53,0,0,0,.14.75,3.31,3.31,0,0,0,.28.52A7,7,0,0,1,51.35,23.62Zm-1.5-1.22a2.71,2.71,0,0,0,0-.57c-.1-.61-.43-1.13-.57-1.83a5.85,5.85,0,0,0-.09-1.23c-.24-.09-.19-.38-.33-.52s-.47-.33-.52-.61a5,5,0,0,1-.89-.47,5,5,0,0,1-.9-.09c-.28-.1-.42-.29-.66-.33-.47-.05-.52.23-1,.14-.33-.14-.43-.52-.71-.71a1.41,1.41,0,0,0-.61-.05c-.19,0-.19-.28-.47-.23a2.83,2.83,0,0,1-1.89.19,1.34,1.34,0,0,0-.56.33c0-.19-.38-.05-.52-.1-.52.33-1.27.61-1.74.85-.14,0-.24,0-.33.09s-.33.38-.47.52a5.1,5.1,0,0,1-.52.52,2.44,2.44,0,0,1-.33.14c-.57.28-.85.85-1.37,1.08,0,.48-.47.71-.66,1.13s-.18.85-.33,1.13l-.14.38c-.23.71,0,1.46-.37,2.07.19.1.09.38.14.62s.28.61.14,1c0,.1-.19.05-.14.24s.14.23.19.38a1.06,1.06,0,0,1,.23.37c.05.05,0,.14,0,.24s.33.38.19.66c.28.09.24.47.47.56-.14.33.33.66.19,1.23l.23.14c.05.09,0,.19.05.33s.33.28.33.52c.33.09.52.47.8.7s.28.19.43.33.42.38.61.52.09.14.14.14.42.1.61.19.33.28.47.33c.47.19,1.08.09,1.51.56.52,0,.8.24,1.41.19.24,0,.33.24.61.24a3.56,3.56,0,0,1,.62-.14,4.33,4.33,0,0,1,.84.09,4.2,4.2,0,0,0,1-.42,1.29,1.29,0,0,1,.85-.38c0-.28.33-.42.52-.61a2.44,2.44,0,0,0,.7-.76,7,7,0,0,1,.48-.56,14,14,0,0,0,1-1.74,4.44,4.44,0,0,0,.47-1c0-.1,0-.24,0-.38s.24-.33.1-.42a2.74,2.74,0,0,0,.18-1.13c.33-.33.24-.76.33-1.32,0-.28.24-.52.24-.75a10.8,10.8,0,0,0,.09-1.6C49.94,22.49,49.85,22.49,49.85,22.4Z"/><path d="M88.41,26.68c0,.1-.1.28-.1.43s.1.28.1.42a3.14,3.14,0,0,0-.24.66c-.14.47-.14,1-.28,1.65a3.63,3.63,0,0,1-.33.75c0,.19,0,.28-.09.47s-.29.66-.47,1-.1.52-.38.56c0,.71-.47.81-.52,1.46a1.61,1.61,0,0,0-.52,1,2.39,2.39,0,0,0-.61.57,10.47,10.47,0,0,0-1.65,1.55,1.11,1.11,0,0,0-.84.61,1.6,1.6,0,0,0-.85.33c-.24.1,0-.23-.28-.14s-.1.24-.24.29l-.38.09-.66.28c-.14,0-.09.1-.37.14L79,39A1.92,1.92,0,0,1,78.8,39a.67.67,0,0,1-.09.19c-.1,0-.28-.09-.42-.09a6.23,6.23,0,0,0-1.32,0,7.65,7.65,0,0,1-1.65.19c-.28,0-.28-.14-.43-.09s-.47-.19-.65-.24A.9.9,0,0,0,74,39a5.23,5.23,0,0,1-1.13-.14l-.28-.19-.85-.09a8.9,8.9,0,0,1-1-.24l-.52-.09c-.14-.05-.23-.19-.37-.24-.29-.09-.66-.09-.85-.38-.24-.09-.19.1-.43.05-.33-.28-1.08-.19-1.22-.61-.52.19-1-.28-1.37-.57-.47.8.38,2.12-.14,3.11.14.42.43.8.14,1.23,0,.28.24.23.29.42v1c0,.33-.38.14-.43.37s.19.1.33.24a13.61,13.61,0,0,0,.19,2.35,1.17,1.17,0,0,0,.14.57c.14.42.52.61.57,1a1.82,1.82,0,0,1-.1.75.87.87,0,0,1-1.22.19c-1.27.19-2.31.61-3.58.75a1.75,1.75,0,0,1-1.13.47c-.14,0,0,.15-.09.19s-.24.19-.33.33-.1,0-.38.14c0,0,0,.15-.14.15-.33,0-.61-.24-.9-.33a1,1,0,0,0-.09-.38,1,1,0,0,1-.14-.33c0-.14.05-.66.09-1a1.84,1.84,0,0,1,.19-.75,1.24,1.24,0,0,1-.14-.62,14.79,14.79,0,0,1,.28-2.3V42.88c.1-.75.28-1.46.38-2.17,0-.09-.1-.09-.1-.18a1.37,1.37,0,0,0,.1-.43c0-.33,0-.7,0-1.22,0-.14-.1-.14-.1-.28s.1-.15.1-.24-.15-.47-.15-.71c0-.09,0-.56.1-.84a4,4,0,0,1,.23-.66,9.69,9.69,0,0,1-.09-2V33.09a7.58,7.58,0,0,0,.19-1c0-.28-.14-.57-.14-.85s.09-.52.09-.75-.05-.38-.05-.52a15,15,0,0,0,.24-1.84,3.08,3.08,0,0,0,0-.65c0-.76,0-1.37,0-2.22,0-.14.09-.28.09-.37,0-.24-.14-.43-.14-.62s.1-.28.1-.47-.1-.37,0-.52a4.94,4.94,0,0,1,.09-.75c0-.38-.18-.71.1-1.08-.1-.19,0-.33-.1-.52a1.47,1.47,0,0,0,0-.47,2,2,0,0,0-.14-.52c0-.23,0-.42,0-.61s-.19-.71-.24-1.08c0-1.13.1-2.31,0-3.35a.94.94,0,0,1,.1-.28,6.27,6.27,0,0,0-.14-.85,18.7,18.7,0,0,0-.38-2.3.81.81,0,0,1,1.22-.33c.1,0,.1.28.29.33a7.75,7.75,0,0,0,2-.38,1.54,1.54,0,0,0,.47-.05s.14-.14.14-.14.23,0,.33,0a1.59,1.59,0,0,1,.52-.14,1.48,1.48,0,0,1,1,.61c-.09.38,0,.71-.14,1.08a2,2,0,0,1-.14.52c0,.24.05.57,0,.76a3.6,3.6,0,0,0-.28.84c.33-.09.52-.37.85-.42.37-.52,1.08-.71,1.55-1.13.28-.05.38-.1.52.09.28-.19.28-.42.56-.61a7.36,7.36,0,0,0,.76-.28,2,2,0,0,0,.7-.33c.29.09.57-.14.85-.24a4.25,4.25,0,0,1,.85-.18,5.52,5.52,0,0,1,.89-.15A8.21,8.21,0,0,1,74.24,11a10.3,10.3,0,0,1,1.08.19,3.33,3.33,0,0,1,1.88.52c.24,0,.24-.14.47-.1l.38.19.38.14c.14.1.09.19.14.24s.14,0,.23.09.24.24.33.29.43.09.61.18a6,6,0,0,0,1.61.57,3.23,3.23,0,0,0,.61.47l.56.38c.14.09.33.14.33.33.24-.05.24,0,.43,0,0,.24.33.14.37.33s.1.14.29.33l.23.14c0,.05,0,.14.09.24.33.38.38.61.71.85.19.09.38.47.52.7l.38.38a4.43,4.43,0,0,1,.75,1l.14.37c0,.1.19.19.24.33a.93.93,0,0,0,.18.52,3.3,3.3,0,0,1,.33.43s.15.09.15.14,0,.19,0,.23.18.14.18.24,0,.28,0,.42a1.74,1.74,0,0,1,.15.33c.09.24.18.43.23.61,0,.33-.19.71.14,1a5.68,5.68,0,0,0,.1,1.23C88.5,25.18,88.41,25.93,88.41,26.68Zm-1.88-3.53c0-.09.09-.14.09-.24s-.19-.18-.19-.23a3.4,3.4,0,0,0,0-.71c-.1-.28-.38-.56-.28-.89,0-.14-.24-.14-.33-.24s-.05-.28-.15-.37l-.42-.62-.38-.7-.23-.33c0-.14,0-.33-.14-.43s-.1-.14-.14-.18l-.29-.29s-.18,0-.23-.09,0-.19,0-.24a.49.49,0,0,0-.23,0c-.19-.19-.33-.43-.48-.57a3.77,3.77,0,0,0-.56-.94c-.09,0-.24,0-.28,0l-.1-.19s-.14,0-.23,0l-.29-.14-.37-.09-.14-.24-.33-.14L80.64,15a1.17,1.17,0,0,0-.47-.24s-.1-.14-.14-.14c-.47-.19-1-.19-1.46-.38a5.68,5.68,0,0,1-.52-.28.93.93,0,0,1-.28-.19c-.1,0,0-.33-.24-.23a6.16,6.16,0,0,0-2.73-.66c-.33-.33-.75-.24-1.18-.19s-.66.09-.84.14-.38.05-.48.09a.45.45,0,0,1-.47.15l-1.46.42a2.87,2.87,0,0,0-.56.14,5.32,5.32,0,0,0-.85.47l-.61.24c-.19.19-.28.14-.43.23a7.66,7.66,0,0,0-.84.52s-.14,0-.24,0-.33.47-.66.42c-.19.24-.23.57-.61.52a.83.83,0,0,1-.19.47c-.28.24-.28.57-.52.61-1.64.19-1.36-1.36-1.31-2.78a5.75,5.75,0,0,0,0-2,10.92,10.92,0,0,1-2.07.47c0,.56,0,1.13,0,1.69s.19,1.09,0,1.46c.38.52-.05,1.89.1,2.36,0,0,0,.14.09.28a27.35,27.35,0,0,1,.19,4.8c-.1.24,0,.24,0,.29,0,.61.05,1.08.05,1.55a9.66,9.66,0,0,0-.19,1.18c0,.37.14.8.14,1.17a.79.79,0,0,0-.19.19v.24a3.84,3.84,0,0,0-.09.7c0,.19.14.38.14.62a2.79,2.79,0,0,1-.1.51,2.57,2.57,0,0,1,0,.62,2.42,2.42,0,0,0-.14.51,2.6,2.6,0,0,0,0,.62,35.16,35.16,0,0,0,0,4,3,3,0,0,0-.24,1.22,3.76,3.76,0,0,0,.14.85c-.05.28-.38.28-.33.66a3.2,3.2,0,0,1,.33,2.07l-.09,1c-.1.75-.38,1.46-.43,2.12,0,.14,0,.38,0,.52s0,.23,0,.23a2.51,2.51,0,0,1-.19,1c0,.14.1.33.1.52a5.84,5.84,0,0,0-.05,1.32c.71,0,1.46-.52,2.17-.57a1.07,1.07,0,0,1,.75.1c0-.38.52-.29.75-.43,0-.28-.14-.47-.14-.8,0-.14.1-.28.1-.42s-.15-.42-.15-.61.15-.33.19-.52-.09-.28-.09-.42v-.29c0-.61,0-1.13-.1-1.74,0-.33,0-.75,0-1.08s-.19-.52-.24-.85,0-.8,0-1.22l-.14-2.41a.63.63,0,0,1,0-.37c0-.1-.14-.33-.14-.38s.14-.14.09-.33-.14-.14-.14-.23,0-.24,0-.38-.23-.38-.14-.61c.19-.43.9-.52,1.32-.43a1.89,1.89,0,0,1,.66,1.18c.33,0,.7.42.89.52s.47.23.43.47a9.37,9.37,0,0,1,1.64.66l.62.09a3,3,0,0,1,.56.24l.8.33A5.85,5.85,0,0,0,72,37a2.51,2.51,0,0,0,.52.14c.52.14,1,0,1.6.14s.94.28,1.41.33c.1,0,.19-.09.24-.09s.19.09.23.09a5,5,0,0,0,1-.19,6.07,6.07,0,0,1,1.28,0,1.8,1.8,0,0,0,.84-.19c.19,0,.14-.14.14-.14s.24.05.33,0c.29-.14.47-.33.71-.42s.57-.19.85-.33l.28-.19c.19-.09.33-.05.47-.14a3.2,3.2,0,0,1,1.22-1c0-.14.1-.14.15-.19l.33-.38.14-.14c0-.09,0-.19.09-.23s.19-.1.24-.14a2.53,2.53,0,0,1,.23-.38c0-.09.19,0,.24-.09s0-.24.14-.24c0-.57.42-.8.42-1.41.29-.19.29-.52.38-.85l.19-.19a2.61,2.61,0,0,1,.09-.47A1.41,1.41,0,0,0,86,29.6c0-.23.14-.47.14-.61a9.33,9.33,0,0,0,.09-1.13,6.28,6.28,0,0,0,.29-.71,7.49,7.49,0,0,0,0-2.49c-.09-.38.24-.29.24-.52A3.68,3.68,0,0,1,86.53,23.15ZM84,25.83c0,.43.09.85,0,1.28,0,.14-.14.28-.14.47s0,.33,0,.42-.1.28-.14.47a7.45,7.45,0,0,1-.33,1.27,9.35,9.35,0,0,1-.71,1.13c0,.05-.14.05-.19.14a1.86,1.86,0,0,1-.37.52c-.1.14-.15.28-.24.38a1.41,1.41,0,0,0-.28.33c-.1.09-.1.23-.24.37a.83.83,0,0,0-.33.15c-.09,0-.18.18-.23.18s-.29.05-.38.1-.24.23-.47.38a.6.6,0,0,0-.24.14,8.25,8.25,0,0,0-1,.42.36.36,0,0,1-.24.05l-.09.19c-.05,0-.19,0-.29,0s-.14.14-.14.14c-.19,0-.38,0-.56,0a2.45,2.45,0,0,1-.61.29,6.14,6.14,0,0,1-1,0c-.29.05-.57.19-.85.24s-.28-.09-.52-.09a3.85,3.85,0,0,1-1-.05,1.73,1.73,0,0,1-.42-.14l-1-.24c-.1,0-.28-.09-.33-.09a2.93,2.93,0,0,1-.66,0c-.42,0-.85-.28-1.27-.33a3.21,3.21,0,0,0-2.07-.8c-.19-.18-.38-.33-.33-.51-.33,0-.33.09-.57,0,0-.28-.56-.38-.28-.75-.42.09-.28-.43-.52-.52-.37-.33-.42-1-.89-1.27.09-.29-.19-.43-.29-.66a1.48,1.48,0,0,0,0-.47.39.39,0,0,0-.14-.24c0-.19,0-.47,0-.66A11.07,11.07,0,0,1,64.49,27a1.77,1.77,0,0,1,.09-.37.26.26,0,0,1,0-.29,2,2,0,0,1-.14-.47,1.68,1.68,0,0,1-.14-.47c0-.09.09-.33.09-.51a10.08,10.08,0,0,1,0-2c0-.14.1-.14.19-.28a2.21,2.21,0,0,1,.38-.85c0-.76.52-1,.56-1.74.47-.19.47-.85,1-.95,0-.51.42-.51.56-.89.1-.14.33-.1.43-.24s.42-.28.56-.51a1.3,1.3,0,0,0,.47-.15c.24-.18.57-.33.66-.66a5.22,5.22,0,0,1,.71-.28c.38-.33.85-.66,1.32-1a8.52,8.52,0,0,1,1.46-.7c.33-.1.89.28,1.22.33a4.53,4.53,0,0,0,1-.14,13.48,13.48,0,0,1,1.37.09c.23.09.94.05,1.13.14s.28.14.42.24.38.23.71.37a3.37,3.37,0,0,0,.66.33c.14,0,.14.24.23.38.52,0,.57.42.94.56.1.15.24.24.24.48.24-.15.24.09.38.23a1.61,1.61,0,0,1,.61.61l.14.14c.14.24.33.66.52.95a6.78,6.78,0,0,0,.52.61c0,.05,0,.14,0,.23s.1.05.14.14,0,.29.24.33c.09.19,0,.33.14.52a3.15,3.15,0,0,1,.24.38,3.3,3.3,0,0,0,.14.75l.09.76a2.68,2.68,0,0,1,.28.8,2.45,2.45,0,0,1,0,.61c0,.14.1.38.1.52A5.08,5.08,0,0,0,84,25.83ZM82.33,23A4,4,0,0,1,82,21.74a1.57,1.57,0,0,1-.47-.9,3.3,3.3,0,0,1-.7-.94,4.27,4.27,0,0,1-.66-1A3.77,3.77,0,0,1,79,18c-.28-.19-.38-.38-.52-.47s-.33-.09-.47-.19l-.38-.23s-.09-.15-.14-.15c-.28-.14-.56,0-.66-.23a18.12,18.12,0,0,0-2.35.09,4.71,4.71,0,0,1-.52-.33c-.19-.09-.28-.33-.57-.28s-.23.1-.37.14c-.38.14-.38.1-.61.28l-.29.19-.09.19c0,.05-.19,0-.24.05a1,1,0,0,1-.28.23c-.23,0-.23-.14-.42-.09-.1.61-.8.52-1.09,1-.23-.1-.28.14-.51.14a1.7,1.7,0,0,1-.62.56c-.18.15-.33.38-.56.29a1,1,0,0,1-.61.7c0,.33-.33.38-.33.76-.14,0-.33.28-.38.33-.14.23-.19.42-.33.7-.19.47-.66.95-.56,1.42a.61.61,0,0,1-.38.28,4.34,4.34,0,0,1,.14,1.55c0,.24.14.47.14.66s-.09.38-.09.57c0,.42.19.89.19,1.36,0,.24-.15.47-.1.76a3.72,3.72,0,0,1,.57,1.31,2.18,2.18,0,0,1,.8,1.28,4.77,4.77,0,0,1,.84.84,7.91,7.91,0,0,1,1.89.52l.28.14c.09.05.14.19.24.24l.37.09c.57.19,1.18.05,1.84.19.14,0,.28.19.42.24l.33.09c.1,0,0,.14.19.14a6.26,6.26,0,0,1,.94-.19c.1,0,.24.1.38.1s.19-.14.28-.14.43,0,.57,0,.19-.15.28-.15a4.59,4.59,0,0,0,.75-.23A5,5,0,0,0,78.8,32c.52,0,.66-.47,1.23-.42,0-.33.23-.33.33-.52s.28-.33.52-.38c.14-.42.47-.61.61-1,.18,0,.18-.19.33-.19-.15-.38.23-.62.33-.94a10,10,0,0,0,.09-1.13,9.26,9.26,0,0,0,.24-1.14,13,13,0,0,0,.09-2.58Z"/><path d="M100,5.68c0,.19-.24.33-.33.47l-.1.47a5.14,5.14,0,0,1-.47.94c-.28.1-.56.43-.84.52-.1.05-.24,0-.38.1a4.13,4.13,0,0,1-1.27.42A2.08,2.08,0,0,1,96,8.41L95,8.32c-.23-.57-.75-.94-.94-1.6l-.42-.47c0-.48-.28-.9-.28-1.37a2.39,2.39,0,0,1,.18-.71l.15-.8c0-.09.18-.09.23-.19S94,3,94.05,3s.29-.1.38-.24-.05-.19,0-.23c.24-.19.19-.29.24-.38a4,4,0,0,1,.84-.66c.33-.24.85-.14,1.46-.19.24.52,1,.57,1.28,1h.47c0,.14.09.14.19.23A3.35,3.35,0,0,1,100,4a.62.62,0,0,1,0,.24A3.74,3.74,0,0,1,100,5.68Zm.05,8.43c0,.28.14.52.14.8s-.19.94-.19,1.41a12.47,12.47,0,0,0,.05,1.32c0,.24.09.28,0,.52-.38.8,0,2.35,0,3.44-.05.61-.24,1.22-.29,1.88-.14,1.37-.09,2.82-.23,4.14,0,.38,0,.76,0,1.09,0,.84-.19,1.64-.28,2.4,0,.56,0,1.08,0,1.6,0,.33,0,.56,0,.85a3.47,3.47,0,0,1,.14.7,1.28,1.28,0,0,1-.09.38,1,1,0,0,0,.09.28c0,.14-.09.24-.09.38s.09.23.09.33a3,3,0,0,0-.19.66,7.25,7.25,0,0,1,0,1.46,1.73,1.73,0,0,1-1.36.33c-.33-.1-.29-.61-.52-.85a2.43,2.43,0,0,1-1.08-.38,3.14,3.14,0,0,1-1.13-.09A5.89,5.89,0,0,1,94,36.57c-.05,0-.05-.23-.19-.19-.19-.23-.09-.7-.33-.89a5.56,5.56,0,0,0,.24-.76c.09-.56-.1-1.08,0-1.69a3,3,0,0,1,.09-.52c0-.05.1-.09.1-.23a1.88,1.88,0,0,1,0-.76c0-.05.09-.09.09-.23s-.09-.15-.09-.19.14-.1.18-.19-.09-.28-.09-.38c.14-.66.19-2,.24-2.4s0-.38,0-.7c.05-.1,0-.19,0-.24,0-.94.18-1.79.14-2.78,0-.61.09-1.18.09-1.74s-.14-1.13.14-1.7a4.69,4.69,0,0,1,0-1.79c0-.47,0-.89,0-1.36a3.65,3.65,0,0,1,0-1v-.33a6.33,6.33,0,0,0,.1-.66c0-.23-.14-.42-.14-.61a3.1,3.1,0,0,0,0-.61c0-.1-.1-.14-.15-.24v-.23a2.4,2.4,0,0,1,.05-.62c-.05-.33-.52-.28-.61-.51-.14-.47-.38-1.13.05-1.46.28-.14.56-.05,1,0a.55.55,0,0,0,.28.09s.14-.09.23-.05.43.19.66.24c1.23.14,3.44-.42,3.91-.1.19.15.1.43.28.48A7.54,7.54,0,0,0,100,14.11ZM98,4a.7.7,0,0,1-.61-.38c-.23-.1-.33,0-.52.05a2,2,0,0,0-.51-.57c-.52.24-.81.8-1.18,1.22a4,4,0,0,0,.23,1.28,2.57,2.57,0,0,0,.52.8c.14.18.24.42.43.51a1.8,1.8,0,0,0,1.36-.33l.47-.32s0-.19.14-.15c0-.61.43-.94.19-1.6A1.11,1.11,0,0,1,98,4Zm.43,12.1c0-.14,0-.14,0-.24,0-.8-.1-1.6-.1-2.45-.14-.14-.28,0-.47,0s-.28-.19-.52-.19c-.23.19-1,.1-1,.38-.19.47,0,.94,0,1.37a.61.61,0,0,1-.09.28c0,.14.09.19.09.33,0,.61,0,1.08,0,1.51v.84a11.47,11.47,0,0,0-.19,1.27c0,.38.14.66.14,1s-.19.38-.19.57a1.82,1.82,0,0,1,0,.52v.47c0,.89.09,2.3,0,3.48v.38c0,.19-.14.28-.14.42s0,.19,0,.33a7.84,7.84,0,0,1-.09,1l-.19.7c0,.1.09.24.09.38a2.24,2.24,0,0,1-.28,1.23c.24.09.1.33.1.51a3.24,3.24,0,0,1,0,.71,6.16,6.16,0,0,0-.23.94,4.46,4.46,0,0,0,0,.8l.1,2.26a6.84,6.84,0,0,0,1.84.28A4.7,4.7,0,0,1,97.54,34c0-.89-.42-2.54.14-3.25a1.18,1.18,0,0,1-.19-.8,3.81,3.81,0,0,1,.14-.56c.1-.52.05-1.13.15-1.61,0-.18.14-.42.14-.61s-.1-.19,0-.33v-1a2.43,2.43,0,0,1,.09-.33c0-.1-.14-.14-.14-.19s.05-.24.05-.33-.05-.28-.05-.38.05-.14.1-.23a.48.48,0,0,0,0-.24,3.81,3.81,0,0,0,.14-.56c0-.29,0-.57,0-.8a11.81,11.81,0,0,0,.33-1.42c0-.18-.14-.42-.14-.61a26.34,26.34,0,0,1,.14-3.34A5.89,5.89,0,0,0,98.39,16.09Z"/><path d="M133,46.6c-.24.19-.71.14-.9.33s-.23-.19-.47-.14a16.64,16.64,0,0,1-2.73.14,10.16,10.16,0,0,0-1.08.24,3.1,3.1,0,0,1-1.09.09c-.14,0-.23-.33-.42-.24-.14-.09,0-.23-.14-.42s-.19-.24-.24-.33a3.59,3.59,0,0,1-.05-.75,2,2,0,0,1,0-.71.7.7,0,0,1,.14-.42,8,8,0,0,1-.1-1.46,5.12,5.12,0,0,1,.24-.85c0-.28-.05-.66,0-.94a4.64,4.64,0,0,0,.19-.8,2.28,2.28,0,0,0-.1-.57c0-.42.15-.8.15-1.17a4.61,4.61,0,0,1-.15-.81,6.44,6.44,0,0,0-.14-1.69c-.56.14-.89.61-1.5.89a3.45,3.45,0,0,0-.62.29,1.82,1.82,0,0,1-1.22.09,4.51,4.51,0,0,1-.71.33,4.53,4.53,0,0,1-.89-.05c-.19,0-.33.1-.47.1a1.34,1.34,0,0,0-.38-.1c-.14,0-.23.1-.38.14a2.17,2.17,0,0,0-.51,0,6,6,0,0,1-2.22-.14,7.91,7.91,0,0,1-1.5-.28,6.48,6.48,0,0,1-1.46-.23c-.14,0-.33,0-.43-.1s-.42-.23-.7-.33a5.38,5.38,0,0,1-1.42-.47c-.18-.05-.14-.14-.14-.14s-.33-.05-.47-.19-.47-.52-.8-.61l-.75-.47c-.14-.1-.19-.24-.33-.33a2.29,2.29,0,0,1-.38-.14,7.13,7.13,0,0,0-.66-.71l-.23-.14a1.88,1.88,0,0,0-.52-.47,1.33,1.33,0,0,0-.52-.8,1.3,1.3,0,0,0,0-.43c-.09-.23-.28-.42-.37-.7s0-.14,0-.24a7.27,7.27,0,0,0-.75-1.6c.19-.47-.24-.85-.33-1.32a7.89,7.89,0,0,1,0-1.88.89.89,0,0,0-.05-.52,13.28,13.28,0,0,1,.05-1.83,10.8,10.8,0,0,1,0-1.28,1.91,1.91,0,0,1,.33-.75c.09-.09.09-.19.14-.38s.14-.09.19-.18c.19-.29.19-.71.52-.81-.14-.23.09-.47.18-.7a7.46,7.46,0,0,1,.34-1c.18-.14.14-.23.14-.28l.33-.56c.18-.33.33-.85.7-.95.05-1.32,1-1.69,1.27-2.73.24-.05.38-.28.57-.42l.28-.24,1.08-.89a10.29,10.29,0,0,1,1.46-.94c.1-.05.19,0,.24-.05l.09-.19a1,1,0,0,0,.38-.05l.28-.14a6.81,6.81,0,0,1,1.6-.28,12.55,12.55,0,0,1,1.32-.09,13.39,13.39,0,0,1,1.37,0,14,14,0,0,1,4.38,1.13c.28,0,.14.28.37.33a4.92,4.92,0,0,1,.76.09,2.06,2.06,0,0,1,.47.24c.28.19.61.56.94.85a8.53,8.53,0,0,1,1.55,1.46c.33,0,.1-.33.1-.43a5.64,5.64,0,0,0,.19-.85c0-.33,0-.75,0-1.13v-.47c0-.33,0-.23.14-.51.33-.52,1.08-.33,1.6.09.14.05.24-.19.33-.19s.28.1.38.1c.28-.1.42-.24.66-.24s.42.09.61.09.47-.14.75-.14c.05,0,.1.1.19.1a1.56,1.56,0,0,1,.61-.1c0,.24.14.43.19.61s-.05.19,0,.24a.88.88,0,0,1,.24.38,16.52,16.52,0,0,1-.24,3c-.05.62,0,1.18,0,1.75,0,.23-.1.47-.1.7,0,.47.05.9.05,1.37s-.09.61-.09.75.14.38.14.61c.09,1.18,0,2.36.05,3.58a6.27,6.27,0,0,1,.14.85c0,.42,0,.85.14,1.51a4.11,4.11,0,0,0,.14.75c0,.19.05.47.05.61s-.19.28-.14.47a8.94,8.94,0,0,0,.18.9,11.55,11.55,0,0,1,.19,2c0,1,0,2.6-.09,3.87,0,.51,0,1,0,1.55a25.24,25.24,0,0,1-.23,3.63c0,.28-.15.51-.15.75s.19.61.19,1c.1.89-.19,2,0,2.59.09.37.33.47.61.75C133.18,45.66,133.32,46.32,133,46.6ZM131.3,31c-.05-.76-.24-1.79-.24-2.45,0-.19.1-.33.05-.52s-.09-.24-.14-.38c-.05-.42,0-.8-.05-1.22a6.91,6.91,0,0,0-.19-1,3,3,0,0,1,0-.61,6,6,0,0,1-.09-2c0-.18.05-.61,0-.7a3,3,0,0,0,.1-.52,12,12,0,0,1-.19-1.84c0-.33.09-.61.09-.89s-.14-.85-.14-1.32c0-.24.1-.42.1-.66a6.76,6.76,0,0,1,0-1.37c0-.14,0-.18,0-.32a15.41,15.41,0,0,0,.19-2.27c-.66,0-1.55.24-2.35.24a7.7,7.7,0,0,1-.29,1.32c0,.19.1.47.1.75a5,5,0,0,0-.1.76c0,.09.1.18.15.28,0,.28,0,.42,0,.56.28.85-.38,1.09-.8,1.27a2.3,2.3,0,0,1-.66-.56,5.27,5.27,0,0,1-.24-.85,1,1,0,0,1-.66-.14l-.09-.19c-.1,0-.24,0-.29,0-.28-.24-.37-.62-.61-.85a1.37,1.37,0,0,0-.42-.33c-.14-.14-.14-.1-.24-.14a1.06,1.06,0,0,0-.23-.24c-.19-.05-.14-.14-.24-.19l-.42-.37c-.1-.1-.19-.1-.28-.15a11.6,11.6,0,0,0-1.13-.47c-.15,0-.52,0-.8-.09a3,3,0,0,0-.33-.42c-.38.09-.38-.19-.62-.24a1.55,1.55,0,0,1-1.13-.33c-.47.24-.89-.09-1.36-.09a6.62,6.62,0,0,0-1.18.19l-.52.09c-.51,0-1.13.19-1.46.23a1,1,0,0,1-.37.1c-.19.09-.19.33-.47.38-.8.14-1.13.7-1.89.94a2.69,2.69,0,0,1-.66.8,1.79,1.79,0,0,1-.75.66,1.67,1.67,0,0,1-.24.7,8.21,8.21,0,0,1-.56,1.18l-.47.38a2,2,0,0,1-.24.84c-.14.38-.37.76-.47,1l-.09.33a9.43,9.43,0,0,0-.57.94l-.09.33c-.1.28-.28.47-.38.76a2.75,2.75,0,0,0-.33,1.41c0,.42,0,1,0,1.69,0,.24-.24.19-.24.43.28.47.09,1,.19,1.55a3.66,3.66,0,0,1,.23.52,3.66,3.66,0,0,0,.62,1.69c.09,1,.75,1.46.94,2.36a1.06,1.06,0,0,1,.37.23c.05,0,.05.19.1.24s.23,0,.28.09l.66.62c.09,0,.19,0,.24.09.47.28.84.71,1.27,1,.14.09.33.09.47.19s.09.14.14.14a6.33,6.33,0,0,0,1.65.66l.47.23.56.1a3,3,0,0,0,.57.14c.52.09,1.13,0,1.65.14a3.47,3.47,0,0,1,.7.14,3.51,3.51,0,0,0,.66.24,3.8,3.8,0,0,0,.61,0c.24,0,.52-.05.76-.05.56,0,1.17,0,1.69,0,.28,0,.57-.15.9-.24a5.44,5.44,0,0,0,1.22-.24l.28-.09a6.21,6.21,0,0,0,.9-.56,2.76,2.76,0,0,1,.89-.62c.29-.37.57-1.13,1.09-1.13a.76.76,0,0,1,.61.33c0,.24.38.24.38.57a4,4,0,0,0,.09,1.41,3.58,3.58,0,0,1,0,1,9.07,9.07,0,0,0,.14,1.32c-.09.52-.09,1-.14,1.27v.52a11.46,11.46,0,0,1-.14,2.21,3.77,3.77,0,0,1-.24,1.46,10,10,0,0,1,.19,2.21c1-.23,2.17,0,3.11-.23a7.13,7.13,0,0,1,.09-1.74,2.59,2.59,0,0,0,0-.62c0-.47,0-.84,0-1.22a4.31,4.31,0,0,1-.09-.71l.19-.8c0-.19-.05-.37-.05-.56s.05-.24.05-.43a2.71,2.71,0,0,0-.05-.56,3.79,3.79,0,0,1,.19-.61c0-.19-.1-.43-.1-.66a9.33,9.33,0,0,0,.05-1.13,7.54,7.54,0,0,0,0-2.5c.28-.23,0-.71.23-1A4.06,4.06,0,0,1,131.3,31ZM127,23.67c0,.56.23,1.08-.19,1.51,0,.51,0,1-.09,1.6a11,11,0,0,1-.66,1.88,8,8,0,0,1-.33.89l-.15.48s-.14.09-.18.14,0,.23,0,.28-.29.23-.38.38-.14.37-.24.51l-.14.24-.09.33c-.19.14-.14.28-.24.42s-.23.19-.33.28a3.89,3.89,0,0,1-1.46,1l-.89.43a5.72,5.72,0,0,1-1.79.28c-.33,0-.66.19-.8-.19-.19,0-.24.47-.33.24-.47,0-.89.28-1.22,0-.38.24-.95-.09-1.42-.09-.14,0-.19.09-.33,0s-.14-.14-.28-.14a2.9,2.9,0,0,1-1.08-.09c-.14-.05-.28-.19-.43-.24s-.33-.09-.47-.19a2,2,0,0,1-.66-.51.68.68,0,0,1-.37-.1c-.19-.33-.66-.38-.66-.85a4.29,4.29,0,0,1-.61-.33c-.15-.37-.57-.51-.52-1.08a5.87,5.87,0,0,1-.8-1.88,3.76,3.76,0,0,1-.19-.57,1.91,1.91,0,0,1-.14-.52c0-.18,0-.18,0-.32s-.33-.71-.09-1c-.09-.29.19-.05.24-.05.23-.19-.15-.1,0-.24,0-.23-.23.05-.37,0s.14-.18.09-.33-.14-.09-.14-.14a13.11,13.11,0,0,1,0-2.73c0-.14,0-.19,0-.28s-.1-.19,0-.33a1.82,1.82,0,0,1,.14-.38,1.81,1.81,0,0,0,0-.52,1.16,1.16,0,0,0,.24-.28,4,4,0,0,1,.28-.61,1.23,1.23,0,0,1,.52-.61c0-.24.14-.24.09-.47.24-.14.47-.24.57-.57.28-.09.42-.33.61-.52l.28-.28a8.52,8.52,0,0,0,.8-.7c0-.05.19-.1.28-.19s0-.19.1-.24.19-.05.23-.09a1.52,1.52,0,0,1,.71-.33.7.7,0,0,1,.52-.33c.09-.05.14-.19.23-.28a4.75,4.75,0,0,0,1.46-.52c.14,0,.29,0,.62,0a3.73,3.73,0,0,1,1-.33c.15-.05.24,0,.38,0a3,3,0,0,0,.85-.14c.28,0,.61.14.89.14a2.73,2.73,0,0,1,.52-.14,7.35,7.35,0,0,1,.8.09,5.76,5.76,0,0,1,1.13.47c.33.1.71.05,1,.14l.28.19a5.12,5.12,0,0,1,1,1.23c.47.33.75.84,1.22,1.17a3.29,3.29,0,0,0,.42,1.09c0,.23-.09.28-.09.42s.24.33.38.47c0,.47.23,1,0,1.46.24.28.14.52.14,1,0,.14,0,.33,0,.47S127,23.48,127,23.67Zm-1.6-2-.19-.28c0-.23,0-.38,0-.56s-.19-.24-.24-.38,0-.38,0-.52c-.28,0-.19-.42-.47-.47,0-.33-.23-.38-.19-.71-.33,0-.33-.33-.47-.51s-.33.09-.61,0c0-.8-.89-.7-1.08-1.32-.52.24-.9-.18-1.37-.23a.89.89,0,0,1-.23.05,4.9,4.9,0,0,1-.9-.1,11.51,11.51,0,0,0-1.69.33,2.57,2.57,0,0,1-.62,0c-.28.33-.65.33-1.08.43a4.23,4.23,0,0,0-.52.33,1.52,1.52,0,0,1-.75.32,1.61,1.61,0,0,1-.85.62c0,.33-.37.37-.56.56a3,3,0,0,1-.57.61c-.52.1-.66.62-1.13.76a4.37,4.37,0,0,1-.66,1.65c0,.09,0,.23-.09.28-.1.23-.24.37,0,.56a2.36,2.36,0,0,0,0,1.18c0,.52-.14,1-.14,1.46a4.64,4.64,0,0,0,.14.75c.05.29,0,.62.05.85s.23.28.33.47a5.5,5.5,0,0,1,.18,1.13l.24.47c.14.29.23.76.33.9a5.61,5.61,0,0,0,.66.56,8.2,8.2,0,0,0,1.08.85,4.66,4.66,0,0,0,1.13.66,3.35,3.35,0,0,0,1.37.09c.14,0,.23.14.42.14a2.51,2.51,0,0,0,.61,0,4.88,4.88,0,0,0,2.45-.19,2.65,2.65,0,0,0,1.51-.19,3.86,3.86,0,0,0,1.08-.42,3.06,3.06,0,0,0,.61-1l.1-.19a7,7,0,0,1,.56-.85l.14-.37.24-.38c.14-.28.09-.66.19-.9s.28-.61.47-.65c-.19-.38.14-.85.23-1.37a4.23,4.23,0,0,1,.29-1.37c-.14-.18-.05-.51-.14-.7.23-.33,0-1.09.23-1.51C125.32,22.21,125.41,21.93,125.37,21.64Z"/><path d="M164.12,14.06c0,.33,0,.66,0,1,0,.57-.14,1.27-.18,2a5.26,5.26,0,0,1-.19,1.69,7.55,7.55,0,0,1,0,2c0,.23.09.47.09.7,0,.05-.09.14-.09.28s.09.19,0,.33a6,6,0,0,1-.23.9,3.76,3.76,0,0,0,0,.75l-.19.76a20.41,20.41,0,0,1-.33,2.44c-.05.1-.14.15-.19.29-.09.33-.14.75-.23,1.13l-.33,1.08c-.14.33-.29,1.13-.43,1.65a4.84,4.84,0,0,1-.23.61,5.53,5.53,0,0,1-.33.75l-.24.38c0,.14-.14.09-.14.14s-.05.14-.09.24-.1,0-.14.14A9.62,9.62,0,0,0,160,34.5l-.14.14a1,1,0,0,0-.24.38,5.49,5.49,0,0,1-1,1.08,8.73,8.73,0,0,1-.71.52c-.05,0,0,.19-.05.23s-.18,0-.23.1c-.24.19-.43.47-.66.56a1.58,1.58,0,0,1-1,.24,4.58,4.58,0,0,1-2.4.85,1,1,0,0,1-.52-.48c-.28.05-.37.29-.66.29s-.47-.14-.7-.14a2.47,2.47,0,0,1-1.41,0,2.31,2.31,0,0,1-.85-.1c-.14,0-.24-.09-.38-.14a2.22,2.22,0,0,0-1.22-.19c-.19-.28-.61-.28-.9-.47-.09,0-.19-.23-.28-.28s-.38-.14-.33-.33c-.14,0-.24-.14-.38-.24s-.33,0-.18-.33a1,1,0,0,1-.62-.14c-.19-.09-.19-.37-.51-.33-.1-.23-.38-.23-.38-.52-.33,0-.43-.28-.66-.32a3.58,3.58,0,0,0-1.23-1.18,2.8,2.8,0,0,1-.56-.47,4.51,4.51,0,0,1-.52-.85l-.33-.28c-.09-.14-.09-.29-.19-.38s-.28-.14-.37-.28l-.1-.19a1.78,1.78,0,0,1-.42-.94,2,2,0,0,1-.38-.47c.14-.29-.14-.47-.19-.76-.14-.51-.09-1.13-.18-1.6a3.09,3.09,0,0,0-.38-.75c-.05-.24.14-.24.09-.47s-.23-.24-.33-.38a1.4,1.4,0,0,0-.23-1.08c.28-.66-.33-1.27-.14-1.89a1.72,1.72,0,0,0,0-.7,2.48,2.48,0,0,1,.1-1c0-.19-.19-.42-.24-.66s.19-.89.19-1.32a3.41,3.41,0,0,1,0-.61c0-.19.19-.33.24-.52-.14-.7,0-1.22-.14-1.88-.05-.28.28-.14.33-.28s-.14-.33-.14-.57a5,5,0,0,0,.42-1.13,2.9,2.9,0,0,1,0-.66c0-.19.14-.28.14-.47s-.05-.38.05-.66a.94.94,0,0,1,.28-.61,2,2,0,0,1-.05-1.46c.33-.19.8-.14,1.09-.33.09.14.51,0,.51.24.1-.24.33-.05.48-.1s.37-.14.61-.14c.61,0,1.27,0,1.83,0a.8.8,0,0,1,.19.38,2,2,0,0,1,.29,1.13,27.08,27.08,0,0,1,0,3.25c0,.23.09.47.09.7a8.74,8.74,0,0,0-.09,1.13,3.08,3.08,0,0,0-.1.61,3.05,3.05,0,0,0,.14.48c.05.42.05,1.12.05,1.36-.09.52.14,1-.05,1.41a5.47,5.47,0,0,1,.38,2.69,9,9,0,0,1,.23,1.32c0,.09-.09.23-.09.37s.14.33.14.52a6.82,6.82,0,0,0,.05,2,5.71,5.71,0,0,0,.28.75,5.32,5.32,0,0,0,.28.75,1.75,1.75,0,0,0,.38.43,1.38,1.38,0,0,0,.28.38c.19.23.38.56.76.61,0,.23.14.37.19.56.23,0,.42.1.75.14.14.24.42.33.52.57a1,1,0,0,1,.75.28c.38-.14.71.19,1.22.19.19,0,.57-.14.76-.14a.69.69,0,0,0,.47.05,13.45,13.45,0,0,0,1.93-.57c.09-.09.05-.19.14-.24s.28-.09.38-.23,0-.14.09-.24a11.33,11.33,0,0,0,.75-.89,1.47,1.47,0,0,0,.43-.52,2.66,2.66,0,0,1,.52-.75,3.15,3.15,0,0,1,.56-1.41c0-.38,0-.71.24-.85-.1-.24.09-.38,0-.76.05-.18.24-.28.33-.51s0-.43.14-.52a4.54,4.54,0,0,1,.05-2.5c0-.28.24-.52.24-.75s-.1-.33,0-.47.14-.38.19-.61-.1-.52-.1-.85.1-.43.1-.66a7.62,7.62,0,0,0-.14-.94c0-.24.09-.47.09-.76a6.7,6.7,0,0,0,0-1c0-.24.1-.48.1-.76s-.05-.42-.05-.61.24-.57.1-.89c0,0-.24-.15-.24-.24s.14-.19.09-.28a2.32,2.32,0,0,1-.23-.43s0-.28,0-.28.1-.14.1-.28a2.4,2.4,0,0,1-.15-.57s.05-.09.05-.23-.09-.1-.05-.19.1-.19.15-.33,0-.19.09-.28c.42-.47,1.69-.19,2.68-.33a1.44,1.44,0,0,1,.43-.14c.23,0,.42,0,.61,0,.38,0,.8-.33,1.22,0a1.09,1.09,0,0,1,1.51.1c.19.23.14.37.24.75a2.27,2.27,0,0,1,0,.8,10.89,10.89,0,0,0,.14,1.13C164.3,13.26,164.12,13.69,164.12,14.06Zm-1.93-2.54a25.21,25.21,0,0,0-3.25.47c-.14.52.18,1,.23,1.6.1.8,0,2,.05,2.78,0,.19-.1.38-.1.52a1.92,1.92,0,0,0,.15.56c0,.29-.05.57-.05.9a10.22,10.22,0,0,1,.05,1.08,7.46,7.46,0,0,1-.33,1c0,.14.09.33.09.47a1.2,1.2,0,0,1-.23.47c.32.42,0,1.08,0,1.74a17,17,0,0,1-.23,2.35c-.05.19-.24.33-.33.52s.09.14.09.24a1.05,1.05,0,0,1-.33.56c.24.52-.23.76-.19,1.32-.42.66-.89,1.46-1.41,2.21a2.9,2.9,0,0,1-.47.71c-.14.09-.14.33-.24.42s-.32.29-.47.48l-.14.28c-.09.09-.09.14-.23.23s-.57.14-.85.29-.47.33-.75.37-.24-.23-.47-.23c0,.23-.1.52-.38.52-.94.18-2.73.51-3.49-.19a1.64,1.64,0,0,1-1.08-.14,9.73,9.73,0,0,1-1.46-1c-.14-.14-.19-.33-.33-.42a1.1,1.1,0,0,1-.66-.28c-.14-.1-.23-.14-.28-.24a5.15,5.15,0,0,0-.47-.47,7,7,0,0,1-.61-.61,17.18,17.18,0,0,1-.85-1.88c-.09-.33,0-.62,0-.95a1.36,1.36,0,0,0-.14-.47c.14-.28.05-.37.05-.37v-.57c0-.19-.15-.28-.15-.38s.1-.28.1-.42a1.39,1.39,0,0,1-.14-.42,2.18,2.18,0,0,1,0-.57c-.1-.89-.19-1.6-.24-2.31a5.38,5.38,0,0,0-.23-1.22c.14-.09,0-.33.18-.42-.09-.24-.18-.43-.23-.62a3.27,3.27,0,0,0,0-.7c0-.24,0-.47,0-.71s.14-.33.19-.52-.24-.7-.24-1,.1-.43.1-.61a3.35,3.35,0,0,1,.05-.71,1.39,1.39,0,0,1,.14-.42,4.91,4.91,0,0,0,0-1.18c0-.14.09-.19.09-.28s-.09-.29-.09-.38a8.23,8.23,0,0,0-.09-1.46,3.87,3.87,0,0,0-1.37.19,20.61,20.61,0,0,0-.71,3.48c-.28.33-.33.85-.56,1.23,0,.28.14.28.14.51s-.05.52-.14.71c.23.47,0,.9,0,1.27,0,.1.1.14,0,.33,0,.47-.19,1.08-.24,1.65.1.19.1.42.19.61-.23.38-.09,1.13-.09,1.6,0,.19-.1.38-.1.62s.1.18.14.28c.24.61.15,1.36.33,1.93a2.29,2.29,0,0,1,.29.61,6.74,6.74,0,0,1,.14.9c.09.28.28.56.37.84a3.67,3.67,0,0,1,.05,1.27c.14.29.57.24.43.71.28,0,.37.33.51.47a2.27,2.27,0,0,1,.9,1.46A5.79,5.79,0,0,1,144,33c.42.33.52.61.85.76a5.75,5.75,0,0,0,1.93,1.36,3.68,3.68,0,0,0,2.07,1.27s.09-.14.19-.09a.62.62,0,0,0,.42.23,14.23,14.23,0,0,0,3.06.24c.1,0,.19.05.38.05s.23-.05.38-.05a3.64,3.64,0,0,0,1.36-.14l.85-.28c.28-.1.42-.15.52-.29s.33-.09.37-.19.05-.18.1-.23.28-.19.38-.33a5.15,5.15,0,0,0,.84-.85c.19-.23.43-.38.47-.56s0-.29.19-.38.28-.14.38-.28a2.69,2.69,0,0,1,.37-.76,1.24,1.24,0,0,0,.34-.51l.14-.24a6.21,6.21,0,0,0,.51-1.13c.14-.38.19-.66.33-1.13a1.73,1.73,0,0,1,.14-.42,5.75,5.75,0,0,0,.29-1.32c.14,0,.09-.28.14-.38a.42.42,0,0,0,.14-.42c0-.14.14-.19.19-.33s-.1-.43-.1-.66l.19-.52c0-.28,0-.56,0-.75a.55.55,0,0,1,.19-.24c0-.19-.05-.33,0-.47s.19-.38.24-.61a1.11,1.11,0,0,0,0-.66,1.59,1.59,0,0,1,.09-.33c0-.52,0-1.32.05-2,0-.18.14-.32.14-.51s0-.19,0-.33.14-.19.1-.29c-.15-.28-.24-.23-.24-.47s.24-1,.28-1.6c0-.09-.09-.14-.09-.23s.09-.14.09-.29v-.7c.05-.38.24-.85.1-1.18C162,13.83,162.52,12.56,162.19,11.52Z"/><path d="M176.31,5.68c-.05.19-.24.33-.33.47l-.1.47a5.14,5.14,0,0,1-.47.94c-.28.1-.56.43-.84.52-.1.05-.24,0-.38.1a4.13,4.13,0,0,1-1.27.42,2.08,2.08,0,0,1-.61-.19l-.95-.09c-.23-.57-.75-.94-.94-1.6L170,6.25c0-.48-.28-.9-.28-1.37a2.39,2.39,0,0,1,.18-.71l.15-.8c0-.09.18-.09.23-.19s.05-.14.1-.18.28-.1.37-.24,0-.19,0-.23c.24-.19.19-.29.24-.38a4,4,0,0,1,.84-.66c.34-.24.85-.14,1.46-.19.24.52,1,.57,1.28,1H175c0,.14.09.14.19.23A3.35,3.35,0,0,1,176.36,4a.62.62,0,0,1,0,.24A3.74,3.74,0,0,1,176.31,5.68Zm.05,8.43c0,.28.14.52.14.8s-.19.94-.19,1.41a12.47,12.47,0,0,0,.05,1.32c0,.24.09.28,0,.52-.38.8,0,2.35,0,3.44-.05.61-.24,1.22-.29,1.88-.14,1.37-.09,2.82-.23,4.14-.05.38,0,.76-.05,1.09,0,.84-.19,1.64-.28,2.4,0,.56,0,1.08,0,1.6,0,.33,0,.56,0,.85a3.47,3.47,0,0,1,.14.7,1.28,1.28,0,0,1-.09.38,1,1,0,0,0,.09.28c0,.14-.09.24-.09.38s.09.23.09.33a3,3,0,0,0-.19.66,7.25,7.25,0,0,1,0,1.46,1.73,1.73,0,0,1-1.36.33c-.33-.1-.29-.61-.52-.85a2.43,2.43,0,0,1-1.08-.38,3.14,3.14,0,0,1-1.13-.09,5.89,5.89,0,0,1-1.18-.19c-.05,0-.05-.23-.19-.19-.19-.23-.09-.7-.33-.89a5.56,5.56,0,0,0,.24-.76c.09-.56-.1-1.08-.05-1.69a3,3,0,0,1,.09-.52c0-.05.1-.09.1-.23a1.88,1.88,0,0,1,0-.76c0-.05.09-.09.09-.23s-.09-.15-.09-.19.14-.1.19-.19-.1-.28-.1-.38c.14-.66.19-2,.24-2.4s0-.38,0-.7c.05-.1,0-.19,0-.24,0-.94.19-1.79.14-2.78,0-.61.09-1.18.09-1.74s-.14-1.13.14-1.7a4.69,4.69,0,0,1,0-1.79c0-.47,0-.89,0-1.36a3.65,3.65,0,0,1,0-1v-.33a6.33,6.33,0,0,0,.1-.66c0-.23-.14-.42-.14-.61a3.1,3.1,0,0,0,0-.61c0-.1-.1-.14-.14-.24v-.23a3,3,0,0,1,0-.62c0-.33-.52-.28-.61-.51-.14-.47-.38-1.13.05-1.46.28-.14.56-.05,1,0a.55.55,0,0,0,.28.09s.14-.09.23-.05.43.19.66.24c1.23.14,3.44-.42,3.91-.1.19.15.1.43.28.48A7.54,7.54,0,0,0,176.36,14.11ZM174.28,4a.7.7,0,0,1-.61-.38c-.23-.1-.33,0-.52.05a2,2,0,0,0-.51-.57c-.52.24-.81.8-1.18,1.22a4,4,0,0,0,.23,1.28,2.57,2.57,0,0,0,.52.8c.14.18.24.42.43.51A1.8,1.8,0,0,0,174,6.57l.47-.32c.05,0,0-.19.14-.15,0-.61.43-.94.19-1.6A1.11,1.11,0,0,1,174.28,4Zm.43,12.1c-.05-.14,0-.14,0-.24-.05-.8-.1-1.6-.1-2.45-.14-.14-.28,0-.47,0s-.28-.19-.52-.19c-.23.19-1,.1-1,.38-.19.47,0,.94,0,1.37a.61.61,0,0,1-.09.28c0,.14.09.19.09.33,0,.61,0,1.08,0,1.51v.84a11.47,11.47,0,0,0-.19,1.27c0,.38.14.66.14,1s-.19.38-.19.57a1.82,1.82,0,0,1,0,.52v.47c0,.89.09,2.3,0,3.48v.38c0,.19-.14.28-.14.42s0,.19,0,.33a7.84,7.84,0,0,1-.09,1l-.19.7c0,.1.1.24.1.38a2.24,2.24,0,0,1-.29,1.23c.24.09.1.33.1.51a3.24,3.24,0,0,1,0,.71,6.16,6.16,0,0,0-.23.94,4.46,4.46,0,0,0,0,.8l.1,2.26a6.84,6.84,0,0,0,1.84.28,4.7,4.7,0,0,1,.09-1.22c0-.89-.42-2.54.14-3.25a1.18,1.18,0,0,1-.19-.8,3.81,3.81,0,0,1,.14-.56c.1-.52.05-1.13.15-1.61,0-.18.14-.42.14-.61s-.1-.19-.05-.33v-1a2.43,2.43,0,0,1,.09-.33c0-.1-.14-.14-.14-.19s.05-.24.05-.33-.05-.28-.05-.38.05-.14.1-.23a.48.48,0,0,0,0-.24,3.81,3.81,0,0,0,.14-.56c0-.29,0-.57,0-.8a11.81,11.81,0,0,0,.33-1.42c0-.18-.14-.42-.14-.61a26.34,26.34,0,0,1,.14-3.34A5.89,5.89,0,0,0,174.71,16.09Z"/><path d="M202,11.24c-.24.42-.52.75-.71,1.13L201,13l-.56.75-.52.8a2.8,2.8,0,0,1-.8,1,3.55,3.55,0,0,1-.8,1.27c-.1.1-.24.19-.29.29-.28.37-.28.89-.7,1.13a9.66,9.66,0,0,1-1.46,2.54c-.47.85-.85,1.69-1.32,2.59-.28.28-.33.61-.57.94,0,.09-.18.14-.23.24a5.72,5.72,0,0,0-.61,1.27,5.28,5.28,0,0,0-.29.75c0,.05-.18.19-.23.33s0,.24,0,.38l-.33.66c-.09.23-.14.47-.23.66l-.33.37-.24.47-.33.38c-.14.24-.14.38-.28.52l-.42.47s-.1,0-.15.14,0,.42-.09.66a3.43,3.43,0,0,0,1.93-.19c.19-.05.42,0,.66-.05l.75-.14c.24-.05.52,0,.76-.05s.51-.18.8-.23l1.41-.09,1.46-.15c.66,0,1.27.05,1.84,0,.18,0,.37-.14.51-.14s.24.14.48.18a1.37,1.37,0,0,1,.42,0c1,.43.66,1,.56,2.17,0,.14.1.28.1.42s-.19.29-.19.48c0,.56.09,1.13.05,1.74.52.23,1,.52,1,1.08s-.66.61-1,1c-.8-.05-1.65.19-2.45.14-1,0-2.31-.05-3.15-.05-.14,0-.14-.09-.24-.09-.28,0-.47.14-.75.14s-.52-.09-.76-.09-.42.14-.61.14-.56-.1-.85-.1a14.84,14.84,0,0,1-2.59,0c-.09,0-.28.05-.37,0s-.1-.23-.14-.23-.19.14-.33.14a1.21,1.21,0,0,1-.9-.14c-.52.23-1,.09-1.5.23s-.38-.18-.52-.28c-.14.1-.24.28-.43.38a5.38,5.38,0,0,0-1.5,0c-.14,0-.38-.1-.52,0-.57,0-1.08.19-1.7.19a4.55,4.55,0,0,0-1.22-.14c-.28-.24-.33-.71-.57-1,.1-.28.29-.38.38-.66a4.82,4.82,0,0,0,.33-.71c.05-.09.14-.09.14-.19a1.43,1.43,0,0,1,.28-.61c.1-.19.15-.37.29-.61,0,0,.19-.14.23-.23a6.41,6.41,0,0,1,.71-1.09,1,1,0,0,0,.09-.56c.43-.38.52-1,.8-1.42l.24-.37c.05,0,.05-.14.09-.24s.14-.14.24-.28l.14-.38c.09-.14.14-.42.24-.61s0-.19.09-.23a2.29,2.29,0,0,0,.38-.66l.47-.9c0-.09.19-.19.23-.28s.05-.38.1-.47.28-.33.42-.61.24-.33.38-.62l.09-.18a2.33,2.33,0,0,1,.24-.48s.09,0,.14-.14a2.1,2.1,0,0,0,.14-.47,4,4,0,0,0,.33-.66,1.78,1.78,0,0,0,.33-.89,1.78,1.78,0,0,0,.38-.61l.42-.52c.14-.28.23-.66.38-1,0-.05.14-.05.18-.05s0-.23.05-.37l.19-.1c0-.09-.05-.23,0-.38a1.85,1.85,0,0,1,.7-.51c0-.33.24-.57.33-.85l.1-.28c0-.14.23-.29.28-.47s.05-.19.09-.29c.38-.61,1.13-1.17,1.42-1.93.09-.19.33-.28.33-.52-.24-.23-.38.05-.57.15s-.14,0-.28,0a11.3,11.3,0,0,1-1.51.43,2.1,2.1,0,0,0-.56,0l-.66.19c-.24.09-.43.18-.61.23s-.33-.09-.48-.09a4.12,4.12,0,0,0-.7.14,16.64,16.64,0,0,1-2.22.23,3.15,3.15,0,0,1-2.11-.33,3.82,3.82,0,0,1-.1-1.13c.14,0-.05-.47.24-.37,0-.33-.38-.19-.29-.47a3.9,3.9,0,0,0,0-1.32c0-.52.15-1,.15-1.56-.05-.28-.19-.56-.24-.84a1.23,1.23,0,0,1,1.32-1c.52.33.56.61,1,.7.28.1.61-.09,1-.09.14,0,.14.05.24.05.42,0,1.18-.19,1.5.28a3.73,3.73,0,0,1,.71-.28,1.37,1.37,0,0,1,.61.09c.1,0,.29-.09.43-.09a3.48,3.48,0,0,0,1,0,6.74,6.74,0,0,0,1.6-.28,4.82,4.82,0,0,0,.85,0c.28,0,.56-.09.84-.09s.33.09.47,0,.38-.09.62-.09a8.51,8.51,0,0,1,1.13,0,10.56,10.56,0,0,0,1.36-.14,1.09,1.09,0,0,1,.85.19c.19-.29.52,0,.8,0,.09,0,.19-.1.33-.05s.14.14.28.14.28,0,.38,0a5.31,5.31,0,0,1,.52.23c.28,0,.51-.09.8-.09a2,2,0,0,1,1,.28A1.19,1.19,0,0,1,202,11.24Zm-2.69-.57a6.28,6.28,0,0,0-.66-.23,7.86,7.86,0,0,0-1.5,0c-.71,0-1.56,0-2.31,0-.47,0-1.27.23-1.65.18a1,1,0,0,0-.33-.09,1.39,1.39,0,0,0-.42.14,17.85,17.85,0,0,0-1.79.28c-.14-.18-.47-.23-.75-.33s-.15.38-.52.29a31.54,31.54,0,0,0-4.24,0,6,6,0,0,0,0,2.92,14,14,0,0,0,3.11-.05l.52-.09c.28,0,.75-.19.94-.19s.19.09.28.09.19-.14.33-.14a4.36,4.36,0,0,1,1.27-.24c.14-.18.42-.18.71-.28a6.29,6.29,0,0,0,.75-.28,6.37,6.37,0,0,1,1.32,0,3,3,0,0,1,.89-.14,1,1,0,0,1,.9.84c0,.57-.38.76-.71,1l-.85.89c-.23.19-.33.52-.61.62,0,.28-.14.37-.19.61-.37.23-.56.75-.94,1-.09.66-.56,1-.8,1.56a.59.59,0,0,1-.42.33,13,13,0,0,1-1.27,2.4l-.66,1.18-.1.37c-.14.14-.09.24-.14.33l-.23.19c0,.09,0,.38-.24.33,0,.24-.09.38-.14.61s-.09.47-.19.66-.19.14-.23.24,0,.28-.1.37a.46.46,0,0,1-.24.19c-.18.33-.28.66-.47.94s-.28.38-.37.57,0,.28-.1.38-.18.14-.23.23l-.61,1.27c-.14.24-.19.47-.43.61.05.38-.23.43-.14.85-.47.24-.42,1-.89,1.27a2.26,2.26,0,0,1-.33.9l-.29.38c-.14.18-.14.42-.37.42,0,.33-.28.56-.33.71l-.1.28-.37,1c.52,0,1.27-.33,1.65,0,.37-.33.89-.05,1.27-.05s.84-.19,1.22-.19c.19,0,.38.1.57.1,0,0,.37-.19.37-.14.71,0,1.13.09,1.65.09a3.48,3.48,0,0,1,.61,0c.29,0,.43.15.71.15s.47,0,.75,0c.85-.05,1.74,0,2.59,0a3.12,3.12,0,0,1,.66,0,1.59,1.59,0,0,0,.52-.15c.24,0,.42.1.61.1.43,0,.9-.1,1.32-.1.09,0,.09.15.14.15s.19,0,.28,0c.29,0,.48-.1.71-.1s.42.1.61.1.29-.1.52-.14c-.14-.85.09-2.31,0-3.35-.23-.18-.7-.09-.94-.33a7.86,7.86,0,0,1-2,.29,4.67,4.67,0,0,0-.75-.1c-.38,0-.71.28-1.08.28-.19,0-.14-.18-.19-.23-.24.09-.42.28-.71.38a11.45,11.45,0,0,1-1.22.09c-.14,0-.24.14-.38.14l-.52.1-.94.18a22.59,22.59,0,0,1-3.11.38c-.18-.42-.47-.66-.42-1,0-.23.09-.28.24-.47a7.71,7.71,0,0,0,.7-1.6c.14,0,.1-.28.38-.19,0-.37.33-.61.47-.89l.23-.47a1.62,1.62,0,0,0,.34-.47,14.68,14.68,0,0,0,.89-1.93c.19-.52.47-1,.61-1.41l.1-.33.14-.24c.23-.38.51-.94.7-1.18s.38-.37.47-.52c.19-.32.29-.75.43-1s.09-.1.14-.24a5.63,5.63,0,0,0,.42-.75,1.25,1.25,0,0,1,.47-.52c.05-.14.05-.38.24-.42-.09-.33.33-.1.28-.38a4.68,4.68,0,0,1,.8-1.88,3.43,3.43,0,0,1,.43-.66c0-.1.18-.15.28-.24a2.85,2.85,0,0,1,.71-1.37l.56-.65.09-.24.24-.14.24-.47c.18-.33.28-.61.47-.9l.28-.42.28-.47s.14-.1.19-.14.05-.19.09-.29c.19-.32.52-.51.57-.94C199.8,10.67,199.62,10.72,199.33,10.67Z"/></g><circle class="cls-2" cx="221.27" cy="37.73" r="4.72"/><circle class="cls-2" cx="221.27" cy="7.96" r="4.72"/><circle cx="221.27" cy="22.8" r="1.93"/><circle class="cls-2" cx="221.27" cy="22.8" r="4.72"/></svg>