<svg xmlns="http://www.w3.org/2000/svg" viewBox="0 0 700.99 179.56"><defs><style>.cls-1{fill:#2aa9e0;}</style></defs><title>Asset 1</title><g id="Layer_2" data-name="Layer 2"><g id="Layer_1-2" data-name="Layer 1"><path class="cls-1" d="M328.31,33.65H298.85l0,55.12c0,16.11-6.9,29.14-23,29.14s-23.09-13-23.09-29.14V33.7H223.42V88.77c0,31.83,20.46,57.63,52.3,57.63s52.59-25.8,52.59-57.63Z"/><rect class="cls-1" x="593.96" y="0.06" width="29.32" height="143.49"/><path class="cls-1" d="M644.92,5.35V.2h22.84V5.35h-8.35V28.07h-6.13V5.35Z"/><path class="cls-1" d="M679.59.2l6.52,19.16h.08L692.35.2H701V28.07h-5.74V8.32h-.08l-6.83,19.75h-4.73L676.78,8.51h-.08V28.07H671V.2Z"/><path class="cls-1" d="M199.45,32.45c-25.26-5.83-41.2,19.27-41.87,20.62-.32.66-.33,1-1.45,1a1.1,1.1,0,0,1-1-1L152,33.86H125.7v109.6h29.44V84.14c0-4.85,13.05-28.09,38.34-22.11,12.79,3,18.22,8.45,18.22,8.45V37.1A46.63,46.63,0,0,0,199.45,32.45Z"/><path class="cls-1" d="M368.26,179.56V140.12h0V125.36s.05-1.18,1.12-1.19,1.16.62,1.39,1.19c2.23,5.56,14.51,26.72,41.75,20.08a58,58,0,1,0-73.79-55.86v90ZM396.79,60.22a29.37,29.37,0,1,1-29.36,29.36A29.37,29.37,0,0,1,396.79,60.22Z"/><path class="cls-1" d="M552.54,143.51h29.52V89.58a58,58,0,1,0-73.78,55.86c27.24,6.64,39.51-14.52,41.74-20.08.23-.57.44-1.2,1.4-1.19s1.11,1.19,1.11,1.19m.85-35.78A29.38,29.38,0,1,1,524,60.22,29.37,29.37,0,0,1,553.38,89.58Z"/><path class="cls-1" d="M33.49,143.28H0V0H35.93c43.5,0,76.5,8,76.5,71.64C112.43,134.68,77.48,143.28,33.49,143.28Zm8-118.44H29.64v93.58l12.16.31c24.93,0,41-2.27,41-47.09C82.78,28.66,68.61,24.84,41.48,24.84Z"/></g></g></svg>