<svg xmlns="http://www.w3.org/2000/svg" viewBox="0 0 1662.24 338.98"><defs><style>.cls-1{fill:#32373c;}</style></defs><title>Asset 2</title><g id="Layer_2" data-name="Layer 2"><g id="Standard"><g id="Logotype"><g id="Wordmark"><path class="cls-1" d="M945,125.8H877.57V133c21.09,0,24.48,4.52,24.48,31.26v48.21c0,26.74-3.39,31.64-24.48,31.64-16.19-2.26-27.12-10.93-42.18-27.5l-17.33-18.83c23.35-4.14,35.78-18.83,35.78-35.41,0-20.71-17.7-36.53-50.84-36.53H736.71V133c21.09,0,24.48,4.52,24.48,31.26v48.21c0,26.74-3.39,31.64-24.48,31.64v7.15h74.95v-7.15c-21.09,0-24.48-4.9-24.48-31.64V198.87h6.4l41.81,52.35H945c53.86,0,77.21-28.62,77.21-62.9S998.85,125.8,945,125.8ZM787.18,187.19V137.1h15.44c17,0,24.48,11.68,24.48,25.23,0,13.19-7.53,24.86-24.48,24.86Zm158.94,52.36h-2.64c-13.56,0-15.44-3.39-15.44-20.72V137.1h18.08c39.17,0,46.32,28.62,46.32,50.85C992.44,210.92,985.29,239.55,946.12,239.55Z"/><path class="cls-1" d="M526.93,201.13l26-76.84c7.54-22.22,4.15-28.62-20-28.62V88.14h70.81v7.53c-23.72,0-29.37,5.65-38.79,33.15L522,257.63h-4.89L478.72,139.74,439.55,257.63h-4.9L392.84,128.82c-9-27.5-15.06-33.15-36.91-33.15V88.14h83.62v7.53c-22.23,0-28.25,5.27-20.34,28.62l25.23,76.84,38-113h7.16Z"/><path class="cls-1" d="M655,256.12c-41.43,0-75.33-30.51-75.33-67.8,0-36.91,33.9-67.42,75.33-67.42s75.33,30.51,75.33,67.42C730.31,225.61,696.41,256.12,655,256.12Zm0-123.54c-34.65,0-46.71,31.26-46.71,55.74,0,24.86,12.06,55.75,46.71,55.75,35,0,47.08-30.89,47.08-55.75C702.06,163.84,690,132.58,655,132.58Z"/><path class="cls-1" d="M1115.22,243.69v7.53H1029v-7.53c25.24,0,29.76-6.4,29.76-44.07V139.36c0-37.67-4.52-43.69-29.76-43.69V88.14h78c38.79,0,60.26,20,60.26,46.7,0,26-21.47,46.33-60.26,46.33h-21.47v18.45C1085.47,237.29,1090,243.69,1115.22,243.69Zm-8.28-142h-21.47v65.54h21.47c21.09,0,30.88-14.69,30.88-32.39C1137.82,116.77,1128,101.69,1106.94,101.69Z"/><path class="cls-1" d="M1426,215.82l-1.89,6.78c-3.39,12.43-7.53,17-34.27,17h-5.28c-19.58,0-23-4.52-23-31.26V191c29.38,0,31.64,2.64,31.64,22.22h7.16V157.06h-7.16c0,19.59-2.26,22.22-31.64,22.22V137.1h20.71c26.75,0,30.89,4.52,34.28,17l1.89,7.15h6l-2.64-35.4H1311.07V133c21.09,0,24.48,4.52,24.48,31.26v48.21c0,24.46-2.88,30.63-19.51,31.5-15.8-2.41-26.65-11-41.5-27.36l-17.32-18.83c23.35-4.14,35.78-18.83,35.78-35.41,0-20.71-17.7-36.53-50.85-36.53h-66.29V133c21.09,0,24.48,4.52,24.48,31.26v48.21c0,26.74-3.39,31.64-24.48,31.64v7.15h75v-7.15c-21.09,0-24.47-4.9-24.47-31.64V198.87h6.4l41.8,52.35h154.8l2.26-35.4Zm-199.61-28.63V137.1h15.44c16.94,0,24.48,11.68,24.48,25.23,0,13.19-7.54,24.86-24.48,24.86Z"/><path class="cls-1" d="M1502.4,256.12c-15.06,0-28.25-7.91-33.9-12.81a27.11,27.11,0,0,0-6,12.81h-7.16v-52h7.53c3,24.86,20.34,39.55,42.57,39.55,12,0,21.84-6.78,21.84-18.08,0-9.79-8.66-17.32-24.1-24.48L1481.69,191c-15.07-7.16-26.37-19.59-26.37-36.16,0-18.07,17-33.52,40.31-33.52,12.42,0,23,4.52,29.37,9.8,1.88-1.51,3.77-5.66,4.9-10.18h7.15v44.45h-7.91c-2.63-17.7-12.42-32.39-32.38-32.39-10.55,0-20.35,6-20.35,15.44,0,9.79,7.91,15.06,26,23.35l20.72,10.17c18.08,8.66,25.23,22.6,25.23,33.9C1548.35,239.55,1527.64,256.12,1502.4,256.12Z"/><path class="cls-1" d="M1616.29,256.12c-15.07,0-28.25-7.91-33.9-12.81a27.11,27.11,0,0,0-6,12.81h-7.16v-52h7.53c3,24.86,20.34,39.55,42.56,39.55,12,0,21.85-6.78,21.85-18.08,0-9.79-8.67-17.32-24.11-24.48L1595.57,191c-15.06-7.16-26.36-19.59-26.36-36.16,0-18.07,17-33.52,40.3-33.52,12.43,0,23,4.52,29.38,9.8,1.88-1.51,3.76-5.66,4.89-10.18h7.16v44.45H1643c-2.64-17.7-12.43-32.39-32.39-32.39-10.55,0-20.34,6-20.34,15.44,0,9.79,7.91,15.06,26,23.35L1637,181.92c18.08,8.66,25.24,22.6,25.24,33.9C1662.24,239.55,1641.52,256.12,1616.29,256.12Z"/></g><g id="W_Mark" data-name="W Mark"><path class="cls-1" d="M169.49,10.17a158.68,158.68,0,0,1,89.07,27.2,159.86,159.86,0,0,1,57.74,70.11,159.08,159.08,0,0,1-14.69,151.08A159.86,159.86,0,0,1,231.5,316.3,159.08,159.08,0,0,1,80.42,301.61a160.11,160.11,0,0,1-43.05-43.05,159.16,159.16,0,0,1,0-178.14,159.69,159.69,0,0,1,70.11-57.73,158.21,158.21,0,0,1,62-12.52m0-10.17A169.49,169.49,0,1,0,339,169.49,169.49,169.49,0,0,0,169.49,0Z"/><path class="cls-1" d="M28.25,169.49A141.25,141.25,0,0,0,107.86,296.6L40.48,112A140.62,140.62,0,0,0,28.25,169.49Zm236.59-7.13c0-17.46-6.27-29.54-11.64-39-7.16-11.64-13.88-21.49-13.88-33.13,0-13,9.85-25.06,23.72-25.06.63,0,1.22.07,1.83.11A141.21,141.21,0,0,0,51.48,91.91c3.32.1,6.44.17,9.09.17,14.77,0,37.64-1.8,37.64-1.8,7.61-.44,8.51,10.74.91,11.64,0,0-7.66.9-16.17,1.35l51.44,153,30.91-92.7-22-60.29c-7.61-.45-14.82-1.35-14.82-1.35-7.61-.45-6.72-12.08.9-11.64,0,0,23.32,1.8,37.2,1.8,14.77,0,37.64-1.8,37.64-1.8,7.62-.44,8.51,10.74.9,11.64,0,0-7.66.9-16.16,1.35l51,151.82,14.57-46.17C261.05,188.74,264.84,174.45,264.84,162.36ZM172,181.84,129.59,305a141.43,141.43,0,0,0,86.81-2.25,13.31,13.31,0,0,1-1-2Zm121.47-80.11a109.52,109.52,0,0,1,.95,14.52c0,14.33-2.69,30.44-10.75,50.59L240.5,291.57a141.28,141.28,0,0,0,52.94-189.84Z"/></g></g></g></g></svg>