<svg xmlns="http://www.w3.org/2000/svg" viewBox="0 0 268.18 40.11"><defs><style>.cls-1{fill:#fff;stroke:#000;stroke-miterlimit:10;stroke-width:2px;}.cls-2{isolation:isolate;}</style></defs><title>filterfind</title><g id="Layer_2" data-name="Layer 2"><g id="Layer_1-2" data-name="Layer 1"><path class="cls-1" d="M51.57,14.4a4.45,4.45,0,0,1-4.44,4.36l-9.85,0a4.89,4.89,0,0,1-.6,7.06A4.61,4.61,0,0,1,35,32c.88,4.88-2.17,7.07-7.14,7.07H26.32c-6.11,0-7.59-3-12.21-3.74a2.35,2.35,0,0,1-2-2.35l0-17.09h0a4.79,4.79,0,0,1,2.79-4.36c2.87-1.31,9.41-4.9,10.63-7.69A4.14,4.14,0,0,1,29.4,1a4.73,4.73,0,0,1,4.37,6.62,11,11,0,0,1-1.39,2.44l14.74,0A4.57,4.57,0,0,1,51.57,14.4Zm-41.15,0,0,19a2.34,2.34,0,0,1-2.35,2.36H3.38A2.34,2.34,0,0,1,1,33.47l0-19a2.34,2.34,0,0,1,2.35-2.36H8.06A2.35,2.35,0,0,1,10.42,14.45ZM7.65,31.11a2,2,0,0,0-2-2,2,2,0,0,0,0,4A2,2,0,0,0,7.65,31.11Z"/><g class="cls-2"><path d="M64,30.77l-1.13,5.82-10.58,0,5-26.17,20.55,0L76,19.62l-10,0-.46,2.51H73.6l-1.66,8.62Z"/><path d="M75.42,36.57,79,17.65,89.5,16.34,85.59,36.56ZM85,15.89c-3.52,0-5.41-1.63-5.41-4.22,0-3,2.09-5.28,6.11-5.29,3.51,0,5.4,1.63,5.4,4.22C91.12,13.58,89,15.88,85,15.89Z"/><path d="M88.73,36.56,93.92,9.39l10.46-1.32L98.9,36.54Z"/><path d="M117.1,36.64a18.42,18.42,0,0,1-5,.64c-6.24,0-8.71-3.67-7.46-9.12l.79-3.47-2.35-.29,1.29-6.57,2.81-.8,1.08-4.57h10.21l-1.12,4.86h3.18l-1.37,7.2h-3.48l-.87,3.68c-.34,1.38.34,1.93,1.42,1.93a4.09,4.09,0,0,0,1.47-.34Z"/><path d="M130.69,28.67c0,1.09.71,1.76,3.48,1.76a22.27,22.27,0,0,0,6.44-.93l-.53,6.82a27,27,0,0,1-7.62.93c-7.49,0-12-3.83-12-9.15,0-7.32,5.42-11.94,13.08-12,5.95,0,9.84,3.21,9.85,7.44a12.28,12.28,0,0,1-.92,4.69Zm4-4.19c.21-1.25-.21-1.92-1.34-1.92s-1.84.8-2.17,2Z"/><path d="M143.55,36.48l3.61-18.92,10.34-1.31L157,18.93a5.17,5.17,0,0,1,4.43-2.81A4.13,4.13,0,0,1,164,17l-2.33,8.59a5.56,5.56,0,0,0-2.35-.67A4.2,4.2,0,0,0,155.59,27l-1.87,9.46Z"/><path d="M168.79,37.2c-2.93,0-5.15-1.87-5.16-4.22,0-3.43,2.59-5.49,6.23-5.49,2.93,0,5.15,1.88,5.15,4.22C175,35.14,172.43,37.2,168.79,37.2ZM171,25.77c-2.93,0-5.15-1.87-5.15-4.22,0-3.43,2.58-5.48,6.22-5.49,2.93,0,5.15,1.88,5.16,4.22C177.22,23.71,174.63,25.77,171,25.77Z"/><path d="M188.78,30.6l-1.12,5.82-10.59,0,5-26.17,20.55,0-1.79,9.21-10,0L190.32,22h8.07l-1.66,8.62Z"/><path d="M200.21,36.41l3.62-18.93,10.46-1.31-3.91,20.22Zm9.6-20.69c-3.51,0-5.4-1.63-5.4-4.22,0-3,2.08-5.28,6.1-5.29,3.52,0,5.4,1.63,5.4,4.22C215.92,13.41,213.83,15.71,209.81,15.72Z"/><path d="M226.62,36.37l1.75-9.17c.29-1.38-.3-1.76-1.05-1.76a2.79,2.79,0,0,0-1.68.84l-1.95,10.09-10.17,0,3.62-18.93,10.25-1.31-.46,2.05A11.57,11.57,0,0,1,233.21,16c4.6,0,6.95,3.13,6,7.86l-2.41,12.48Z"/><path d="M253,36.33l.29-1.46a9,9,0,0,1-5.9,2.23c-4.19,0-6.58-2.93-6.58-7.15,0-7.62,4.21-13.95,12.24-14a13,13,0,0,1,3.18.42l1.46-7.25,10.46-1.31L262.7,36.32Zm2.2-12.93A2.07,2.07,0,0,0,254,23c-1.5,0-2.8,2.43-2.8,5,0,1.17.72,1.67,1.43,1.67a2.32,2.32,0,0,0,1.5-.5Z"/></g></g></g></svg>