<svg xmlns="http://www.w3.org/2000/svg" viewBox="0 0 277.92 39.93"><title>pictographic</title><g id="Layer_2" data-name="Layer 2"><g id="Layer_1-2" data-name="Layer 1"><path d="M47.23,11.6H57.49a9,9,0,0,1,2.85.45,6.76,6.76,0,0,1,2.35,1.38,6.58,6.58,0,0,1,1.62,2.33,8.4,8.4,0,0,1,.6,3.31,7.7,7.7,0,0,1-.6,3.11,6.82,6.82,0,0,1-1.62,2.32,7,7,0,0,1-2.35,1.43,8.22,8.22,0,0,1-2.85.5H52.86v5.1H47.23Zm5.63,4.86v5.1h3.73a2.47,2.47,0,0,0,1.8-.7A2.43,2.43,0,0,0,59.11,19a2.45,2.45,0,0,0-2.52-2.58Z"/><path d="M68,11.6h5.63V31.53H68Z"/><path d="M82.88,21.56a5.48,5.48,0,0,0,.35,2,4.94,4.94,0,0,0,1,1.62,4.81,4.81,0,0,0,1.59,1.1,5.18,5.18,0,0,0,2.08.41,6.67,6.67,0,0,0,3-.62,14.73,14.73,0,0,0,2.16-1.32l2.55,4.08A12.09,12.09,0,0,1,92.16,31a12.23,12.23,0,0,1-8.7.06,10.47,10.47,0,0,1-3.37-2.16,9.74,9.74,0,0,1-2.24-3.25,10.66,10.66,0,0,1,0-8.15,9.84,9.84,0,0,1,2.24-3.25,10.47,10.47,0,0,1,3.37-2.16,11.21,11.21,0,0,1,4.23-.77,11.38,11.38,0,0,1,4.47.83,12.3,12.3,0,0,1,3.47,2.21l-2.55,4.08a14.73,14.73,0,0,0-2.16-1.32,6.67,6.67,0,0,0-3-.62,5.18,5.18,0,0,0-2.08.41A4.81,4.81,0,0,0,84.22,18a4.94,4.94,0,0,0-1,1.62A5.47,5.47,0,0,0,82.88,21.56Z"/><path d="M108.59,16.49v15H103v-15H97.24V11.6h17v4.89Z"/><path d="M116.15,21.59a10.58,10.58,0,0,1,.77-4.08,9.82,9.82,0,0,1,2.16-3.27,10.06,10.06,0,0,1,3.23-2.16,10.46,10.46,0,0,1,4.07-.77,10.67,10.67,0,0,1,4.09.77,9.81,9.81,0,0,1,5.42,5.43,10.58,10.58,0,0,1,.77,4.08,10.38,10.38,0,0,1-.77,4.06,9.88,9.88,0,0,1-5.42,5.4,10.86,10.86,0,0,1-4.09.77,10.65,10.65,0,0,1-4.07-.77,10.06,10.06,0,0,1-3.23-2.16,9.89,9.89,0,0,1-2.16-3.24A10.38,10.38,0,0,1,116.15,21.59Zm5.51,0a5.22,5.22,0,0,0,.35,1.94,4.84,4.84,0,0,0,1,1.58,4.59,4.59,0,0,0,1.5,1.06,4.73,4.73,0,0,0,1.92.38,4.85,4.85,0,0,0,1.93-.38,4.35,4.35,0,0,0,1.49-1.06,4.81,4.81,0,0,0,1-1.58,5.22,5.22,0,0,0,.35-1.94,5.29,5.29,0,0,0-.35-2,4.81,4.81,0,0,0-1-1.58A4.22,4.22,0,0,0,128.34,17a4.85,4.85,0,0,0-1.93-.38,4.73,4.73,0,0,0-1.92.38,4.45,4.45,0,0,0-1.5,1.06,4.84,4.84,0,0,0-1,1.58A5.29,5.29,0,0,0,121.66,21.59Z"/><path d="M158.27,29a10.62,10.62,0,0,1-1.7,1.07,17.24,17.24,0,0,1-2.17.91,19.69,19.69,0,0,1-2.4.63,12.71,12.71,0,0,1-6.51-.45,9.79,9.79,0,0,1-3.37-2,9.29,9.29,0,0,1-2.27-3.23,10.56,10.56,0,0,1-.84-4.31,10.7,10.7,0,0,1,.84-4.34A9.44,9.44,0,0,1,142.12,14a10,10,0,0,1,3.37-2,11.94,11.94,0,0,1,4.13-.7A12.59,12.59,0,0,1,154,12a13.42,13.42,0,0,1,3.48,1.87L155,18.19a8.12,8.12,0,0,0-5.19-1.7,5.74,5.74,0,0,0-2,.34,4.63,4.63,0,0,0-1.57,1,4.44,4.44,0,0,0-1,1.6,5.89,5.89,0,0,0-.37,2.18,4.85,4.85,0,0,0,1.42,3.74A5.33,5.33,0,0,0,150,26.64a7.46,7.46,0,0,0,1.59-.18,8.79,8.79,0,0,0,1.58-.5V23.7h-4.4V19.75h9.5Z"/><path d="M162.11,11.6h10.08a10.53,10.53,0,0,1,3,.41,6.27,6.27,0,0,1,2.34,1.25,5.57,5.57,0,0,1,1.52,2.09,7.23,7.23,0,0,1,.55,2.93,5.76,5.76,0,0,1-1.18,3.64,6.46,6.46,0,0,1-3.1,2.19l5.39,6.22v1.2h-5.8l-5.63-7h-1.56v7h-5.62Zm5.62,4.86v4.08h3.93a2.05,2.05,0,0,0,1.59-.59,2,2,0,0,0,.55-1.43,2.09,2.09,0,0,0-.55-1.46,2.06,2.06,0,0,0-1.59-.6Z"/><path d="M189,11.6h6.62L203,31.53h-5.69l-1.2-3.37h-7.77l-1.17,3.37h-5.69ZM189.75,24h5l-2.46-6.89Z"/><path d="M205.31,11.6h10.26a9,9,0,0,1,2.85.45,6.89,6.89,0,0,1,2.36,1.38,6.69,6.69,0,0,1,1.61,2.33,8.4,8.4,0,0,1,.6,3.31,7.7,7.7,0,0,1-.6,3.11,6.94,6.94,0,0,1-1.61,2.32,7.18,7.18,0,0,1-2.36,1.43,8,8,0,0,1-2.85.5h-4.63v5.1h-5.63Zm5.63,4.86v5.1h3.72A2.42,2.42,0,0,0,217.18,19a2.53,2.53,0,0,0-.71-1.87,2.48,2.48,0,0,0-1.81-.71Z"/><path d="M240,23.88h-8.33v7.65H226V11.6h5.62V19H240V11.6h5.63V31.53H240Z"/><path d="M250.25,11.6h5.63V31.53h-5.63Z"/><path d="M265.17,21.56a5.48,5.48,0,0,0,.35,2,5,5,0,0,0,1,1.62,4.76,4.76,0,0,0,1.58,1.1,5.18,5.18,0,0,0,2.08.41,6.75,6.75,0,0,0,3-.62,14.61,14.61,0,0,0,2.15-1.32l2.55,4.08A12,12,0,0,1,274.45,31a12.2,12.2,0,0,1-8.69.06,10.41,10.41,0,0,1-3.38-2.16,9.89,9.89,0,0,1-2.24-3.25,10.17,10.17,0,0,1-.8-4.08,10.16,10.16,0,0,1,.8-4.07,10,10,0,0,1,2.24-3.25,10.41,10.41,0,0,1,3.38-2.16,11.12,11.12,0,0,1,4.22-.77,11.34,11.34,0,0,1,4.47.83,12.16,12.16,0,0,1,3.47,2.21l-2.55,4.08a14.61,14.61,0,0,0-2.15-1.32,6.75,6.75,0,0,0-3-.62,5.18,5.18,0,0,0-2.08.41,4.76,4.76,0,0,0-1.58,1.1,5,5,0,0,0-1,1.62A5.47,5.47,0,0,0,265.17,21.56Z"/><path d="M18,.32a4.91,4.91,0,0,0-6.33,2.85L.32,33.28A4.91,4.91,0,0,0,9.5,36.76L20.86,6.65,11,32.7a15.41,15.41,0,0,1,10-26.84,4.62,4.62,0,0,1-.21.79A4.92,4.92,0,0,0,18,.32Z"/><path d="M21.39,5.84l-.32,0a4.62,4.62,0,0,1-.21.79L11,32.7A15.43,15.43,0,1,0,21.39,5.84Z"/></g></g></svg>