<svg xmlns="http://www.w3.org/2000/svg" xmlns:xlink="http://www.w3.org/1999/xlink" viewBox="0 0 345.2 36.3"><defs><style>.cls-1{fill:none;stroke-miterlimit:10;stroke-width:3px;stroke:url(#linear-gradient);}.cls-2{isolation:isolate;}</style><linearGradient id="linear-gradient" x1="4.43" y1="30" x2="346.38" y2="30" gradientTransform="matrix(1, 0, 0, -1, -1.18, 61.05)" gradientUnits="userSpaceOnUse"><stop offset="0" stop-color="#fff"/><stop offset="1"/></linearGradient></defs><title>streamlinestory</title><g id="Layer_2" data-name="Layer 2"><g id="Layer_1-2" data-name="Layer 1"><line class="cls-1" x1="345.2" y1="31.05" x2="3.25" y2="31.05"/><g class="cls-2"><path d="M6.64,34.89C4,34.89,1.18,34.16,1.18,31c0-.61.12-1.55.94-1.55,1.91,0,2.93,2.77,3.67,2.77a2.25,2.25,0,0,0,1.83-1.87c0-2.61-5.42-3.3-6.15-6.28a6.91,6.91,0,0,1-.21-1.26c0-2.61,2.32-5.42,5-5.42,1.76,0,5.18,2.08,5.18,4,0,.78-.61,2.53-1.59,2.53s-1.59-3.5-3.63-3.5A1.87,1.87,0,0,0,4.4,22c0,2.2,7.17,2.41,7.17,7.58C11.57,32.57,9.82,34.89,6.64,34.89Z" transform="translate(-1.18 -7.67)"/><path d="M19.35,34.73c-3,0-4-3.1-4-5.59,0-1.83.53-3.62.53-5.45,0-1.19,0-2.9-1.27-3.43-.48-.2-.77-.32-.77-.93a4.22,4.22,0,0,1,1.59-2.65c.49-.53,2.2-2.37,2.89-2.37,1.39,0,1.39,3.83,3.14,3.83.2,0,.37-.08.57-.08.9,0,1.38,1.06,1.38,1.84s-.53,1.18-1.3,1.18c-.45,0-.9-.08-1.34-.08-.9,0-1.14.32-1.31,1.18a27.53,27.53,0,0,0-.41,4.8,5.86,5.86,0,0,0,.66,3.1A4.23,4.23,0,0,0,22.28,32c.33.08,1.18.08,1.18.61C23.46,34.07,20.49,34.73,19.35,34.73Z" transform="translate(-1.18 -7.67)"/><path d="M35.68,22.58c-.69,0-1.38-.36-2.07-.36-1.63,0-1.71,2.4-1.71,3.75v.44c0,1.1,0,4.49.81,5.26.49.49.94.81.94,1.55a1.5,1.5,0,0,1-1.47,1.38c-.69,0-1.26-.36-1.95-.36s-1.35.73-2.16.73a2.9,2.9,0,0,1-2.24-2.08c0-1,1.42-1.38,2-2a3.39,3.39,0,0,0,.57-2.37c0-1.75-.41-6.68-1.67-7.86-.32-.33-.73-.57-.73-1.06,0-1.22,3.14-2.44,4.19-2.44,1.88,0,1.47,1.95,2,1.95.94,0,2.24-1.3,3.34-1.3a2.22,2.22,0,0,1,2.2,2.2A2.31,2.31,0,0,1,35.68,22.58Z" transform="translate(-1.18 -7.67)"/><path d="M45.42,25c-.61,0-1.18-.16-1.75-.16s-.9.49-.9,1.06a7.32,7.32,0,0,0,.65,2.6c.57,1.51,1.47,3.22,3.34,3.22,1.47,0,2.73-1.1,3.91-1.1.74,0,1,.78,1,1.39,0,2.24-3.7,3-5.46,3a8.23,8.23,0,0,1-2.81-.45c-3-1.18-4.48-5.13-4.48-8.14a9.33,9.33,0,0,1,2.41-6.32,6.78,6.78,0,0,1,5-2.57,7.92,7.92,0,0,1,5.62,2.94A4.67,4.67,0,0,1,53.28,23C53.28,25,47,25,45.42,25Zm.28-4.89a2.4,2.4,0,0,0-2.2,2c0,.85,1.43.89,2,.89s3.3,0,3.3-.77S46.48,20.14,45.7,20.14Z" transform="translate(-1.18 -7.67)"/><path d="M67.34,34.89c-1.59,0-2.9-1.14-4.49-1.14-1.42,0-2.52,1-3.58,1a1.28,1.28,0,0,1-.57-.13c-2.49-.85-3.14-.69-3.46-3.58a1,1,0,0,1-.05-.37c0-1.75,1.8-3.38,3.14-4.28,2-1.42,4.89.09,4.89-3.46,0-1.06-.65-2.52-1.91-2.52-1.43,0-1.51,3.17-4,3.17-1,0-2.24-.65-2.24-1.79a2.43,2.43,0,0,1,.61-1.47,8,8,0,0,1,6-2.68,9.11,9.11,0,0,1,1.47.12c2.85.4,4.12.81,4.12,4A22.1,22.1,0,0,1,67,26.09a13.25,13.25,0,0,0-.41,2.52,3.42,3.42,0,0,0,1.51,2.61c.57.37,1.75.57,1.75,1.47A2.31,2.31,0,0,1,67.34,34.89ZM62,27c-1.22,0-2.12,1.95-2.12,3,0,1.18.77,1.43,1.79,1.43,1.22,0,1.47-1.72,1.47-2.65C63.1,28,62.85,27,62,27Z" transform="translate(-1.18 -7.67)"/><path d="M95.61,34.52c-.94,0-5.26-.32-5.26-1.38,0-.61,2-2.81,2-5.38a10,10,0,0,0-.08-1.14c-.17-1.51-1.88-5.42-3.63-5.42-1.3,0-2,2.24-2.12,3.3a47.09,47.09,0,0,0-.49,5.34,2.16,2.16,0,0,0,.37,1.5c.61.78,1.14,1.23,1.14,2.29,0,.65-.28.81-.9,1a12.37,12.37,0,0,1-2.52.17h-.29A3,3,0,0,1,81.35,34a2,2,0,0,1-.45-1.06c0-.73,1.95-1.1,1.95-4.23,0-1.1-.12-2.16-.2-3.22s-.2-3.38-1.18-4.08a1.78,1.78,0,0,0-1.1-.32C77,21,76.91,25,76.91,27.47v.29a6.75,6.75,0,0,0,.69,3.58,2.55,2.55,0,0,1,.49,1.39c0,1.75-2.16,2.28-3.55,2.28s-4.07-.41-4.07-2.08,2.89-1.71,2.89-6c0-2.16-.12-4.56-1.87-6.07-.37-.32-.57-.49-.57-1,0-1.75,2.16-2.19,3.54-2.19,1.75,0,2.37,1.14,3.14,1.14,1.34,0,2.57-1,4-1C83.18,17.78,84,19,85.38,19c2,0,3.75-1.18,5.74-1.18a3,3,0,0,1,2.21.85,6.48,6.48,0,0,1,2.32,4.48c0,1.27-.41,2.49-.41,3.75a10,10,0,0,0,1.18,5.22A2.6,2.6,0,0,1,97,33.5C97,34.28,96.3,34.52,95.61,34.52Z" transform="translate(-1.18 -7.67)"/><path d="M105.5,34.81c-.69,0-1.38-.08-2.08-.08h-1.5c-.57,0-2.82,0-2.82-.82,0-.49,2-3,2.25-4a23.84,23.84,0,0,0,.48-5.83V22c0-2.52.13-5,.13-7.66a3.05,3.05,0,0,0-.53-2.07c-.9-.9-2.24-.94-2.24-2.57s2.6-2,3.91-2a3,3,0,0,1,1.67.33c.81.49.85,4.32.85,5.3,0,4.48-.36,9-.36,13.56A17,17,0,0,0,105.5,30c.25,1.18,2,3,2,3.63S106.07,34.81,105.5,34.81Z" transform="translate(-1.18 -7.67)"/><path d="M114.38,34.64c-1.34,0-3.46-.16-4.4-1.3a1.23,1.23,0,0,1-.33-.73c0-.45,1.8-1.39,2.16-1.84.7-.85.74-4.31.74-6v-.44a9.47,9.47,0,0,0-.13-1.59c-.2-1.39-1.63-2.08-1.63-3,0-1.67,3.31-2.12,4.57-2.12.93,0,1,2,1,3v.24c0,2.45-.17,4.89-.17,7.34a4.87,4.87,0,0,0,.94,3.5,1.85,1.85,0,0,1,.53,1.22C117.64,34.6,115.64,34.64,114.38,34.64Zm-.57-21.59a4.06,4.06,0,0,1-1-.08,2.73,2.73,0,0,1-1.59-2.36c0-1.14.37-2.49,1.8-2.49s3.3.86,3.3,2.41A2.34,2.34,0,0,1,113.81,13.05Z" transform="translate(-1.18 -7.67)"/><path d="M134,34.73a1.29,1.29,0,0,1-.78.24,3,3,0,0,1-1.75-.61c-.53-.33-2-.49-2-1.26,0-1.35,2-1.55,2.28-2.77a9.59,9.59,0,0,0,.13-1.92v-.2c0-1.43-.29-2.77-.41-4.2-.12-1.67-.53-3.18-2.57-3.18-1.06,0-1.83.82-2.69,1.31s-.89,2.52-.89,3.7v.45c0,.82,0,1.63,0,2.45a3.85,3.85,0,0,0,.53,2.32,4.77,4.77,0,0,1,1,2.44c0,.82-.45,1-1.15,1.1a19.47,19.47,0,0,1-3.17.37c-1,0-2.81-.61-2.81-1.83,0-.78.61-1.23,1.1-1.67,1.05-1,.81-3.83.89-5.22,0-.69,0-2.08,0-2.12,0-.89,0-2.81-.81-3.26-.65-.32-1.43-.49-1.43-1.42,0-1.27,2.16-2,3.22-2,1.34,0,2.12,1.51,3.26,1.51a2.19,2.19,0,0,0,.49-.12,10.53,10.53,0,0,1,3.71-.78A4.13,4.13,0,0,1,133,19c2,1.75,2.2,3.38,2.2,5.95,0,1.42-.29,2.85-.29,4.32,0,2.81,1.92,2.56,1.92,3.91C136.83,34.24,134.71,34.32,134,34.73Z" transform="translate(-1.18 -7.67)"/><path d="M144.24,25c-.61,0-1.18-.16-1.75-.16s-.9.49-.9,1.06a7.32,7.32,0,0,0,.65,2.6c.57,1.51,1.47,3.22,3.34,3.22,1.47,0,2.73-1.1,3.91-1.1.74,0,1,.78,1,1.39,0,2.24-3.71,3-5.46,3a8.23,8.23,0,0,1-2.81-.45c-3-1.18-4.48-5.13-4.48-8.14a9.37,9.37,0,0,1,2.4-6.32,6.82,6.82,0,0,1,5-2.57,8,8,0,0,1,5.63,2.94A4.67,4.67,0,0,1,152.1,23C152.1,25,145.79,25,144.24,25Zm.28-4.89a2.4,2.4,0,0,0-2.2,2c0,.85,1.43.89,2,.89s3.3,0,3.3-.77S145.3,20.14,144.52,20.14Z" transform="translate(-1.18 -7.67)"/><path d="M172.06,34.89c-2.61,0-5.46-.73-5.46-3.91,0-.61.12-1.55.94-1.55,1.91,0,2.93,2.77,3.66,2.77A2.25,2.25,0,0,0,173,30.33c0-2.61-5.42-3.3-6.16-6.28a6.88,6.88,0,0,1-.2-1.26c0-2.61,2.32-5.42,5-5.42,1.75,0,5.18,2.08,5.18,4,0,.78-.62,2.53-1.59,2.53s-1.59-3.5-3.63-3.5A1.87,1.87,0,0,0,169.82,22c0,2.2,7.17,2.41,7.17,7.58C177,32.57,175.24,34.89,172.06,34.89Z" transform="translate(-1.18 -7.67)"/><path d="M184.77,34.73c-3,0-4-3.1-4-5.59,0-1.83.53-3.62.53-5.45,0-1.19-.05-2.9-1.27-3.43-.49-.2-.77-.32-.77-.93a4.22,4.22,0,0,1,1.59-2.65c.49-.53,2.2-2.37,2.89-2.37,1.39,0,1.39,3.83,3.14,3.83.2,0,.36-.08.57-.08.89,0,1.38,1.06,1.38,1.84s-.53,1.18-1.3,1.18c-.45,0-.9-.08-1.35-.08-.89,0-1.14.32-1.3,1.18a27.53,27.53,0,0,0-.41,4.8,5.86,5.86,0,0,0,.66,3.1A4.23,4.23,0,0,0,187.7,32c.33.08,1.18.08,1.18.61C188.88,34.07,185.91,34.73,184.77,34.73Z" transform="translate(-1.18 -7.67)"/><path d="M203.59,32.24a10.61,10.61,0,0,1-6.48,2.44c-4.32,0-7.21-4.35-7.21-8.31a10.78,10.78,0,0,1,.12-1.63c.57-3.62,3.79-7.21,7.62-7.21,5.62,0,8.07,4.24,8.07,9.37A6.55,6.55,0,0,1,203.59,32.24Zm-5.83-11.33c-2.4,0-4,2.61-4,4.81a1.17,1.17,0,0,0,0,.37c.33,2.77.94,5.5,4.32,5.5,2.57,0,3.83-2.69,3.83-4.89C201.92,24.05,200.9,20.91,197.76,20.91Z" transform="translate(-1.18 -7.67)"/><path d="M216.58,22.58c-.69,0-1.38-.36-2.08-.36-1.62,0-1.71,2.4-1.71,3.75v.44c0,1.1,0,4.49.82,5.26.49.49.93.81.93,1.55a1.5,1.5,0,0,1-1.46,1.38c-.69,0-1.26-.36-2-.36S209.78,35,209,35s-2.24-1.26-2.24-2.08c0-1,1.43-1.38,2-2a3.39,3.39,0,0,0,.57-2.37c0-1.75-.41-6.68-1.67-7.86-.33-.33-.73-.57-.73-1.06,0-1.22,3.13-2.44,4.19-2.44,1.88,0,1.47,1.95,2,1.95.94,0,2.24-1.3,3.34-1.3a2.22,2.22,0,0,1,2.2,2.2A2.31,2.31,0,0,1,216.58,22.58Z" transform="translate(-1.18 -7.67)"/><path d="M234.3,22.46A25.76,25.76,0,0,0,231,28.94c-.69,1.83-1.14,3.71-1.83,5.54-.9,2.24-4,9.49-6.76,9.49-1,0-2.2-.61-2.2-1.75,0-3.22,4.6-1.75,5.95-7a8.31,8.31,0,0,0,.2-1.71c0-2.64-1.47-5-2.24-7.49s-1.51-3.87-3.79-5.46c-.37-.25-.86-.53-.86-1.06,0-1.31,3.18-1.79,4.16-1.79,1.34,0,3.26.28,3.58,1.87a3.13,3.13,0,0,1,0,.61v.25c0,1.42-.61,2.73-.61,4.15,0,.78,1.35,2.57,2.16,2.57,1.47,0,1.63-3.14,1.63-4.16a13.72,13.72,0,0,0-.2-2.24c0-.16,0-.32,0-.45,0-1.54,1.38-2.28,2.77-2.28.9,0,3.67.29,3.67,1.59C236.67,20.34,234.83,21.85,234.3,22.46Z" transform="translate(-1.18 -7.67)"/><path d="M256.09,34.89c-2.6,0-5.46-.73-5.46-3.91,0-.61.13-1.55.94-1.55,1.92,0,2.93,2.77,3.67,2.77a2.25,2.25,0,0,0,1.83-1.87c0-2.61-5.42-3.3-6.15-6.28a6.91,6.91,0,0,1-.21-1.26c0-2.61,2.33-5.42,5-5.42,1.75,0,5.17,2.08,5.17,4,0,.78-.61,2.53-1.59,2.53s-1.59-3.5-3.63-3.5A1.87,1.87,0,0,0,253.85,22c0,2.2,7.17,2.41,7.17,7.58C261,32.57,259.27,34.89,256.09,34.89Z" transform="translate(-1.18 -7.67)"/><path d="M276.75,22.46a25.11,25.11,0,0,0-3.26,6.48c-.7,1.83-1.14,3.71-1.84,5.54-.89,2.24-4,9.49-6.76,9.49-1,0-2.2-.61-2.2-1.75,0-3.22,4.6-1.75,5.95-7a8.31,8.31,0,0,0,.2-1.71c0-2.64-1.46-5-2.24-7.49s-1.51-3.87-3.79-5.46c-.36-.25-.85-.53-.85-1.06,0-1.31,3.18-1.79,4.15-1.79,1.35,0,3.26.28,3.59,1.87a3.13,3.13,0,0,1,0,.61v.25c0,1.42-.61,2.73-.61,4.15,0,.78,1.34,2.57,2.16,2.57,1.46,0,1.63-3.14,1.63-4.16a12.69,12.69,0,0,0-.21-2.24c0-.16,0-.32,0-.45,0-1.54,1.39-2.28,2.77-2.28.9,0,3.67.29,3.67,1.59C279.11,20.34,277.28,21.85,276.75,22.46Z" transform="translate(-1.18 -7.67)"/><path d="M285.58,34.89c-2.6,0-5.45-.73-5.45-3.91,0-.61.12-1.55.93-1.55,1.92,0,2.94,2.77,3.67,2.77a2.25,2.25,0,0,0,1.83-1.87c0-2.61-5.42-3.3-6.15-6.28a6.88,6.88,0,0,1-.2-1.26c0-2.61,2.32-5.42,5-5.42,1.75,0,5.17,2.08,5.17,4,0,.78-.61,2.53-1.59,2.53s-1.59-3.5-3.62-3.5a1.88,1.88,0,0,0-1.8,1.54c0,2.2,7.17,2.41,7.17,7.58C290.51,32.57,288.76,34.89,285.58,34.89Z" transform="translate(-1.18 -7.67)"/><path d="M298.29,34.73c-3,0-4-3.1-4-5.59,0-1.83.53-3.62.53-5.45,0-1.19,0-2.9-1.26-3.43-.49-.2-.78-.32-.78-.93a4.22,4.22,0,0,1,1.59-2.65c.49-.53,2.2-2.37,2.9-2.37,1.38,0,1.38,3.83,3.13,3.83.21,0,.37-.08.57-.08.9,0,1.39,1.06,1.39,1.84s-.53,1.18-1.3,1.18c-.45,0-.9-.08-1.35-.08-.89,0-1.14.32-1.3,1.18A26.59,26.59,0,0,0,298,27a5.85,5.85,0,0,0,.65,3.1A4.25,4.25,0,0,0,301.23,32c.32.08,1.18.08,1.18.61C302.41,34.07,299.44,34.73,298.29,34.73Z" transform="translate(-1.18 -7.67)"/><path d="M310.39,25c-.61,0-1.18-.16-1.75-.16s-.9.49-.9,1.06a7.13,7.13,0,0,0,.66,2.6c.57,1.51,1.46,3.22,3.34,3.22,1.46,0,2.73-1.1,3.91-1.1.73,0,1,.78,1,1.39,0,2.24-3.71,3-5.46,3a8.15,8.15,0,0,1-2.81-.45c-3-1.18-4.48-5.13-4.48-8.14a9.32,9.32,0,0,1,2.4-6.32,6.78,6.78,0,0,1,5-2.57,7.91,7.91,0,0,1,5.62,2.94A4.69,4.69,0,0,1,318.26,23C318.26,25,311.94,25,310.39,25Zm.29-4.89a2.39,2.39,0,0,0-2.2,2c0,.85,1.42.89,2,.89s3.3,0,3.3-.77S311.45,20.14,310.68,20.14Z" transform="translate(-1.18 -7.67)"/><path d="M344.29,34.52c-.94,0-5.26-.32-5.26-1.38,0-.61,2-2.81,2-5.38a10,10,0,0,0-.08-1.14c-.17-1.51-1.88-5.42-3.63-5.42-1.3,0-2,2.24-2.12,3.3a47.09,47.09,0,0,0-.49,5.34,2.16,2.16,0,0,0,.37,1.5c.61.78,1.14,1.23,1.14,2.29,0,.65-.28.81-.9,1a12.37,12.37,0,0,1-2.52.17h-.29A3,3,0,0,1,330,34a2,2,0,0,1-.45-1.06c0-.73,2-1.1,2-4.23,0-1.1-.13-2.16-.21-3.22s-.2-3.38-1.18-4.08a1.78,1.78,0,0,0-1.1-.32c-3.38,0-3.46,3.91-3.46,6.43v.29a6.75,6.75,0,0,0,.69,3.58,2.55,2.55,0,0,1,.49,1.39c0,1.75-2.16,2.28-3.55,2.28s-4.07-.41-4.07-2.08,2.89-1.71,2.89-6c0-2.16-.12-4.56-1.87-6.07-.37-.32-.57-.49-.57-1,0-1.75,2.16-2.19,3.54-2.19,1.75,0,2.36,1.14,3.14,1.14,1.34,0,2.57-1,4-1,1.59,0,2.45,1.18,3.79,1.18,2,0,3.75-1.18,5.75-1.18a2.93,2.93,0,0,1,2.19.85,6.45,6.45,0,0,1,2.33,4.48c0,1.27-.41,2.49-.41,3.75a10.12,10.12,0,0,0,1.18,5.22,2.6,2.6,0,0,1,.61,1.42C345.71,34.28,345,34.52,344.29,34.52Z" transform="translate(-1.18 -7.67)"/></g></g></g></svg>