<svg xmlns="http://www.w3.org/2000/svg" viewBox="0 0 197.26 43.26"><defs><style>.cls-1{isolation:isolate;}.cls-2{fill:none;stroke:#000;stroke-miterlimit:10;}</style></defs><title>topiquiz</title><g id="Layer_2" data-name="Layer 2"><g id="Layer_1-2" data-name="Layer 1"><g class="cls-1"><path d="M19.18,12.76a7.6,7.6,0,0,1-1.31,0c-.12,0-.25-.13-.33-.13s-.38,0-.55,0a2.61,2.61,0,0,1-.55-.08H16a9.61,9.61,0,0,0-2.18.17v.38a.35.35,0,0,0,.08.21.35.35,0,0,1-.08.21c0,.17,0,.29,0,.46s-.09.34,0,.5a2.71,2.71,0,0,0,.12.47,11.07,11.07,0,0,0,0,1.22,2.77,2.77,0,0,0,.13.54c0,.17,0,.38,0,.55s.17.42.21.67,0,.72,0,1a6.83,6.83,0,0,0-.17.88c0,.25.21.46.25.76s0,.84,0,1.26c0,.17.12.34.12.5s0,.42,0,.59a3.53,3.53,0,0,0,.25.76,1.44,1.44,0,0,1,0,.67c0,.13-.09.25-.09.34s.13.33.13.5a14.42,14.42,0,0,0,.17,2.36c-.09.12-.05.37-.17.46a3.88,3.88,0,0,1,.21.63c0,.21-.09.38-.09.59a2,2,0,0,0,.13.54c0,.21-.08.38-.08.64s0,.37,0,.54a9.9,9.9,0,0,1,0,1.09,1.63,1.63,0,0,0-.17.47c0,.25,0,.59,0,.88a2,2,0,0,1,0,.21c0,.13,0,.13,0,.17s.08.17.08.29c0,.34-.17.72-.17,1,0,.13.09.17.13.34l.21.75a1.64,1.64,0,0,1,0,.63c0,.17.17.43-.08.59a.85.85,0,0,1,.38,1c-.09.38-.55.38-.76.63-.17,0-.29-.08-.34-.21a5,5,0,0,1-1.76-.25L12,38.7c-.21,0-.42,0-.55-.09-.17.21-.42.17-.88.21,0,0-.09.09-.21,0s-.26,0-.34.08-.59,0-.8,0a1.26,1.26,0,0,1-.88,0c-.42-.08-.25-.71-.46-1,0-.33.37-.46.21-.8.16-.21.29-.42.42-.63s.08-.63.16-.84,0-.33,0-.63.13-.71-.08-1.09a2.16,2.16,0,0,0,.13-1,.26.26,0,0,0,.08-.21c0-.17-.13-.38-.13-.55s.17-.54.17-.8-.12-.25-.12-.42.08-.42.08-.58a1.47,1.47,0,0,0-.13-.64c.13,0,0-.29.13-.33a2.92,2.92,0,0,1-.08-1.1,12,12,0,0,0-.13-1.68.91.91,0,0,0-.13-.33c0-.8.38-1.68-.08-2.31.21-.76-.08-1.9.08-2.57.05-.34-.25-.25-.21-.5a4.45,4.45,0,0,0-.08-1.31,6.79,6.79,0,0,1,0-2.44,2.16,2.16,0,0,1-.25-.58A4.75,4.75,0,0,1,8,15.24c0-.38,0-.8,0-1.05,0-.46-.13-1.09-.13-1.6-.67,0-1.35.17-2,.21-.12,0-.17-.08-.29-.08l-1.22.17A1.79,1.79,0,0,1,4,13a12,12,0,0,1-1.22.05,5.15,5.15,0,0,1-2.1.25c-.3-.46-.13-1.05-.17-1.39a3.56,3.56,0,0,1,0-.71c0-.13.08-.26.08-.34s-.12-.17-.17-.21a6.05,6.05,0,0,1,0-.88c0-.3-.3-.21-.26-.51,0-.75-.42-1.89.17-2.48a1.49,1.49,0,0,1,1,0c.12,0,.29,0,.42,0a4.63,4.63,0,0,0,.8.25C2.66,7,2.87,7,3.08,7s.5.08.75.08l.25,0a2.44,2.44,0,0,1,.3,0c.25,0,.55-.17.8-.17a9.26,9.26,0,0,1,1,.17A1.82,1.82,0,0,0,6.69,7c.13,0,.21,0,.34,0a2,2,0,0,0,.46-.12c.17,0,.29.08.46.08s.17-.12.21-.12c.42-.09.93.08,1.31,0,.21,0,.25.17.42.21s.46-.16.67.09a1.11,1.11,0,0,1,.75-.3c.22,0,.55.17.93.13.21.13.84,0,1,.17L13.92,7h.3a1.68,1.68,0,0,1,.42,0,3.39,3.39,0,0,1,.5.13,8,8,0,0,0,1.39,0,6.14,6.14,0,0,1,2.1-.08,2.05,2.05,0,0,1,.46.54,2.37,2.37,0,0,1,0,.55c.05.67-.08,1.56,0,2.36a8.86,8.86,0,0,0,.17,1.17C19.3,12.13,19.47,12.51,19.18,12.76Zm-1.9-4.12c-.29.13-.67,0-.92,0a3.58,3.58,0,0,1-1.22,0c-.21-.08-.21-.29-.46-.29a4.17,4.17,0,0,0-.76.12c-.38-.21-.54-.12-.88,0-.25-.12-.51,0-.76-.08s-.33-.13-.46-.13-.25.09-.42.05-.13-.22-.25-.13-.09.13-.17.21c-.46.08-.93-.21-1.35-.17s-.59.17-.88.17c-.08,0-.25-.08-.34-.08a13.82,13.82,0,0,1-1.68,0c-.21,0-.33.17-.54.17a4.35,4.35,0,0,1-1,.08,3.68,3.68,0,0,0-.63-.17c-.17,0-.38.09-.55,0a22.68,22.68,0,0,0-2.31,0,6.36,6.36,0,0,1,.12,1.3c0,.13.13.21.13.34v.34c0,.17,0,.33,0,.46,0,.29-.12.59,0,.84s.21-.13.3-.13.12,0,.21,0c.8-.16,1.64-.08,2.31-.21.09,0,.13,0,.25,0a2.22,2.22,0,0,1,.55-.12c.5,0,1,0,1.51,0a2.5,2.5,0,0,1,.59-.13c.09,0,.21.08.34.08s.29-.08.42-.08.38.21.46.21.21,0,.25.08c.42.34.21.84.26,1.52,0,.12.12.33.12.46s0,.38,0,.55.13.25.13.42-.09.29-.09.46c0,1.09-.08,2.23,0,3.32,0,.29.13.55.13.84a3.17,3.17,0,0,0-.08.72,1.79,1.79,0,0,0,.12.42,2.5,2.5,0,0,0,0,.54,6.57,6.57,0,0,1,.17,1,10.65,10.65,0,0,1,0,1.13c0,.72.13,1.43.13,2.11s0,1.47,0,2.06v.58a12.62,12.62,0,0,0,.17,1.31c0,.12-.09.21-.09.25s.09.17.09.29c0,.51,0,.93,0,1.26,0,.59,0,1.1,0,1.64s0,.93,0,1.35c0,1.26-.13,2.48,0,3.7a10.64,10.64,0,0,0,1.13,0,5.49,5.49,0,0,1,.67-.17,1.28,1.28,0,0,1,.55,0c.08,0,.08.13.13.13s.12,0,.21,0a.83.83,0,0,1,.46-.09A12.52,12.52,0,0,0,13.25,35c0-.3.08-.59.08-.89a4.08,4.08,0,0,1,.05-1.3c.25,0-.3-.12,0-.21.2-.55-.05-1.13-.05-1.76a11.05,11.05,0,0,0,.17-1.27,7.52,7.52,0,0,0,0-1.64c0-.29-.08-.54-.08-.84s.08-.37.08-.58-.17-.43-.21-.64c0-.42,0-.92,0-1.42a1.32,1.32,0,0,0-.13-.38c0-.38,0-.8,0-1.18a4.07,4.07,0,0,1,0-1.43,1.86,1.86,0,0,1-.17-.55c0-.16,0-.37,0-.58s-.13-.3-.13-.42a2.52,2.52,0,0,0,0-.55c0-.38-.17-.8-.17-1.14,0-.12.09-.33.09-.5s-.21-.51-.25-.72a1.18,1.18,0,0,1,0-.42c-.08-.58-.08-1.51-.12-1.89a.56.56,0,0,1,.08-.21,3.22,3.22,0,0,0-.12-.5,2.11,2.11,0,0,1-.05-.72.73.73,0,0,0,.09-.29.81.81,0,0,1-.13-.34L12,12.17a2.76,2.76,0,0,1,0-.88,14.89,14.89,0,0,0,1.89-.13,10.3,10.3,0,0,1,1.09,0,3,3,0,0,0,.63-.08,1.35,1.35,0,0,1,1,0c.21-.17.67-.08,1-.21-.05-.21,0-.46-.09-.59.21-.21,0-.55,0-.8,0,0,.09-.12.05-.21A1.06,1.06,0,0,0,17.28,8.64Zm-1.8.17c.12,0,.12.08.12.21C15.48,8.89,15.48,8.85,15.48,8.81Z" transform="translate(0 -5.19)"/><path d="M45.83,25c0,.26.17.68,0,.89.33.29.12.67,0,1.13,0,.25,0,.55,0,.72s-.17.25-.21.37-.08.34-.21.34a1.89,1.89,0,0,1-.17,1l-.08.33c0,.09-.13.17-.13.26s0,.29,0,.42-.17.25-.21.38l-.5,1.3a6.55,6.55,0,0,1-.8,1.47,2.53,2.53,0,0,1,0,.55,3.32,3.32,0,0,0-.72.8,2.48,2.48,0,0,1-.42.67c-.21.25-.5.38-.75.63-.3,0-.26.08-.47,0a2.93,2.93,0,0,1-1.43.8,1,1,0,0,0-.21.12c-.12,0-.25,0-.33,0a4,4,0,0,1-1.1.3c-.12,0-.29-.09-.42-.09a5.8,5.8,0,0,1-.63.21,12.3,12.3,0,0,1-1.43.09c-.08,0-.12.08-.16.08s-.09-.08-.17-.08-.17.12-.25.12h-.3a1.21,1.21,0,0,0-.38,0,2.75,2.75,0,0,1-1.17.17c-.13,0-.09.13-.21.13a3.76,3.76,0,0,1-2.27-.25.87.87,0,0,1-.55,0c-.13,0-.17-.09-.3-.13H29.6A4.19,4.19,0,0,1,28,37.1a1.2,1.2,0,0,0-.38,0c-.37-.21-.58-.51-1.13-.55,0-.21-.17-.21-.13-.42-.21.13-.29-.12-.42-.21l-.42-.21a2,2,0,0,0-.29-.29c-.13-.09-.34-.13-.42-.21a1.93,1.93,0,0,1-.34-.42c-.08-.09-.33-.17-.25-.38l-.59-.51c0-.21-.17-.29-.12-.54-.13-.13-.22-.13-.34-.3L23,32.85c-.16,0-.08-.12-.12-.16l-.34-.47c-.08-.16-.12-.37-.25-.75,0-.13,0-.17,0-.3a.94.94,0,0,1-.13-.71c-.08-.17-.29-.25-.33-.42-.09-.42,0-.8-.13-1.18s-.29-.46-.17-.76c-.17-.16-.21-.46-.38-.58.09-.34-.12-.68-.12-1.1a3.88,3.88,0,0,1,.08-.63v-.71a4.42,4.42,0,0,1,.25-.88c.05-.3,0-.59.21-.68-.21-.71.26-1.26.26-2,.12-.09.12-.38.25-.47,0-.58.29-.88.38-1.34.29-.13.37-.42.54-.67.09-.09.17-.09.21-.13s.13-.46.42-.42c.09-.21,0-.13,0-.38.34-.12.47-.46.8-.67l.34-.13.25-.21a2.73,2.73,0,0,0,.38-.38,5.09,5.09,0,0,1,.71-.46,3.08,3.08,0,0,1,.72-.54,2.37,2.37,0,0,1,.33-.26,1,1,0,0,1,.34,0c.17-.08.51-.38.76-.21a2.46,2.46,0,0,1,1.76-.5c.21,0,.21-.17.34-.17a8.5,8.5,0,0,1,1.51-.13c.21,0,.42.09.59.09a4.3,4.3,0,0,0,.76-.13c.17,0,.29,0,.42,0a2.63,2.63,0,0,1,1,0c.12,0,.29.17.42.17s.33-.09.46-.09l.46.17a1.83,1.83,0,0,0,.42.13c.17,0,.38,0,.55,0a1.93,1.93,0,0,1,.67.21c.21,0,.46.17.67.21a9.23,9.23,0,0,1,2.11.25c.12,0,.29.21.46.3s.17-.05.21,0,.17.21.25.25.34.08.25.29a5.3,5.3,0,0,1,1.64,1.05,1.29,1.29,0,0,0,.26.68l.58.63c.09.08,0,.25.13.46a7.13,7.13,0,0,0,.5.92c0,.42.05.34.21.68s.26.79.64,1c0,.3.21.59.25.89a11,11,0,0,1,0,1.13c0,.13-.08.25,0,.34s.08.42.08.63S45.83,24.87,45.83,25Zm-1.26-2.06c-.3-.21-.3-.71-.38-1.17a2.5,2.5,0,0,1-.46-1.22c-.13-.21-.42-.3-.3-.76-.25,0-.16-.25-.33-.25a6.93,6.93,0,0,0-.89-1,1.93,1.93,0,0,0-.84-1c-.46-.38-1-.38-1.22-.8a3.73,3.73,0,0,0-1.21-.08,3.55,3.55,0,0,0-.55.21,2.32,2.32,0,0,0-.55.17c0-.38-.33-.47-.29-.89-.63-.16-1.22-.16-1.77-.25a11.39,11.39,0,0,0-2-.21c-.26,0-.42.13-.68.09s-.16-.13-.33-.13-.17.13-.21.13-.17-.09-.34-.09-.55.13-.76.13-.29-.09-.37-.09-.17.13-.21.13H30.7a5.63,5.63,0,0,0-.89.21,1.23,1.23,0,0,1-.75.13,2.39,2.39,0,0,1-1.39.54c-.09.21-.34.34-.42.42-.51.3-.8.72-1.3.76a.5.5,0,0,1-.47.42c0,.29-.29.29-.5.38a11.41,11.41,0,0,0-.76,1.22c-.08.17-.33.17-.42.33.17.26-.25.51-.33.72l-.09.84c0,.13-.17.17-.21.25s0,.34-.08.46a5.43,5.43,0,0,0-.21.84.42.42,0,0,1-.05.34,3.11,3.11,0,0,1-.21.84,2.89,2.89,0,0,0-.08,1c0,.25-.08.59-.08.8s.12.21.12.33a2.17,2.17,0,0,0,0,.51c0,.29.3.59.38.88s0,.72.13,1.09c0,.09.08.17.12.26a9.65,9.65,0,0,1,.3,1.05,6.47,6.47,0,0,0,.46,1.3c.38.84,1,1.47,1.39,2.19a1.24,1.24,0,0,1,.84.75,4.77,4.77,0,0,1,1.26.72c.08,0,.17,0,.21,0s.12.12.12.12.3.09.43.17.16.17.25.21A1.76,1.76,0,0,1,29,36c.25.12.42.42.72.46a8,8,0,0,0,1,0c.17,0,.3.17.47.21a3.33,3.33,0,0,0,.67.08c.17,0,.29-.12.46-.12s.38.08.55.08a1.55,1.55,0,0,1,.42-.12,2.85,2.85,0,0,1,.67-.05c.25,0,.55-.08.63-.08a.32.32,0,0,0,.17.08,4.89,4.89,0,0,0,.55-.21c.21,0,.37,0,.54,0,.55-.34,1.39-.17,2.06-.3l.42-.21c.09,0,.21,0,.34,0s.08-.08.21-.12l.55-.13c.16,0,.33-.17.54-.13.17-.21.51-.29.76-.46a2,2,0,0,1,.34-.25,2.85,2.85,0,0,1,.46-.21,5.88,5.88,0,0,0,1-2,2.57,2.57,0,0,0,.33-.33,1.81,1.81,0,0,1,.51-1.14,4.69,4.69,0,0,1,.59-1.68c.12-.13,0-.42.08-.63s.25,0,.21-.25a19.52,19.52,0,0,1,.42-2C44.78,25.33,44.36,24.07,44.57,22.93ZM42.3,25.12c0,.13,0,.13,0,.21s-.09.93-.13.93c.13.12-.38,1.26-.42,1.55-.12.76,0,1.51-.46,2.1a3.15,3.15,0,0,1-.42,1.43c-.09.09-.09.13-.17.17l-.21.34-.34.54c-.08.13-.29.3-.42.46-.21.34-.58.72-.88,1.1a2.16,2.16,0,0,0-.76.42l-.5.33a3.43,3.43,0,0,1-.46.34,1.28,1.28,0,0,1-.51.25,2,2,0,0,1-.88.26c-.29,0-.63-.13-.92,0a2,2,0,0,0-1.22-.13c-.38-.12-.55-.29-1-.12-.84-.55-1.89-.64-2.82-1.14-.25,0-.25-.29-.42-.42a1.33,1.33,0,0,1-.92-.84A4.42,4.42,0,0,1,27,31.55c-.09-.21,0-.21-.09-.46s-.33-.29-.46-.51c.09-.16-.08-.2-.12-.37s0-.38-.05-.51l-.21-.33a.35.35,0,0,1,0-.21s-.12-.05-.17-.05,0-.29,0-.42-.12-.08-.12-.12c-.09-.26,0-.63-.26-.84.21-.42-.21-.72,0-1.1,0-.21-.17-.16-.21-.33s.13-.47,0-.55c.25-.25-.09-.76.21-1.13,0-.21-.17-.26-.13-.47.17,0,0-.38.21-.33-.17-.26,0-.47.09-.68a1.14,1.14,0,0,0,0-.37,2.4,2.4,0,0,1,.25-.51,2,2,0,0,0,.25-.84c.21,0,.21-.21.3-.29l.12-.17a2,2,0,0,1,.3-.34c.08,0,.08,0,.12-.12s.21-.05.17-.26c.34-.08.5-.37.76-.58a5.77,5.77,0,0,0,.63-.68c.63-.33,1-.92,1.89-1.05.21,0,.34-.29.5-.38s.26,0,.38-.08.63-.34.93-.38a2.4,2.4,0,0,0,.54,0c.17,0,.34,0,.47,0s.29.17.46.17c.46,0,1-.42,1.55-.34s.76.55,1.35.51a1.88,1.88,0,0,0,.63.42,1.7,1.7,0,0,1,1.43,0,.6.6,0,0,0,.25.21c.25.13.55.13.76.26s.54.37.59.58c.37.05.37.42.71.51.09.29.34.46.46.71.05.09,0,.17.09.26l.12.12c.05.09,0,.13.05.21a4.23,4.23,0,0,1,.33,1,.34.34,0,0,0,0,.21,4.55,4.55,0,0,0,.13.67,2.3,2.3,0,0,0,.25.46A6.44,6.44,0,0,1,42.3,25.12ZM41,24a1.74,1.74,0,0,0,0-.51c-.08-.54-.38-1-.5-1.64a4.67,4.67,0,0,0-.09-1.09c-.21-.08-.16-.34-.29-.46s-.42-.3-.46-.55a4,4,0,0,1-.8-.42,4,4,0,0,1-.8-.08c-.25-.09-.38-.26-.59-.3-.42,0-.46.21-.92.13-.3-.13-.38-.46-.63-.63a1.15,1.15,0,0,0-.55,0c-.17-.05-.17-.26-.42-.21a2.47,2.47,0,0,1-1.68.16,1.32,1.32,0,0,0-.51.3c0-.17-.33,0-.46-.09a15.71,15.71,0,0,1-1.55.76c-.13,0-.21,0-.3.08s-.29.34-.42.47a5,5,0,0,1-.46.46,3,3,0,0,1-.3.13c-.5.25-.75.75-1.21,1-.05.42-.43.63-.59,1s-.17.76-.3,1l-.12.34c-.21.63,0,1.3-.34,1.85.17.08.08.33.13.54s.25.55.12.89c0,.08-.17,0-.12.21s.12.21.16.33a.85.85,0,0,1,.21.34c.05,0,0,.12,0,.21s.3.34.17.59c.25.08.21.42.42.5-.12.3.3.59.17,1.1l.21.12c0,.08,0,.17,0,.3s.3.25.3.46c.29.08.46.42.71.63s.25.17.38.29.38.34.55.47.08.12.12.12.38.08.55.17.29.25.42.29c.42.17,1,.09,1.35.51.46,0,.71.21,1.26.17.21,0,.29.21.54.21A2.85,2.85,0,0,1,34.9,34a4.43,4.43,0,0,1,.76.08,3.64,3.64,0,0,0,.88-.37,1.15,1.15,0,0,1,.76-.34c0-.25.29-.38.46-.55a2.42,2.42,0,0,0,.63-.67,3.57,3.57,0,0,1,.42-.5,11.19,11.19,0,0,0,.92-1.56,3.91,3.91,0,0,0,.42-.88c.05-.09,0-.21,0-.34s.21-.29.09-.38a2.64,2.64,0,0,0,.17-1c.29-.29.21-.67.29-1.17,0-.26.21-.47.21-.68A8.48,8.48,0,0,0,41,24.2C41,24.11,41,24.11,41,24Z" transform="translate(0 -5.19)"/><path d="M75.38,27.85c0,.09-.08.25-.08.38s.08.25.08.38a3.75,3.75,0,0,0-.21.59c-.12.42-.12.92-.25,1.47a3.39,3.39,0,0,1-.29.67c0,.17,0,.25-.09.42a7.46,7.46,0,0,1-.42.89c-.08.2-.08.46-.33.5,0,.63-.42.71-.47,1.3a1.39,1.39,0,0,0-.46.89,1.86,1.86,0,0,0-.54.5,8.82,8.82,0,0,0-1.48,1.39,1,1,0,0,0-.75.54,1.42,1.42,0,0,0-.76.3c-.21.08,0-.21-.25-.13s-.09.21-.21.25l-.34.09-.59.25c-.12,0-.08.08-.33.13l-.59.21a1.31,1.31,0,0,1-.21,0,.52.52,0,0,1-.09.17c-.08,0-.25-.08-.37-.08a5.62,5.62,0,0,0-1.18,0,7.44,7.44,0,0,1-1.47.17c-.25,0-.25-.13-.38-.09s-.42-.16-.59-.21-.17,0-.21,0a5.36,5.36,0,0,1-1-.13l-.25-.17-.76-.08a7,7,0,0,1-.88-.21l-.46-.09c-.13,0-.21-.16-.34-.21s-.59-.08-.76-.33c-.21-.09-.16.08-.37,0-.3-.25-1-.17-1.1-.55-.46.17-.92-.25-1.22-.5-.42.71.34,1.89-.12,2.77.12.38.38.72.12,1.1,0,.25.21.21.26.37v.89c0,.29-.34.12-.38.33s.17.09.29.21a11.84,11.84,0,0,0,.17,2.11,1,1,0,0,0,.13.5c.12.38.46.55.5.88a1.87,1.87,0,0,1-.08.68.78.78,0,0,1-1.1.16c-1.13.17-2.06.55-3.19.68a1.61,1.61,0,0,1-1,.42c-.13,0,0,.12-.08.16s-.21.17-.3.3-.08,0-.33.13c0,0,0,.12-.13.12a2.73,2.73,0,0,1-.8-.29,1.05,1.05,0,0,0-.08-.34.74.74,0,0,1-.13-.29c0-.13,0-.59.08-.89a1.83,1.83,0,0,1,.17-.67,1.09,1.09,0,0,1-.12-.55,11.74,11.74,0,0,1,.25-2.06v-1c.08-.67.25-1.3.34-1.93,0-.08-.09-.08-.09-.17a1.18,1.18,0,0,0,.09-.38c0-.29,0-.63,0-1.09,0-.13-.09-.13-.09-.25s.09-.13.09-.21-.13-.42-.13-.63a6.17,6.17,0,0,1,.09-.76A2.78,2.78,0,0,1,50,36.3,8.28,8.28,0,0,1,50,34.54v-1a7.42,7.42,0,0,0,.17-.92c0-.26-.13-.51-.13-.76s.09-.46.09-.67,0-.34,0-.47a15.36,15.36,0,0,0,.21-1.64,3.08,3.08,0,0,0,0-.58c0-.68,0-1.22,0-2,0-.13.08-.25.08-.34s-.13-.38-.13-.54.09-.26.09-.42-.09-.34,0-.47a3.83,3.83,0,0,1,.08-.67c0-.34-.17-.63.08-1-.08-.16,0-.29-.08-.46a1.47,1.47,0,0,0,0-.42,1.68,1.68,0,0,0-.13-.46c0-.21,0-.38,0-.55s-.17-.63-.21-1c0-1,.08-2.06,0-3a.9.9,0,0,1,.08-.25,4,4,0,0,0-.13-.76,17,17,0,0,0-.33-2.06.73.73,0,0,1,1.09-.29c.08,0,.08.25.25.29a7.23,7.23,0,0,0,1.77-.33,1.24,1.24,0,0,0,.42-.05s.12-.12.12-.12.21,0,.3,0,.25-.13.46-.13a1.29,1.29,0,0,1,.88.55c-.08.33,0,.63-.12,1a2.13,2.13,0,0,1-.13.46c0,.21,0,.5,0,.67a3.21,3.21,0,0,0-.25.76c.29-.09.46-.34.76-.38.33-.46,1-.63,1.38-1,.26,0,.34-.08.47.08.25-.16.25-.37.5-.54s.46-.13.67-.26a1.58,1.58,0,0,0,.63-.29c.26.08.51-.13.76-.21a4.05,4.05,0,0,1,.76-.17,5.32,5.32,0,0,1,.8-.12,6.63,6.63,0,0,1,1.55-.26c.29,0,.63.13,1,.17a3.16,3.16,0,0,1,1.68.46c.21,0,.21-.12.42-.08l.34.17.33.12c.13.09.09.17.13.21s.12,0,.21.09.21.21.29.25.38.09.55.17a5,5,0,0,0,1.43.5,2.47,2.47,0,0,0,.54.42l.51.34c.13.08.29.13.29.29.21,0,.21.05.38.05,0,.21.3.12.34.29s.08.13.25.3l.21.12s0,.13.09.21c.29.34.33.55.63.76s.33.42.46.63l.33.34a3.72,3.72,0,0,1,.68.88l.12.33c0,.09.17.17.21.3a1,1,0,0,0,.17.46,4.22,4.22,0,0,1,.3.38s.12.08.12.13,0,.16,0,.21.17.12.17.21,0,.25,0,.37a2.08,2.08,0,0,1,.13.3c.08.21.16.38.21.54s-.17.64.12.89a5,5,0,0,0,.09,1.09C75.47,26.51,75.38,27.18,75.38,27.85ZM73.7,24.7c0-.08.09-.13.09-.21s-.17-.17-.17-.21a3.33,3.33,0,0,0,0-.63c-.08-.25-.34-.51-.25-.8,0-.13-.21-.13-.3-.21s0-.25-.12-.34l-.38-.54-.34-.63-.21-.3c0-.12,0-.29-.12-.38s-.09-.12-.13-.16L71.56,20s-.17,0-.21-.08,0-.17,0-.21a.41.41,0,0,0-.21,0c-.17-.17-.3-.38-.42-.51s-.26-.63-.51-.84c-.08,0-.21,0-.25,0l-.09-.17a.36.36,0,0,1-.21,0L69.37,18,69,17.93l-.13-.21-.29-.12-.17-.21a1.07,1.07,0,0,0-.42-.22s-.09-.12-.13-.12c-.42-.17-.88-.17-1.3-.34a4.37,4.37,0,0,1-.46-.25.77.77,0,0,1-.26-.17c-.08,0,0-.29-.21-.21a5.67,5.67,0,0,0-2.43-.59c-.3-.29-.68-.21-1.06-.16s-.58.08-.75.12a3,3,0,0,0-.42.09.39.39,0,0,1-.42.12L59.28,16a2,2,0,0,0-.5.13,3.71,3.71,0,0,0-.76.42l-.54.21c-.17.16-.26.12-.38.21a6.16,6.16,0,0,0-.76.46s-.13,0-.21,0-.29.42-.59.38c-.17.21-.21.5-.54.46a.88.88,0,0,1-.17.42c-.25.21-.25.51-.46.55-1.48.17-1.22-1.22-1.18-2.48a5.1,5.1,0,0,0,0-1.77,8.87,8.87,0,0,1-1.85.42c0,.51,0,1,0,1.52s.17,1,0,1.3c.34.46,0,1.68.08,2.1,0,0,0,.13.09.25A25.54,25.54,0,0,1,51.72,25c-.09.21,0,.21,0,.25,0,.55,0,1,0,1.39a10,10,0,0,0-.17,1.05c0,.34.13.72.13,1.05a.64.64,0,0,0-.17.17v.21a4,4,0,0,0-.09.63c0,.17.13.34.13.55a3,3,0,0,1-.08.46,2.53,2.53,0,0,1,0,.55,1.59,1.59,0,0,0-.13.46,2.55,2.55,0,0,0,0,.55,35,35,0,0,0,0,3.57,2.9,2.9,0,0,0-.21,1.09,3.62,3.62,0,0,0,.13.76c0,.25-.34.25-.29.59a2.94,2.94,0,0,1,.29,1.85L51.3,41c-.09.67-.34,1.3-.38,1.89,0,.13,0,.34,0,.46s0,.21,0,.21a2.41,2.41,0,0,1-.17.89c0,.12.09.29.09.46a5.19,5.19,0,0,0-.05,1.18c.63,0,1.31-.47,1.94-.51a.91.91,0,0,1,.67.09c0-.34.46-.26.67-.38,0-.25-.12-.42-.12-.72,0-.12.08-.25.08-.37s-.13-.38-.13-.55.13-.3.17-.46-.08-.26-.08-.38v-.25c0-.55,0-1-.09-1.56,0-.29,0-.67,0-1s-.17-.46-.21-.75,0-.72,0-1.1l-.13-2.14a.57.57,0,0,1,0-.34c0-.08-.13-.29-.13-.33s.13-.13.08-.3-.12-.12-.12-.21,0-.21,0-.33-.21-.34-.13-.55c.17-.38.8-.46,1.18-.38a1.68,1.68,0,0,1,.59,1c.29,0,.63.38.8.46s.42.22.37.43a9.47,9.47,0,0,1,1.48.58l.54.09a2.2,2.2,0,0,1,.51.21l.71.29a5.2,5.2,0,0,0,1.3.3,2,2,0,0,0,.47.12,12.65,12.65,0,0,0,1.43.13c.42,0,.84.25,1.26.29.08,0,.17-.08.21-.08s.17.08.21.08a4.8,4.8,0,0,0,.88-.16,4.82,4.82,0,0,1,1.14,0,1.73,1.73,0,0,0,.75-.17c.17,0,.13-.13.13-.13s.21,0,.29,0c.26-.12.42-.29.63-.38s.51-.17.76-.29l.25-.17c.17-.08.3,0,.42-.13a2.9,2.9,0,0,1,1.1-.88c0-.13.08-.13.12-.17l.3-.33.12-.13c0-.08,0-.17.09-.21s.16-.08.21-.13a1.71,1.71,0,0,1,.21-.33c0-.09.17,0,.21-.09s0-.21.12-.21c0-.5.38-.71.38-1.26.25-.17.25-.46.34-.75l.17-.17a3.53,3.53,0,0,1,.08-.42,1.21,1.21,0,0,0,.21-.59,5.12,5.12,0,0,0,.13-.55,9.12,9.12,0,0,0,.08-1c.08-.25.21-.42.25-.63a6.48,6.48,0,0,0,0-2.23c-.08-.33.22-.25.22-.46A3.27,3.27,0,0,1,73.7,24.7Zm-2.23,2.4a10.56,10.56,0,0,1,0,1.13c0,.13-.13.25-.13.42s0,.3,0,.38-.09.25-.13.42a5.7,5.7,0,0,1-.29,1.13,9.08,9.08,0,0,1-.63,1c0,.05-.13.05-.17.13a1.51,1.51,0,0,1-.34.46,1.8,1.8,0,0,1-.21.34,1.61,1.61,0,0,0-.25.29c-.08.09-.08.21-.21.34a.65.65,0,0,0-.29.13c-.09,0-.17.16-.21.16s-.26.05-.34.09a5.21,5.21,0,0,1-.42.33.6.6,0,0,0-.21.13,7.53,7.53,0,0,0-.88.38.35.35,0,0,1-.21,0l-.09.17s-.17,0-.25,0-.13.12-.13.12c-.16,0-.33,0-.5,0A2.31,2.31,0,0,1,65,35a5.85,5.85,0,0,1-.88,0c-.25,0-.5.17-.76.21a4.62,4.62,0,0,0-.46-.08,3.05,3.05,0,0,1-.88-.05,1.39,1.39,0,0,1-.38-.12l-.88-.21c-.09,0-.26-.09-.3-.09a2.94,2.94,0,0,1-.59,0c-.37,0-.75-.26-1.13-.3a2.81,2.81,0,0,0-1.85-.71c-.17-.17-.34-.3-.29-.46-.3-.05-.3.08-.51-.05,0-.25-.5-.33-.25-.67-.38.09-.25-.38-.46-.46-.34-.3-.38-.88-.8-1.14.08-.25-.17-.38-.25-.58a1.54,1.54,0,0,0,0-.43c0-.08-.09-.16-.13-.21s0-.42,0-.58A8.93,8.93,0,0,1,54,28.1a1.4,1.4,0,0,1,.08-.33c-.08-.17,0-.25,0-.25A1.79,1.79,0,0,1,54,27.1a1.44,1.44,0,0,1-.13-.42c0-.09.08-.3.08-.47a8.63,8.63,0,0,1,0-1.76c.05-.13.09-.13.17-.25a2.13,2.13,0,0,1,.34-.76c0-.67.46-.93.5-1.56.42-.17.42-.75.93-.84,0-.46.38-.46.5-.8.09-.12.3-.08.38-.21a2.36,2.36,0,0,0,.51-.46,1.15,1.15,0,0,0,.42-.13c.21-.16.5-.29.58-.58a4.3,4.3,0,0,1,.64-.26c.33-.29.75-.58,1.17-.88a7.53,7.53,0,0,1,1.31-.63c.29-.08.79.25,1.09.3a3.61,3.61,0,0,0,.88-.13c.34,0,.84,0,1.22.08.21.09.84.05,1,.13s.25.13.38.21.33.21.63.34a3.61,3.61,0,0,0,.59.29c.12,0,.12.21.21.34.46,0,.5.37.84.5.08.13.21.21.21.42.21-.13.21.09.33.21a1.32,1.32,0,0,1,.55.55l.13.12c.12.21.29.59.46.84a5.59,5.59,0,0,0,.46.55s0,.13,0,.21.09,0,.13.13,0,.25.21.29,0,.3.13.46.16.21.21.34a3.93,3.93,0,0,0,.12.67l.09.68a2.79,2.79,0,0,1,.25.71,2.5,2.5,0,0,1,0,.55c0,.12.08.33.08.46A4.91,4.91,0,0,0,71.47,27.1ZM70,24.53a3.4,3.4,0,0,1-.29-1.09,1.33,1.33,0,0,1-.42-.8,3.08,3.08,0,0,1-.63-.84,4.11,4.11,0,0,1-.59-.88,3.5,3.5,0,0,1-1-.84,5.89,5.89,0,0,1-.46-.42c-.09-.09-.3-.09-.42-.17l-.34-.21s-.08-.13-.13-.13c-.25-.13-.5,0-.59-.21A18.08,18.08,0,0,0,63,19a3.31,3.31,0,0,1-.46-.29c-.17-.08-.25-.29-.5-.25s-.21.08-.34.12c-.34.13-.34.09-.55.26l-.25.16-.08.17s-.17,0-.21,0a1,1,0,0,1-.26.21c-.21,0-.21-.12-.37-.08-.09.55-.72.46-1,.88-.21-.08-.25.13-.46.13a1.51,1.51,0,0,1-.55.5c-.17.13-.29.34-.5.26a.88.88,0,0,1-.55.63c0,.29-.29.33-.29.67-.13,0-.3.25-.34.29-.13.21-.17.38-.3.63-.16.42-.58.85-.5,1.27a.53.53,0,0,1-.34.25,3.68,3.68,0,0,1,.13,1.39c0,.21.13.42.13.58s-.09.34-.09.51c0,.38.17.8.17,1.22,0,.21-.13.42-.08.67a3.24,3.24,0,0,1,.5,1.18,1.91,1.91,0,0,1,.72,1.13,4.48,4.48,0,0,1,.75.76,6.47,6.47,0,0,1,1.68.46l.26.13c.08,0,.12.17.21.21l.33.08c.51.17,1.05,0,1.64.17.13,0,.25.17.38.21l.29.08c.09.05,0,.13.17.13a6.58,6.58,0,0,1,.84-.17c.09,0,.21.09.34.09s.17-.13.25-.13.38,0,.51,0,.16-.13.25-.13a3.57,3.57,0,0,0,.67-.21,4.33,4.33,0,0,0,1.6-.63c.46,0,.59-.42,1.09-.38,0-.29.21-.29.3-.46s.25-.29.46-.33c.12-.38.42-.55.54-.89.17,0,.17-.16.3-.16-.13-.34.21-.55.29-.85a7.74,7.74,0,0,0,.09-1,9.56,9.56,0,0,0,.21-1,11.09,11.09,0,0,0,.08-2.32Z" transform="translate(0 -5.19)"/><path d="M85.73,9.1c0,.17-.21.3-.3.42l-.08.42a6,6,0,0,1-.42.85c-.25.08-.51.37-.76.46-.08,0-.21,0-.33.08a3.57,3.57,0,0,1-1.14.38,2.21,2.21,0,0,1-.55-.17l-.84-.08c-.21-.51-.67-.84-.84-1.43l-.38-.42c0-.42-.25-.8-.25-1.22A2.13,2.13,0,0,1,80,7.76L80.14,7c0-.08.16-.08.21-.16s0-.13.08-.17.25-.09.34-.21,0-.17,0-.21A.5.5,0,0,0,81,6a3.76,3.76,0,0,1,.75-.59c.3-.21.76-.12,1.31-.17.21.47.84.51,1.13.93h.42c0,.13.09.13.17.21a2.94,2.94,0,0,1,1,1.3.49.49,0,0,1,0,.21A3.33,3.33,0,0,1,85.73,9.1Zm0,7.53c0,.25.13.46.13.71s-.17.84-.17,1.26,0,.72,0,1.18c0,.21.08.25,0,.46-.34.72,0,2.11,0,3.07,0,.55-.21,1.1-.25,1.68-.13,1.22-.09,2.53-.21,3.7,0,.34,0,.68,0,1,0,.76-.17,1.47-.26,2.14,0,.51,0,1,0,1.43,0,.3,0,.51,0,.76a3.5,3.5,0,0,1,.12.63,1.46,1.46,0,0,1-.08.34.9.9,0,0,0,.08.25c0,.13-.08.21-.08.34s.08.21.08.29a2.54,2.54,0,0,0-.17.59,7.21,7.21,0,0,1,0,1.3,1.59,1.59,0,0,1-1.22.3c-.3-.09-.25-.55-.46-.76a2.15,2.15,0,0,1-1-.34,2.92,2.92,0,0,1-1-.08,5.07,5.07,0,0,1-1-.17s0-.21-.17-.17c-.17-.21-.08-.63-.29-.8a5.75,5.75,0,0,0,.21-.67c.08-.5-.09-1,0-1.51a2.18,2.18,0,0,1,.09-.46s.08-.09.08-.22a1.81,1.81,0,0,1,0-.67s.09-.08.09-.21-.09-.12-.09-.17.13-.08.17-.16-.08-.26-.08-.34c.12-.59.16-1.77.21-2.14s0-.34,0-.63c0-.09,0-.17,0-.22a22.27,22.27,0,0,0,.12-2.48c0-.54.09-1,.09-1.55s-.13-1,.12-1.51a4.11,4.11,0,0,1,0-1.6c0-.42,0-.8,0-1.22a3.24,3.24,0,0,1,0-.88v-.3a4.49,4.49,0,0,0,.09-.59c0-.21-.13-.37-.13-.54a2.52,2.52,0,0,0,0-.55c0-.08-.08-.13-.12-.21v-.21a2.37,2.37,0,0,1,0-.55c0-.29-.47-.25-.55-.46-.13-.42-.34-1,0-1.3.25-.13.51,0,.89,0a.44.44,0,0,0,.25.08s.12-.08.21,0,.38.17.59.21c1.09.13,3.07-.38,3.49-.08.16.12.08.37.25.42A6.49,6.49,0,0,0,85.77,16.63Zm-1.85-9a.65.65,0,0,1-.55-.34c-.21-.08-.29,0-.46,0a1.84,1.84,0,0,0-.46-.51c-.46.21-.72.72-1,1.09A3.25,3.25,0,0,0,81.61,9a1.94,1.94,0,0,0,.46.71c.13.17.21.38.38.47a1.66,1.66,0,0,0,1.22-.3l.42-.29s0-.17.12-.13c0-.54.38-.84.17-1.43A1,1,0,0,1,83.92,7.59Zm.38,10.8c0-.12,0-.12,0-.21,0-.71-.09-1.43-.09-2.18-.12-.13-.25,0-.42,0s-.25-.17-.46-.17c-.21.17-.88.08-.88.34-.17.42,0,.84,0,1.22a.57.57,0,0,1-.08.25c0,.12.08.17.08.29,0,.55,0,1,0,1.35V20a11.2,11.2,0,0,0-.17,1.14c0,.33.13.59.13.88s-.17.34-.17.51a1.47,1.47,0,0,1,0,.46v.42c0,.8.08,2.06,0,3.11v.34c0,.16-.13.25-.13.37s0,.17,0,.3a7.93,7.93,0,0,1-.09.92l-.17.63c0,.09.09.21.09.34a2.07,2.07,0,0,1-.25,1.09c.21.09.08.3.08.47a3.08,3.08,0,0,1,0,.63,4.91,4.91,0,0,0-.21.84,4.47,4.47,0,0,0,0,.71l.09,2a6.21,6.21,0,0,0,1.64.25,4.14,4.14,0,0,1,.08-1.09c0-.8-.38-2.27.13-2.9a1.06,1.06,0,0,1-.17-.72,2.47,2.47,0,0,1,.13-.5c.08-.46,0-1,.12-1.43,0-.17.13-.38.13-.55s-.09-.17,0-.29v-.93a2.81,2.81,0,0,1,.08-.29c0-.08-.13-.13-.13-.17s0-.21,0-.29,0-.26,0-.34,0-.13.09-.21,0-.17,0-.21A3.22,3.22,0,0,0,84,25c0-.26,0-.51,0-.72a11.63,11.63,0,0,0,.29-1.26c0-.17-.13-.38-.13-.55a24.4,24.4,0,0,1,.13-3A5.34,5.34,0,0,0,84.3,18.39Z" transform="translate(0 -5.19)"/><path d="M115.2,45.63c-.21.17-.63.13-.8.3s-.21-.17-.42-.13a15.5,15.5,0,0,1-2.44.13c-.3,0-.63.13-1,.21a2.45,2.45,0,0,1-1,.08c-.12,0-.2-.29-.37-.21-.13-.08,0-.21-.13-.38s-.17-.21-.21-.29a3.55,3.55,0,0,1,0-.67,1.53,1.53,0,0,1,0-.63.71.71,0,0,1,.12-.38,7.1,7.1,0,0,1-.08-1.3,5,5,0,0,1,.21-.76c0-.25,0-.59,0-.84a4.43,4.43,0,0,0,.17-.72,2.29,2.29,0,0,0-.09-.5c0-.38.13-.72.13-1a4.34,4.34,0,0,1-.13-.72,6.42,6.42,0,0,0-.12-1.51c-.51.13-.8.55-1.35.8a3.35,3.35,0,0,0-.55.25,1.62,1.62,0,0,1-1.09.09,4.42,4.42,0,0,1-.63.29,4.61,4.61,0,0,1-.8,0c-.17,0-.29.08-.42.08a1.3,1.3,0,0,0-.33-.08c-.13,0-.21.08-.34.12a1.76,1.76,0,0,0-.46,0,5.27,5.27,0,0,1-2-.12,7.71,7.71,0,0,1-1.34-.25,6.53,6.53,0,0,1-1.31-.21c-.12,0-.29,0-.38-.09s-.37-.21-.63-.29a5.64,5.64,0,0,1-1.26-.42c-.17,0-.12-.13-.12-.13s-.3,0-.42-.17-.42-.46-.72-.54l-.67-.43c-.13-.08-.17-.2-.3-.29a1.3,1.3,0,0,1-.33-.13,8.51,8.51,0,0,0-.59-.63L92.79,34a1.36,1.36,0,0,0-.46-.42,1.23,1.23,0,0,0-.46-.72,1,1,0,0,0-.05-.38c-.08-.21-.25-.37-.33-.63s0-.12,0-.21a6.38,6.38,0,0,0-.67-1.43c.17-.42-.21-.75-.29-1.17a6.75,6.75,0,0,1,0-1.68.81.81,0,0,0,0-.47,12.14,12.14,0,0,1,0-1.64,8.41,8.41,0,0,1,0-1.13,1.52,1.52,0,0,1,.29-.67c.08-.09.08-.17.13-.34S91,23,91,22.89c.17-.25.17-.63.47-.71-.13-.21.08-.42.16-.63a6.33,6.33,0,0,1,.3-.93c.17-.12.13-.21.13-.25l.29-.5c.17-.3.29-.76.63-.85,0-1.17.88-1.51,1.14-2.43.21-.05.33-.26.5-.38l.25-.21,1-.8a8.63,8.63,0,0,1,1.3-.84c.09,0,.17,0,.21,0l.09-.17a.93.93,0,0,0,.33,0L98,14a5.68,5.68,0,0,1,1.43-.25c.42,0,.8-.09,1.18-.09s.88,0,1.22,0a12.41,12.41,0,0,1,3.91,1c.25,0,.13.25.34.29a3.85,3.85,0,0,1,.67.09,2.27,2.27,0,0,1,.42.21,10.69,10.69,0,0,1,.84.76,7.72,7.72,0,0,1,1.39,1.3c.29,0,.08-.3.08-.38a5,5,0,0,0,.17-.76c0-.29,0-.67,0-1v-.43c0-.29,0-.21.12-.46.3-.46,1-.29,1.43.09.13,0,.21-.17.3-.17s.25.08.33.08c.26-.08.38-.21.59-.21s.38.09.55.09.42-.13.67-.13c0,0,.08.08.17.08a1.38,1.38,0,0,1,.55-.08c0,.21.12.38.16.55s0,.16,0,.21a.64.64,0,0,1,.21.33,13.87,13.87,0,0,1-.21,2.65c0,.55,0,1.05,0,1.56,0,.21-.09.42-.09.63,0,.42,0,.8,0,1.22s-.08.54-.08.67.13.34.13.55c.08,1,0,2.1,0,3.19a4.81,4.81,0,0,1,.12.76c0,.38,0,.75.13,1.34a3.17,3.17,0,0,0,.13.67c0,.17,0,.43,0,.55s-.17.25-.13.42a7.23,7.23,0,0,0,.17.8,11.44,11.44,0,0,1,.17,1.77c0,.92,0,2.31-.09,3.44,0,.47,0,.89,0,1.39a22.49,22.49,0,0,1-.21,3.24c0,.25-.12.46-.12.67s.16.55.16.88c.09.8-.16,1.81,0,2.32.09.33.3.42.55.67C115.36,44.79,115.49,45.38,115.2,45.63Zm-1.52-14c0-.67-.21-1.6-.21-2.19,0-.17.09-.29,0-.46s-.08-.21-.12-.34c0-.38,0-.71,0-1.09a6.83,6.83,0,0,0-.17-.88,2.45,2.45,0,0,1,0-.55,5.26,5.26,0,0,1-.09-1.81c0-.16,0-.54,0-.63a3,3,0,0,0,.09-.46,10.62,10.62,0,0,1-.17-1.64c0-.29.08-.55.08-.8s-.12-.75-.12-1.17c0-.22.08-.38.08-.59a6,6,0,0,1,0-1.22c0-.13,0-.17,0-.3a15.09,15.09,0,0,0,.17-2c-.59,0-1.39.21-2.1.21a7.17,7.17,0,0,1-.25,1.17c0,.17.08.42.08.68s-.13.46-.08.67.08.17.12.25c0,.25,0,.38,0,.5.25.76-.33,1-.71,1.14a2.68,2.68,0,0,1-.59-.5,3.7,3.7,0,0,1-.21-.76,1,1,0,0,1-.59-.13l-.08-.17c-.09,0-.21,0-.26,0-.25-.21-.33-.54-.54-.75a1.4,1.4,0,0,0-.38-.3c-.13-.12-.13-.08-.21-.12s-.13-.17-.21-.22-.13-.12-.21-.16l-.38-.34c-.08-.08-.17-.08-.25-.13a9.27,9.27,0,0,0-1-.42c-.13,0-.46,0-.72-.08a1.92,1.92,0,0,0-.29-.38c-.34.09-.34-.17-.55-.21a1.4,1.4,0,0,1-1-.29c-.42.21-.79-.09-1.21-.09a6.54,6.54,0,0,0-1.06.17l-.46.09c-.46,0-1,.16-1.3.21a1.05,1.05,0,0,1-.34.08c-.17.08-.17.29-.42.34-.71.12-1,.63-1.68.84a2.54,2.54,0,0,1-.59.71,1.54,1.54,0,0,1-.67.59,1.68,1.68,0,0,1-.21.63,9.57,9.57,0,0,1-.5,1.05l-.43.34c0,.29-.16.59-.21.75-.12.34-.33.68-.42.93l-.08.29a8.42,8.42,0,0,0-.5.84l-.09.3c-.08.25-.25.42-.33.67a2.45,2.45,0,0,0-.3,1.26c0,.38,0,.93,0,1.52,0,.21-.21.16-.21.37.25.42.08.93.17,1.39,0,.13.17.3.21.46a3.27,3.27,0,0,0,.54,1.52c.09.88.68,1.3.84,2.1a.89.89,0,0,1,.34.21s0,.17.08.21.22,0,.26.08l.59.55c.08,0,.16,0,.21.08.42.26.75.63,1.13.89.13.08.3.08.42.16s.09.13.13.13a6,6,0,0,0,1.47.59l.42.21.5.08a1.91,1.91,0,0,0,.51.13c.46.08,1,0,1.47.13a3.5,3.5,0,0,1,.63.12c.17,0,.42.21.59.21a2.9,2.9,0,0,0,.54,0c.22,0,.47,0,.68,0,.5,0,1,0,1.51,0,.25,0,.51-.13.8-.21a5.84,5.84,0,0,0,1.09-.21l.25-.09a4.32,4.32,0,0,0,.8-.5,2.55,2.55,0,0,1,.8-.55c.25-.34.51-1,1-1a.68.68,0,0,1,.55.3c0,.21.33.21.33.5a3.63,3.63,0,0,0,.09,1.26,3.17,3.17,0,0,1,0,.88,8.81,8.81,0,0,0,.12,1.18c-.08.46-.08.88-.12,1.14v.46a10.64,10.64,0,0,1-.13,2,3.37,3.37,0,0,1-.21,1.31,9.7,9.7,0,0,1,.17,2c.92-.21,1.93,0,2.77-.21a6.6,6.6,0,0,1,.09-1.55,2.56,2.56,0,0,0,0-.55c0-.42,0-.75,0-1.09a2.74,2.74,0,0,1-.09-.63l.17-.72c0-.16,0-.33,0-.5s0-.21,0-.38a2.07,2.07,0,0,0,0-.5,3.06,3.06,0,0,1,.17-.55c0-.17-.09-.38-.09-.59a9.23,9.23,0,0,0,0-1,6.72,6.72,0,0,0,0-2.23c.25-.21,0-.63.21-.88A3.55,3.55,0,0,1,113.68,31.68Zm-3.86-6.52c0,.51.21,1-.17,1.35-.05.46,0,.88-.09,1.43a8.31,8.31,0,0,1-.59,1.68,5.54,5.54,0,0,1-.29.8l-.13.42s-.12.08-.16.12,0,.21,0,.26-.26.21-.34.33-.13.34-.21.46l-.13.21-.08.3c-.17.13-.13.25-.21.38s-.21.17-.3.25a3.4,3.4,0,0,1-1.3.88l-.8.38a4.93,4.93,0,0,1-1.59.25c-.3,0-.59.17-.72-.17-.17,0-.21.43-.29.21-.42,0-.8.26-1.1,0-.33.21-.84-.08-1.26-.08-.12,0-.17.08-.29,0s-.13-.13-.25-.13a2.52,2.52,0,0,1-1-.08c-.13,0-.25-.17-.38-.21s-.29-.08-.42-.17a1.58,1.58,0,0,1-.59-.46.63.63,0,0,1-.33-.08c-.17-.3-.59-.34-.59-.76a4.68,4.68,0,0,1-.55-.3c-.13-.33-.5-.46-.46-1a5.4,5.4,0,0,1-.72-1.68,3.94,3.94,0,0,1-.16-.51,1.51,1.51,0,0,1-.13-.46c0-.17,0-.17,0-.29s-.29-.64-.08-.89c-.09-.25.17,0,.21,0,.21-.17-.13-.08,0-.21,0-.21-.21,0-.34,0s.13-.17.09-.29-.13-.09-.13-.13a11.7,11.7,0,0,1,0-2.44c0-.12,0-.17,0-.25s-.08-.17,0-.29a1.65,1.65,0,0,1,.13-.34,1.77,1.77,0,0,0,0-.46,1.48,1.48,0,0,0,.21-.26,2.75,2.75,0,0,1,.25-.54,1.16,1.16,0,0,1,.46-.55c0-.21.13-.21.09-.42.21-.13.42-.21.5-.5a1.57,1.57,0,0,0,.55-.47l.25-.25c.21-.21.5-.38.71-.63a1.58,1.58,0,0,0,.26-.17s0-.17.08-.21.17,0,.21-.08a1.51,1.51,0,0,1,.63-.3c.08-.08.21-.29.46-.29.09,0,.13-.17.21-.25a4,4,0,0,0,1.31-.46c.12,0,.25,0,.54,0a3.72,3.72,0,0,1,.89-.29c.12,0,.21,0,.33,0a2.72,2.72,0,0,0,.76-.12c.25,0,.55.12.8.12a2.62,2.62,0,0,1,.46-.12s.55,0,.71.08a4.6,4.6,0,0,1,1,.42c.3.08.63,0,.93.13l.25.16a4.69,4.69,0,0,1,.93,1.1c.42.29.67.75,1.09,1a2.58,2.58,0,0,0,.38,1c0,.21-.09.26-.09.38s.21.3.34.42c0,.42.21.93,0,1.31.21.25.13.46.13.88,0,.13,0,.29,0,.42S109.82,25,109.82,25.16Zm-1.43-1.81-.17-.25c0-.21,0-.33,0-.5s-.17-.21-.21-.34,0-.33,0-.46c-.25,0-.17-.38-.42-.42,0-.3-.21-.34-.17-.63-.3,0-.3-.3-.42-.46s-.3.08-.55,0c0-.72-.8-.63-1-1.18-.47.21-.8-.17-1.22-.21a.94.94,0,0,1-.21,0,4,4,0,0,1-.8-.08,11.16,11.16,0,0,0-1.52.29,2.44,2.44,0,0,1-.54,0c-.25.3-.59.3-1,.38a3.67,3.67,0,0,0-.46.3,1.43,1.43,0,0,1-.67.29,1.5,1.5,0,0,1-.76.55c0,.29-.34.33-.51.5a2.89,2.89,0,0,1-.5.55c-.46.08-.59.54-1,.67a3.82,3.82,0,0,1-.59,1.47c0,.09,0,.21-.08.25-.09.21-.21.34,0,.51a2.1,2.1,0,0,0,0,1.05c0,.46-.13.88-.13,1.3a4.9,4.9,0,0,0,.13.67c0,.26,0,.55,0,.76s.21.25.29.42a4.27,4.27,0,0,1,.17,1l.21.42c.13.25.21.67.3.8a4.47,4.47,0,0,0,.59.5,7.09,7.09,0,0,0,1,.76,4.19,4.19,0,0,0,1,.59,3,3,0,0,0,1.22.08c.13,0,.21.13.38.13a2.55,2.55,0,0,0,.55,0,4.28,4.28,0,0,0,2.18-.17,2.31,2.31,0,0,0,1.35-.17,3.25,3.25,0,0,0,1-.38,2.75,2.75,0,0,0,.55-.88l.08-.17a7.15,7.15,0,0,1,.51-.76l.12-.33.21-.34a5.49,5.49,0,0,0,.17-.8c.17-.33.26-.54.42-.58-.16-.34.13-.76.21-1.22a3.83,3.83,0,0,1,.26-1.22c-.13-.17,0-.47-.13-.63.21-.3,0-1,.21-1.35C108.34,23.86,108.43,23.61,108.39,23.35Z" transform="translate(0 -5.19)"/><path d="M143,16.59c0,.29.05.58.05.88,0,.5-.13,1.13-.17,1.81a4.47,4.47,0,0,1-.17,1.51,6.36,6.36,0,0,1,0,1.81c0,.21.08.42.08.63,0,0-.08.12-.08.25s.08.17,0,.29c0,.3-.17.51-.21.8a3.86,3.86,0,0,0,0,.68l-.17.67a18.09,18.09,0,0,1-.29,2.18c0,.09-.13.13-.17.26-.08.29-.12.67-.21,1l-.29,1c-.13.3-.26,1-.38,1.47a5,5,0,0,1-.21.55,4.86,4.86,0,0,1-.3.67l-.21.34c0,.13-.12.08-.12.13s0,.12-.09.21-.08,0-.12.12a9.9,9.9,0,0,0-.63,1l-.13.13a.93.93,0,0,0-.21.33,4.92,4.92,0,0,1-.92,1c-.17.17-.42.29-.63.46-.05,0,0,.17-.05.21s-.16,0-.21.09c-.21.17-.38.42-.59.5a1.36,1.36,0,0,1-.92.21,4,4,0,0,1-2.14.76,1,1,0,0,1-.47-.42c-.25,0-.33.25-.58.25s-.43-.13-.64-.13a2.05,2.05,0,0,1-1.26,0,2.28,2.28,0,0,1-.75-.08c-.13,0-.21-.08-.34-.13a1.93,1.93,0,0,0-1.09-.16c-.17-.26-.55-.26-.8-.42-.09,0-.17-.21-.25-.26s-.34-.12-.3-.29c-.12,0-.21-.13-.33-.21s-.3,0-.17-.3a.92.92,0,0,1-.55-.12c-.17-.09-.17-.34-.46-.3-.08-.21-.34-.21-.34-.46-.29,0-.38-.25-.59-.29-.21-.47-.67-.72-1.09-1.05a2.59,2.59,0,0,1-.5-.42,4.2,4.2,0,0,1-.47-.76l-.29-.25c-.08-.13-.08-.26-.17-.34s-.25-.13-.33-.25l-.09-.17a1.6,1.6,0,0,1-.38-.84,1.7,1.7,0,0,1-.33-.42c.12-.25-.13-.42-.17-.67-.13-.47-.08-1-.17-1.43a2.28,2.28,0,0,0-.34-.68c0-.21.13-.21.09-.42s-.21-.21-.3-.33a1.25,1.25,0,0,0-.21-1c.26-.59-.29-1.13-.12-1.68a1.57,1.57,0,0,0,0-.63,2.25,2.25,0,0,1,.08-.88c0-.17-.16-.38-.21-.59s.17-.8.17-1.18a2.74,2.74,0,0,1,0-.55c0-.16.17-.29.21-.46-.13-.63,0-1.09-.13-1.68,0-.25.26-.13.3-.25s-.13-.3-.13-.51a3.83,3.83,0,0,0,.38-1,2.8,2.8,0,0,1,0-.58c0-.17.13-.26.13-.42s0-.34,0-.59a.83.83,0,0,1,.25-.55,1.77,1.77,0,0,1,0-1.3c.29-.17.71-.13,1-.3.08.13.46,0,.46.21.08-.21.29,0,.42-.08s.34-.13.55-.13c.54,0,1.13.05,1.63,0a.78.78,0,0,1,.17.34,1.87,1.87,0,0,1,.26,1,23.36,23.36,0,0,1,0,2.9c0,.21.08.42.08.63a8.59,8.59,0,0,0-.08,1,2.42,2.42,0,0,0-.09.54,2.51,2.51,0,0,0,.13.43c0,.37,0,1,0,1.21-.08.47.13.89,0,1.27a4.79,4.79,0,0,1,.33,2.39,7.57,7.57,0,0,1,.21,1.18c0,.08-.08.21-.08.34s.13.29.13.46a6,6,0,0,0,0,1.76,4.67,4.67,0,0,0,.25.68,4,4,0,0,0,.25.67,1.54,1.54,0,0,0,.34.38,1,1,0,0,0,.25.33c.17.21.34.51.67.55,0,.21.13.34.17.5a6.41,6.41,0,0,1,.67.13c.13.21.38.29.47.5a.91.91,0,0,1,.67.26c.34-.13.63.17,1.09.17.17,0,.51-.13.67-.13a.64.64,0,0,0,.42,0,11.93,11.93,0,0,0,1.73-.5c.08-.09,0-.17.12-.21s.26-.09.34-.21,0-.13.08-.21c.22-.26.47-.51.68-.8a1.63,1.63,0,0,0,.38-.47,2.29,2.29,0,0,1,.46-.67,2.86,2.86,0,0,1,.5-1.26c0-.34,0-.63.21-.76-.08-.21.09-.33,0-.67.05-.17.21-.25.3-.46s0-.38.12-.46a4,4,0,0,1,0-2.23c0-.25.21-.46.21-.67s-.09-.3,0-.42.12-.34.16-.55-.08-.46-.08-.76.08-.38.08-.59a6.29,6.29,0,0,0-.12-.84c0-.21.08-.42.08-.67a6.78,6.78,0,0,0,0-.88c0-.21.08-.42.08-.67s0-.38,0-.55.21-.51.09-.8c0,0-.21-.13-.21-.21s.12-.17.08-.25a1.61,1.61,0,0,1-.21-.38s0-.25,0-.25.08-.13.08-.26a2.17,2.17,0,0,1-.13-.5s0-.08,0-.21-.09-.08,0-.17.09-.17.13-.29,0-.17.09-.25c.37-.42,1.51-.17,2.39-.3a1.39,1.39,0,0,1,.38-.12c.21-.05.38,0,.55,0,.33-.05.71-.3,1.09,0a1,1,0,0,1,1.34.08c.17.21.13.34.21.67a1.83,1.83,0,0,1,.05.72,7.12,7.12,0,0,0,.12,1C143.15,15.87,143,16.25,143,16.59Zm-1.72-2.27a23.57,23.57,0,0,0-2.9.42c-.13.46.17.92.21,1.43.09.71,0,1.8,0,2.48,0,.16-.08.33-.08.46a1.53,1.53,0,0,0,.13.5c0,.26,0,.51,0,.8a8.3,8.3,0,0,1,0,1,7.63,7.63,0,0,1-.3.92c0,.13.08.3.08.42s-.08.21-.21.42c.3.38.05,1,.05,1.56a19.13,19.13,0,0,1-.21,2.1c0,.17-.21.3-.3.46s.09.13.09.21a1,1,0,0,1-.3.51c.21.46-.21.67-.17,1.18-.37.58-.8,1.3-1.26,2a2.37,2.37,0,0,1-.42.63c-.12.09-.12.3-.21.38s-.29.25-.42.42l-.12.25c-.09.09-.09.13-.21.21s-.51.13-.76.26-.42.29-.67.33-.21-.21-.42-.21c-.05.21-.09.46-.34.46-.84.17-2.44.47-3.11-.16a1.46,1.46,0,0,1-1-.13,8.63,8.63,0,0,1-1.3-.84c-.13-.13-.17-.3-.3-.38a1,1,0,0,1-.58-.25.86.86,0,0,1-.26-.21,2.75,2.75,0,0,0-.42-.42,6.94,6.94,0,0,1-.54-.55,15.41,15.41,0,0,1-.76-1.68c-.08-.29,0-.55,0-.84a1,1,0,0,0-.13-.42c.13-.25,0-.34,0-.34v-.5c0-.17-.13-.25-.13-.34s.08-.25.08-.38a1.29,1.29,0,0,1-.12-.38,2.09,2.09,0,0,1,0-.5c-.09-.8-.17-1.43-.21-2.06a4.68,4.68,0,0,0-.21-1.09c.12-.09,0-.3.17-.38a3.55,3.55,0,0,1-.21-.55,3.31,3.31,0,0,0,0-.63c0-.21,0-.42,0-.63s.13-.29.17-.46-.21-.63-.21-.93.09-.37.09-.54a3.33,3.33,0,0,1,0-.63,1.39,1.39,0,0,1,.12-.38,3.94,3.94,0,0,0,0-1.05c0-.13.09-.17.09-.25s-.09-.26-.09-.34a7.32,7.32,0,0,0-.08-1.3,3.57,3.57,0,0,0-1.22.16,17.58,17.58,0,0,0-.63,3.12c-.25.29-.3.75-.51,1.09,0,.25.13.25.13.46s0,.46-.13.63c.21.42,0,.8,0,1.14,0,.08.09.12,0,.29,0,.42-.16,1-.21,1.47.09.17.09.38.17.55-.21.33-.08,1-.08,1.43,0,.17-.09.33-.09.54s.09.17.13.26c.21.54.13,1.22.29,1.72a2.33,2.33,0,0,1,.26.55,5.32,5.32,0,0,1,.12.8c.09.25.25.5.34.75a3.68,3.68,0,0,1,0,1.14c.13.25.51.21.38.63.25,0,.34.29.46.42a2,2,0,0,1,.8,1.3,4.75,4.75,0,0,1,1.14.72c.37.29.46.54.75.67a5.26,5.26,0,0,0,1.72,1.22,3.36,3.36,0,0,0,1.85,1.13s.09-.12.17-.08a.57.57,0,0,0,.38.21,13,13,0,0,0,2.73.21c.09,0,.17,0,.34,0s.21,0,.34,0a3.21,3.21,0,0,0,1.22-.13l.75-.25c.25-.08.38-.13.46-.25s.3-.09.34-.17,0-.17.08-.21.26-.17.34-.29a4.94,4.94,0,0,0,.76-.76c.17-.21.38-.34.42-.51s0-.25.17-.33.25-.13.33-.25a2.54,2.54,0,0,1,.34-.68,1,1,0,0,0,.29-.46l.13-.21a5.91,5.91,0,0,0,.46-1c.13-.33.17-.59.3-1a1.51,1.51,0,0,1,.12-.38,4.86,4.86,0,0,0,.25-1.17c.13,0,.09-.25.13-.34a.38.38,0,0,0,.13-.38c0-.12.12-.17.16-.29s-.08-.38-.08-.59l.17-.46c0-.25,0-.51,0-.68a.47.47,0,0,1,.17-.21c0-.16,0-.29,0-.42s.16-.33.21-.54a1,1,0,0,0,0-.59,1.21,1.21,0,0,1,.08-.29c0-.47,0-1.18,0-1.81,0-.17.13-.3.13-.47s0-.16,0-.29.12-.17.08-.25c-.13-.25-.21-.21-.21-.42s.21-.93.25-1.43c0-.09-.08-.13-.08-.21s.08-.13.08-.25v-.63a2.3,2.3,0,0,0,.09-1.06C141.13,16.38,141.56,15.24,141.26,14.32Z" transform="translate(0 -5.19)"/><path d="M153.87,9.1c0,.17-.21.3-.29.42l-.08.42a7.36,7.36,0,0,1-.42.85c-.26.08-.51.37-.76.46-.09,0-.21,0-.34.08a3.43,3.43,0,0,1-1.13.38,2.21,2.21,0,0,1-.55-.17l-.84-.08c-.21-.51-.67-.84-.84-1.43l-.38-.42c0-.42-.25-.8-.25-1.22a1.86,1.86,0,0,1,.17-.63l.12-.72c.05-.08.17-.08.21-.16s0-.13.09-.17.25-.09.33-.21,0-.17,0-.21a.5.5,0,0,0,.21-.34,3.84,3.84,0,0,1,.76-.59c.29-.21.76-.12,1.3-.17.21.47.84.51,1.14.93h.42c0,.13.08.13.17.21a2.94,2.94,0,0,1,1,1.3.49.49,0,0,1,0,.21A3.36,3.36,0,0,1,153.87,9.1Zm0,7.53c0,.25.12.46.12.71s-.17.84-.17,1.26a10,10,0,0,0,0,1.18c0,.21.08.25,0,.46-.34.72,0,2.11,0,3.07,0,.55-.21,1.1-.26,1.68-.12,1.22-.08,2.53-.21,3.7,0,.34,0,.68,0,1,0,.76-.17,1.47-.25,2.14,0,.51,0,1,0,1.43,0,.3,0,.51,0,.76a2.83,2.83,0,0,1,.13.63,1.46,1.46,0,0,1-.08.34.9.9,0,0,0,.08.25c0,.13-.08.21-.08.34s.08.21.08.29a2.54,2.54,0,0,0-.17.59,6.37,6.37,0,0,1,0,1.3A1.58,1.58,0,0,1,152,38c-.29-.09-.25-.55-.46-.76a2.19,2.19,0,0,1-1-.34,2.85,2.85,0,0,1-1-.08,5.07,5.07,0,0,1-1.05-.17s0-.21-.17-.17c-.17-.21-.09-.63-.3-.8a3.45,3.45,0,0,0,.21-.67c.09-.5-.08-1,0-1.51a1.69,1.69,0,0,1,.09-.46s.08-.09.08-.22a1.81,1.81,0,0,1,0-.67s.08-.08.08-.21-.08-.12-.08-.17.13-.08.17-.16-.09-.26-.09-.34c.13-.59.17-1.77.21-2.14s.05-.34.05-.63c0-.09-.05-.17-.05-.22a22.24,22.24,0,0,0,.13-2.48c0-.54.08-1,.08-1.55s-.12-1,.13-1.51a4.11,4.11,0,0,1,0-1.6c0-.42,0-.8,0-1.22a3.24,3.24,0,0,1,0-.88v-.3c0-.25.08-.5.08-.59s-.12-.37-.12-.54a2.52,2.52,0,0,0,0-.55c0-.08-.09-.13-.13-.21v-.21a2.37,2.37,0,0,1,0-.55c0-.29-.46-.25-.54-.46-.13-.42-.34-1,0-1.3.25-.13.5,0,.88,0a.49.49,0,0,0,.25.08c.05,0,.13-.08.21,0s.38.17.59.21c1.1.13,3.07-.38,3.49-.08.17.12.09.37.25.42A6.52,6.52,0,0,0,153.92,16.63Zm-1.85-9a.64.64,0,0,1-.55-.34c-.21-.08-.29,0-.46,0a1.88,1.88,0,0,0-.47-.51c-.46.21-.71.72-1.05,1.09A3.79,3.79,0,0,0,149.75,9a2.1,2.1,0,0,0,.47.71c.12.17.21.38.37.47a1.63,1.63,0,0,0,1.22-.3l.42-.29c.05,0,0-.17.13-.13,0-.54.38-.84.17-1.43A.94.94,0,0,1,152.07,7.59Zm.37,10.8c0-.12,0-.12,0-.21,0-.71-.08-1.43-.08-2.18-.13-.13-.25,0-.42,0s-.25-.17-.46-.17c-.21.17-.89.08-.89.34-.16.42,0,.84,0,1.22a.53.53,0,0,1-.09.25c0,.12.09.17.09.29,0,.55,0,1,0,1.35V20a11.16,11.16,0,0,0-.16,1.14c0,.33.12.59.12.88s-.17.34-.17.51a1.42,1.42,0,0,1,.05.46v.42c0,.8.08,2.06,0,3.11v.34c-.05.16-.13.25-.13.37s0,.17,0,.3a7.81,7.81,0,0,1-.08.92l-.17.63c0,.09.08.21.08.34a2,2,0,0,1-.25,1.09c.21.09.09.3.09.47a3.08,3.08,0,0,1,0,.63,4.91,4.91,0,0,0-.21.84,4.47,4.47,0,0,0,0,.71l.08,2a6.34,6.34,0,0,0,1.64.25,4.58,4.58,0,0,1,.09-1.09c0-.8-.38-2.27.12-2.9a1.12,1.12,0,0,1-.16-.72,3.22,3.22,0,0,1,.12-.5c.09-.46,0-1,.13-1.43,0-.17.12-.38.12-.55s-.08-.17,0-.29v-.93a2.57,2.57,0,0,1,.09-.29c0-.08-.13-.13-.13-.17s0-.21,0-.29,0-.26,0-.34a.46.46,0,0,1,.08-.21c0-.08,0-.17,0-.21a2.47,2.47,0,0,0,.13-.5c0-.26,0-.51,0-.72a11.61,11.61,0,0,0,.3-1.26c0-.17-.13-.38-.13-.55a22.56,22.56,0,0,1,.13-3A4.75,4.75,0,0,0,152.44,18.39Z" transform="translate(0 -5.19)"/><path d="M176.83,14.06c-.21.38-.46.68-.63,1l-.3.55-.5.67-.46.72a2.47,2.47,0,0,1-.72.88,3.27,3.27,0,0,1-.71,1.13,1.59,1.59,0,0,0-.26.26c-.25.33-.25.8-.63,1a8.76,8.76,0,0,1-1.3,2.27c-.42.75-.76,1.51-1.18,2.31-.25.25-.29.54-.5.84,0,.08-.17.12-.21.21a6.21,6.21,0,0,0-.55,1.13,4.67,4.67,0,0,0-.25.68s-.17.16-.21.29,0,.21,0,.34l-.3.59a4.79,4.79,0,0,1-.21.58l-.29.34-.21.42-.3.34c-.12.21-.12.33-.25.46l-.38.42s-.08,0-.12.13,0,.37-.09.58a3.09,3.09,0,0,0,1.73-.16c.16-.05.38,0,.59-.05l.67-.12c.21,0,.46,0,.67,0s.46-.17.72-.21l1.26-.09,1.3-.12c.59-.05,1.13,0,1.64-.05.17,0,.34-.12.46-.12s.21.12.42.17a.91.91,0,0,1,.38,0c.93.37.59.88.51,1.93,0,.13.08.25.08.38s-.17.25-.17.42c0,.5.09,1,0,1.55.47.21.89.47.89,1s-.59.55-.93.88c-.71,0-1.47.17-2.19.13-.92,0-2.05,0-2.81,0-.13,0-.13-.09-.21-.09-.25,0-.42.13-.67.13s-.47-.08-.68-.08-.38.12-.54.12-.51-.08-.76-.08a13.62,13.62,0,0,1-2.31,0,1,1,0,0,1-.34,0s-.08-.21-.12-.21-.17.12-.3.12a1,1,0,0,1-.8-.12c-.46.21-.88.08-1.34.21s-.34-.17-.46-.25c-.13.08-.22.25-.38.33a5.08,5.08,0,0,0-1.35,0c-.12,0-.34-.08-.46,0-.51,0-1,.17-1.52.17a4.46,4.46,0,0,0-1.09-.13c-.25-.21-.29-.63-.5-.88.08-.25.25-.34.33-.59a4.7,4.7,0,0,0,.3-.63c0-.08.13-.08.13-.17a1,1,0,0,1,.25-.54,4.18,4.18,0,0,1,.25-.55,1,1,0,0,0,.21-.21,5.41,5.41,0,0,1,.63-1c0-.17.13-.25.08-.5a4.63,4.63,0,0,0,.72-1.26l.21-.34s0-.13.08-.21.13-.13.21-.25l.13-.34c.08-.13.13-.38.21-.55s0-.16.08-.21a1.61,1.61,0,0,0,.34-.58l.42-.8c0-.09.17-.17.21-.26s0-.33.08-.42a5.28,5.28,0,0,0,.38-.54c.05-.13.21-.3.34-.55l.08-.17a3.19,3.19,0,0,1,.21-.42s.09,0,.13-.12a2.51,2.51,0,0,0,.13-.42,5.44,5.44,0,0,0,.29-.59,1.64,1.64,0,0,0,.29-.8,1.45,1.45,0,0,0,.34-.55l.38-.46c.12-.25.21-.59.33-.88a.28.28,0,0,1,.17,0c.05-.09,0-.22.05-.34l.16-.09c.05-.08,0-.21.05-.33a1.53,1.53,0,0,1,.63-.46c0-.3.21-.51.29-.76l.08-.25c0-.13.21-.26.26-.42s0-.17.08-.26c.34-.54,1-1.05,1.26-1.72.09-.17.3-.25.3-.46-.21-.21-.34,0-.51.12s-.13,0-.25.05a12.3,12.3,0,0,1-1.35.38,1.68,1.68,0,0,0-.5,0l-.59.16a3.55,3.55,0,0,1-.55.21c-.12,0-.29-.08-.42-.08a3.54,3.54,0,0,0-.63.13,14.69,14.69,0,0,1-2,.21,2.84,2.84,0,0,1-1.89-.3,3.38,3.38,0,0,1-.09-1c.13,0,0-.42.21-.33,0-.3-.33-.17-.25-.42a3.59,3.59,0,0,0,0-1.18c0-.46.13-.93.13-1.39,0-.25-.17-.5-.21-.76a1.1,1.1,0,0,1,1.17-.88c.47.3.51.55.89.63s.54-.08.92-.08c.13,0,.13,0,.21,0,.38,0,1-.17,1.35.25a4.12,4.12,0,0,1,.63-.25,1.39,1.39,0,0,1,.54.08c.09,0,.26-.08.38-.08a3.12,3.12,0,0,0,.88,0,6.15,6.15,0,0,0,1.43-.25,4.81,4.81,0,0,0,.76,0c.25,0,.5-.08.76-.08s.29.08.42,0,.33-.09.54-.09a8.5,8.5,0,0,1,1,0,10.28,10.28,0,0,0,1.22-.12,1,1,0,0,1,.76.17c.17-.26.46,0,.71,0,.09,0,.17-.09.3-.05s.12.13.25.13.25,0,.34,0,.33.17.46.21.46-.08.71-.08a1.68,1.68,0,0,1,.93.25A1.06,1.06,0,0,1,176.83,14.06Zm-2.4-.5c-.17,0-.38-.17-.59-.21a7.84,7.84,0,0,0-1.34,0c-.63,0-1.39,0-2.06,0-.42,0-1.14.21-1.47.17-.05,0-.13-.09-.3-.09a1.56,1.56,0,0,0-.38.13,14.82,14.82,0,0,0-1.59.25c-.13-.17-.42-.21-.68-.29s-.12.33-.46.25a28,28,0,0,0-3.78,0,5.36,5.36,0,0,0,0,2.61,12.14,12.14,0,0,0,2.77-.05l.46-.08c.26,0,.68-.17.85-.17s.16.09.25.09.17-.13.29-.13a3.73,3.73,0,0,1,1.14-.21c.12-.17.38-.17.63-.25a4.55,4.55,0,0,0,.67-.25,5.1,5.1,0,0,1,1.18,0,3,3,0,0,1,.8-.13.89.89,0,0,1,.79.76c0,.5-.33.67-.63.92l-.75.8c-.21.17-.3.46-.55.55,0,.25-.13.33-.17.54-.33.21-.5.68-.84.93-.08.59-.5.88-.71,1.39a.56.56,0,0,1-.38.29,11.17,11.17,0,0,1-1.14,2.14l-.58,1.06-.09.33c-.12.13-.08.21-.12.3l-.22.16c0,.09,0,.34-.21.3.05.21-.08.33-.12.55s-.09.42-.17.58-.17.13-.21.21,0,.26-.08.34a.5.5,0,0,1-.21.17c-.17.29-.26.59-.42.84s-.26.34-.34.5,0,.26-.09.34-.16.13-.2.21l-.55,1.13c-.13.22-.17.43-.38.55,0,.34-.21.38-.13.76-.42.21-.37.92-.79,1.13a2,2,0,0,1-.3.8l-.25.34c-.13.17-.13.38-.34.38,0,.29-.25.5-.29.63l-.09.25-.33.88c.46,0,1.13-.29,1.47,0,.34-.29.8,0,1.13,0s.76-.17,1.1-.17c.17,0,.33.08.5.08s.34-.16.34-.12c.63,0,1,.08,1.47.08a2.74,2.74,0,0,1,.55,0c.25,0,.37.13.63.13s.42,0,.67,0c.76,0,1.55,0,2.31,0a3.2,3.2,0,0,1,.59,0,1.47,1.47,0,0,0,.46-.13c.21,0,.38.08.55.08.38,0,.8-.08,1.18-.08.08,0,.08.13.12.13s.17,0,.25,0c.26,0,.42-.08.63-.08s.38.08.55.08.25-.08.46-.12c-.12-.76.09-2.06,0-3-.21-.17-.63-.08-.84-.29a7.69,7.69,0,0,1-1.76.25c-.21,0-.47-.13-.68-.08s-.63.25-1,.25c-.17,0-.13-.17-.17-.21-.21.08-.38.25-.63.34a9.48,9.48,0,0,1-1.1.08c-.12,0-.21.13-.33.13l-.46.08-.85.17a19.24,19.24,0,0,1-2.77.33c-.17-.37-.42-.58-.38-.92s.09-.25.21-.42a6.86,6.86,0,0,0,.63-1.43c.13,0,.09-.25.34-.17,0-.33.29-.55.42-.8l.21-.42a1.26,1.26,0,0,0,.29-.42,11.7,11.7,0,0,0,.8-1.72c.17-.46.42-.93.55-1.26l.08-.3.13-.21c.21-.33.46-.84.63-1.05s.34-.33.42-.46c.17-.29.25-.67.38-.88s.08-.09.12-.21a5.76,5.76,0,0,0,.38-.68,1.17,1.17,0,0,1,.42-.46c0-.12,0-.33.21-.38-.08-.29.3-.08.26-.33a4,4,0,0,1,.71-1.68,3,3,0,0,1,.38-.59c0-.09.17-.13.25-.21a2.59,2.59,0,0,1,.63-1.22l.51-.59.08-.21.21-.13.21-.42c.17-.29.25-.54.42-.8l.25-.37.25-.43s.13-.08.17-.12,0-.17.09-.25c.17-.3.46-.47.5-.84A1.45,1.45,0,0,0,174.43,13.56Z" transform="translate(0 -5.19)"/></g><circle class="cls-2" cx="192.55" cy="33.71" r="4.21"/><circle class="cls-2" cx="192.55" cy="7.13" r="4.21"/><circle cx="192.55" cy="20.38" r="1.72"/><circle class="cls-2" cx="192.55" cy="20.38" r="4.21"/></g></g></svg>