<svg xmlns="http://www.w3.org/2000/svg" viewBox="0 0 300.05 232.73"><defs><style>.cls-1{fill:#222;stroke:#fff;stroke-miterlimit:10;stroke-width:4px;}.cls-2{fill:#fff;}</style></defs><g id="Layer_2" data-name="Layer 2"><g id="Layer_1-2" data-name="Layer 1"><polyline class="cls-1" points="35.28 59.33 50.74 2.5 296.65 75.58 175.18 229.65 4.32 63.73 268.01 26.2 118.88 229.65 17.16 125.95 27.86 86.6"/><path class="cls-2" d="M77,96.4h-6.6c-.7,0-.7,0-.7-.71V70.26a2.91,2.91,0,0,1,0-.66c0-.3-.15-.4-.46-.4H59.9c-.31,0-.41-.15-.41-.4V63.41c0-.81,0-.81.81-.81H87.15c.4-.05.55.1.55.5,0,1.82,0,3.68,0,5.54,0,.46-.2.56-.55.56-1.06,0-2.07,0-3.08,0H78.53c-1.11,0-1-.1-1,1V95.79C77.53,96.35,77.53,96.4,77,96.4ZM65.74,67.33c-.1,0-.2,0-.2.06s0,.25.15.25.15,0,.2,0S65.84,67.33,65.74,67.33Zm.3-3.27c-.05.2.1.25.25.3s.26-.1.2-.2,0-.35-.2-.35A.27.27,0,0,0,66,64.06Zm.81,3.12a.6.6,0,0,0,0,.91C67,67.79,67.25,67.49,66.85,67.18Zm3.17.71a1.26,1.26,0,0,1,0-.86.75.75,0,0,0,0-.9c-.1-.26-.25-.46,0-.76s0-.35-.25-.35a.69.69,0,0,0-.5.4c-.11.3-.06.66.25.76s.3.4.2.7a2.25,2.25,0,0,0,0,1.51A.47.47,0,0,0,70,67.89ZM71.48,80c-.1.35-.1.65.15.75s.51-.2.76-.4C72,80.28,71.78,80.13,71.48,80Zm.3-8.26a.37.37,0,0,0,.2.4.22.22,0,0,0,.16-.15.26.26,0,0,0-.16-.35C71.88,71.67,71.78,71.72,71.78,71.77Zm.41,15.76a.33.33,0,0,0,0,.46,7.17,7.17,0,0,1,.7,1.56c.35-.3.25-.56.1-.86a1.93,1.93,0,0,1-.2-1.51c.05-.1,0-.3-.25-.45C72.39,87,72.49,87.33,72.19,87.53Zm0-18.13a.23.23,0,0,0,.15.15s.15-.1.2-.15a.83.83,0,0,0-.2-.81A.72.72,0,0,0,72.19,69.4Zm.45,16.32c-.1,0-.15.1-.2.2s0,.25.15.25.15-.1.15-.15S72.74,85.77,72.64,85.72Zm0,5.09s.1,0,.15,0a.47.47,0,0,0,0-.61l-.1,0C72.64,90.35,72.49,90.56,72.64,90.81Zm.15-22.57c0,.1,0,.2.2.15s.2-.15.2-.2c-.1-.45-.3-.86,0-1.26.05-.05-.1-.25-.25-.3s-.2.1-.25.2-.1.35-.15.61C72.74,67.64,72.69,67.94,72.79,68.24Zm.76,6.15c-.36-.21-.56-.15-.66.25,0,.1-.1.2-.1.3s0,.2,0,.2a.14.14,0,0,0,.25,0c.15-.3.56-.25.76-.5C73.8,74.44,73.65,74.44,73.55,74.39Zm-.66,18.28c.1.4-.1.81.1,1.21.05.1.05.35.3.3a.44.44,0,0,0,.21-.4c-.1-.4-.26-.76-.36-1.16A.54.54,0,0,1,72.89,92.67Zm.81-23a.48.48,0,0,0-.1-.6c0-.1-.15,0-.25,0-.26.1-.31.3-.31.55a2.19,2.19,0,0,0,.31,1.06C73.5,70.21,73.45,69.9,73.7,69.65Zm-.25,6.15c-.1,0-.21.1-.21.25s.11.3.31.3a.18.18,0,0,0,.2-.2C73.65,76.05,73.6,75.85,73.45,75.8Zm0-4.44a1.4,1.4,0,0,0,.2,1.16C73.9,71.82,73.9,71.72,73.45,71.36Zm.5,1.82c0-.2,0-.35-.2-.35s-.15.1-.15.2.05.25.15.35S74,73.28,74,73.18Zm0-9.67a.81.81,0,0,0,0,.75C74.2,63.76,74.2,63.76,73.9,63.51ZM74,92c0,.1,0,.2.15.25s.1,0,.15-.15,0-.21-.15-.26A.16.16,0,0,0,74,92Zm.25-1.77c0-.15,0-.45-.1-.35-.3.2,0,.55-.05.86C74.25,90.56,74.15,90.35,74.25,90.2Zm0-1.31a.13.13,0,0,0,.15-.15c.05-.1,0-.25-.1-.25s-.2,0-.2.1A.24.24,0,0,0,74.2,88.89Zm.1-6.14c0,.65.4,1.21.25,1.91a1.72,1.72,0,0,1-.25.71c-.1.15,0,.25,0,.3s.2,0,.25-.1.05-.15.1-.2a6.94,6.94,0,0,0-.4-4.08c0-.05,0-.1-.15-.05A7.81,7.81,0,0,0,74.3,82.75Zm.15-14.31c-.1,0-.2,0-.25.1s0,.2.15.2.2,0,.2-.15S74.5,68.49,74.45,68.44Zm0,11.18c-.2.46-.2.46,0,1C74.55,80.18,74.6,79.93,74.4,79.62Zm.2-10.17c0,.15.1.15.21.15a.18.18,0,0,0,.2-.2c-.05-.05-.05-.15-.15-.1S74.6,69.3,74.6,69.45Zm1.16.1c-.4.45-.35.5,0,.86,0,.1.1.15,0,.2s-.1.2-.2.1-.35,0-.35.2,0,.4.3.25.66.15,1,0c-.55-.7-.35-1.56-.61-2.42C75.71,69.05,76,69.3,75.76,69.55ZM76,92.42a.09.09,0,0,0,.15,0,.43.43,0,0,0,0-.66C75.81,92,75.76,92.17,76,92.42Zm.05,1c-.1,0-.15.1-.15.2s0,.25.15.25.21-.1.21-.25A.22.22,0,0,0,76,93.43Zm.91-26.95s.1,0,.15,0,0-.3-.25-.51C76.77,66.18,76.67,66.33,76.92,66.48Zm.15-1.71c0-.26.3-.56-.15-.86,0,.6-.3,1.11-.1,1.76C77.17,65.37,77.07,65.07,77.07,64.77Zm.71,3.42c0,.1.1.1.2.1s.2-.05.15-.1c-.1-.3.1-.55-.15-.91A1.28,1.28,0,0,0,77.78,68.19Zm2.37-3.32s0,.15,0,.2c.51-.35.51-.35-.15-.86A5.61,5.61,0,0,0,80.15,64.87Zm.8,1.66c-.1,0-.2-.25-.3,0a.25.25,0,0,0,0,.35c.15,0,.25.1.35,0A.18.18,0,0,0,81,66.53Zm2.22-2.62a.43.43,0,0,0-.15-.3.34.34,0,0,0-.56,0,.72.72,0,0,0,0,.55c.15.25,0,.45,0,.71-.15.45-.35.95,0,1.41a.81.81,0,0,1,.15.75,5.69,5.69,0,0,0-.1.86.32.32,0,0,0,.2.4.39.39,0,0,0,.41-.25,2.36,2.36,0,0,0,.3-1.51C83.47,65.62,83.07,64.77,83.17,63.91Zm1.31.35a.18.18,0,0,1-.15-.05c-.36,0-.31.15-.31.35s.1.26.15.36A1.28,1.28,0,0,1,84.53,66v.7c0,.1,0,.25.15.25s.25-.1.25-.25c0-.65.1-1.31.2-2.17C85.13,64.16,85.08,64.11,84.48,64.26Z"/><path class="cls-2" d="M90.22,72.12A13.18,13.18,0,0,1,93,66.23a10.4,10.4,0,0,1,4.79-3.08,21.83,21.83,0,0,1,4.43-.95,33.68,33.68,0,0,1,5.94-.1,19.53,19.53,0,0,1,6.1,1.26,10.13,10.13,0,0,1,6,5.79,20.17,20.17,0,0,1,1.46,6.45c.1,1.61.1,3.22,0,4.83A22.94,22.94,0,0,1,119.89,90a11.13,11.13,0,0,1-6.6,6.1A19.67,19.67,0,0,1,108,97c-.71,0-1.41.1-2.12.1a26.62,26.62,0,0,1-6.29-.65,11.07,11.07,0,0,1-7.66-5.79,20.64,20.64,0,0,1-1.71-5.39,34.87,34.87,0,0,1-.45-6.55A24.71,24.71,0,0,1,90.22,72.12Zm4.13,12.54c.05,0,0-.2-.1-.25a3.38,3.38,0,0,1-.5-1.66,2,2,0,0,0-.46-1.26,2.89,2.89,0,0,1-.4-2.37,3.27,3.27,0,0,0-.1-1.56,1.67,1.67,0,0,1,0-.86,3.13,3.13,0,0,0,.1-1.91,3,3,0,0,1-.1-1.76c0-.2,0-.46.25-.61a.34.34,0,0,0,0-.5,1.78,1.78,0,0,1-.15-.71A4.41,4.41,0,0,1,92.69,69a.45.45,0,0,0-.1-.21c-.1,0-.15,0-.2.06-.31.2-.56,1.56-.31,1.76.76.6.56,1.31.41,2.06a5.22,5.22,0,0,0-.16,1.51c.26,1.47-.55,3,.11,4.49,0,.1,0,.25,0,.4a5.76,5.76,0,0,0,.65,2.87,2.84,2.84,0,0,1,.35,1.31c0,.61.21,1.21.25,1.81a1.38,1.38,0,0,0,.76.91C94.4,85.47,94.2,85.06,94.35,84.66Zm-.86-4.53c.16.05.26-.1.26-.25a.25.25,0,0,0-.26-.26.18.18,0,0,0-.2.16C93.29,80,93.39,80.13,93.49,80.13Zm.51-2a2,2,0,0,0,.1,1.62c.05.15.1.3.3.25a.31.31,0,0,0,.2-.41,1.21,1.21,0,0,1,.05-1.1A.39.39,0,0,0,94.3,78,.34.34,0,0,0,94,78.16Zm.5-10.27a.32.32,0,0,0,.3.25.28.28,0,0,0,.2-.35c-.1-.46-.2-.91-.3-1.31,0-.15-.2-.3-.35-.2s-.15.2-.1.45S94.4,67.49,94.5,67.89Zm0,13.25c-.2,0-.2.15-.2.25a.27.27,0,0,0,.3.3c.15,0,.2-.15.15-.3A.24.24,0,0,0,94.45,81.14Zm.91,7.15c-.1-.1-.2-.2-.36-.1a.14.14,0,0,0,0,.25c.21.2.16.5.51.76A1.35,1.35,0,0,0,95.36,88.29ZM95.26,75c.2,0,.25-.15.25-.35s-.05-.45-.3-.45-.15.2-.15.35S95.06,75,95.26,75Zm.45,14.86c.05,0,.1-.1.1-.15s0-.3-.15-.3-.1.15-.15.25S95.56,90,95.71,89.9Zm-.15-22.62s0,.16.15.11.1-.11.1-.16c0-.2,0-.35-.2-.45A.57.57,0,0,0,95.56,67.28Zm1,.16a.21.21,0,0,0,.2.2.27.27,0,0,0,.15-.25,2.79,2.79,0,0,0-.56-1.57C96.41,66.43,96.57,66.93,96.57,67.44Zm0,5.23a.19.19,0,0,0-.21.21.27.27,0,0,0,.16.25c.15,0,.15-.1.2-.2S96.67,72.72,96.57,72.67Zm-.21,2.47s0,.15.11.15.2-.05.2-.15,0-.15-.1-.15S96.36,75,96.36,75.14Zm.86,14.61c0-.2-.15-.3-.35-.3a.27.27,0,0,0-.2.3,2.2,2.2,0,0,0,.4,1.06A3,3,0,0,0,97.22,89.75Zm-.25-21A1.46,1.46,0,0,0,97.22,70,1.51,1.51,0,0,0,97,68.74Zm.15,16.93c-.05,0-.1.1-.1.15s0,.15.15.1,0,0,.1-.1A.16.16,0,0,0,97.12,85.67Zm4.53-16.42a5.31,5.31,0,0,0-3.37,3.12,17.77,17.77,0,0,0-.91,6.7,27.85,27.85,0,0,0,.2,3.53,16.17,16.17,0,0,0,1.06,4.28,5.7,5.7,0,0,0,2.92,2.92,9.14,9.14,0,0,0,3.23.7,10.87,10.87,0,0,0,4.78-.6A5.79,5.79,0,0,0,113,86.37c.9-2.26.9-4.68,1.1-7.1a21.94,21.94,0,0,0-.2-3.73,13.73,13.73,0,0,0-.65-2.82,5.46,5.46,0,0,0-3.43-3.47,12,12,0,0,0-3.93-.66A11.35,11.35,0,0,0,101.65,69.25ZM98.08,93a7.62,7.62,0,0,1-.1-1.51v-.05a.32.32,0,0,0-.31-.25.27.27,0,0,0-.15.25,12.34,12.34,0,0,0,0,1.36.7.7,0,0,0,.36.56A.32.32,0,0,0,98.08,93Zm1.61.91a.85.85,0,0,0,0-.35c.05-.36,0-.56-.2-.41s-.15.56-.15.81a.3.3,0,0,0,.15.3C99.74,94.23,99.69,94.08,99.69,93.93Zm.25-27.2a.38.38,0,0,0-.3.4c0,.15.1.31.3.36s.3-.21.35-.41S100.19,66.73,99.94,66.73Zm1.71,25.44a.28.28,0,0,0-.25.4c0,.2,0,.5.25.5s.15-.3.21-.45S101.9,92.17,101.65,92.17Zm0,2.26c-.05-.05-.15,0-.15,0-.2.31,0,.56.1.86.05,0,.1.15.15.2s.15.05.21.05a.46.46,0,0,0,.2-.3A2.52,2.52,0,0,0,101.65,94.43Zm.56-3.42c-.31,0-.31.25-.35.45s0,.35.25.35.3-.25.3-.4S102.41,91.06,102.21,91Zm.5-26.7c0-.1-.2-.2-.3-.1s-.1.15-.1.25a10.89,10.89,0,0,1,.35,1.16c0,.1.1.25.25.25s.2-.25.2-.4A2.52,2.52,0,0,0,102.71,64.31Zm1.46,27.2c0-.05-.15-.15-.2-.1s-.15.15-.15.2c.05.3.1.66.15,1a.27.27,0,0,0,.25.15c.15,0,.15-.1.2-.25v-.35C104.47,91.91,104.27,91.71,104.17,91.51Zm.35,3c0-.1-.1-.15-.2-.1a.11.11,0,0,0-.1.1,5,5,0,0,1-.25,1.26c0,.2,0,.36.3.41s.3-.16.3-.36a1.88,1.88,0,0,1,.06-1A.31.31,0,0,0,104.52,94.48Zm3.63-29.66c0-.31-.1-.56-.4-.61a.2.2,0,0,0-.2.3c0,.26,0,.56.35.66A.38.38,0,0,0,108.15,64.82Zm.4,2.26a1.44,1.44,0,0,0-.45-1c0-.16-.25-.11-.35,0s-.15.2-.1.25c.45.4.15.75-.05,1.11C108.3,67.59,108.5,67.49,108.55,67.08Zm.26,26.25c-.11,0-.16,0-.16.15a.19.19,0,0,0,.21.2s0-.1.1-.15S108.86,93.33,108.81,93.33Zm1,2.46c.26,0,.15-.25.15-.4s.06-.2.06-.3.2-.3-.06-.35-.2.15-.25.3a1,1,0,0,0-.05.4C109.66,95.59,109.66,95.79,109.86,95.79Zm5-30.62a3.14,3.14,0,0,0,.4,2.06A2.63,2.63,0,0,0,114.9,65.17Zm.86,6.65a.54.54,0,0,1,0,.25,9.58,9.58,0,0,0-.15,2.72,1.66,1.66,0,0,0,.6,1.56.33.33,0,0,0,.2-.35c0-.61-.2-1.21-.15-1.87.1-1.2-.4-2.36-.15-3.57,0-.2-.1-.4-.25-.61A2.62,2.62,0,0,0,115.76,71.82Zm3.42,2a.32.32,0,0,0-.3.25.19.19,0,0,0,.2.21.42.42,0,0,0,.25-.26C119.33,73.93,119.23,73.88,119.18,73.83Zm.1-2.11c-.15,0-.3,0-.3.2s.15.4.4.4.36,0,.41-.3S119.48,71.77,119.28,71.72Z"/><path class="cls-2" d="M134.54,96.45H128.4c-.81,0-.76,0-.76-.76V63.05c0-.3.1-.4.41-.4h11a45.22,45.22,0,0,1,6.39.4,12.47,12.47,0,0,1,6.4,2.62A9.14,9.14,0,0,1,155,71.31a21.49,21.49,0,0,1,.26,5.7,10,10,0,0,1-7,9.57,25,25,0,0,1-6.6,1c-2,.1-3.88.05-5.8.05-.7,0-.7,0-.7.76v7.3C135.25,96.45,135.25,96.45,134.54,96.45Zm-5.28-9s-.11.1-.11.15a.35.35,0,0,0,.31.26c.1,0,.15-.11.1-.21S129.46,87.38,129.26,87.48Zm.1-7.3c-.1,0-.21.1-.15.2a.38.38,0,0,0,.45.1.18.18,0,0,0,.2-.2C129.76,80.13,129.56,80.13,129.36,80.18Zm.95,3.78c-.1,0-.2,0-.15.15s.1.1.15.1.15,0,.15-.15S130.36,84,130.31,84Zm1,5a.34.34,0,0,0-.25-.4c-.2-.05-.25.1-.25.25s-.1.46.15.66C131.07,89.25,131.17,89.09,131.27,88.94Zm-.1-20c-.35,0-.35.35-.4.6a.28.28,0,0,0,.3.35c.3-.05.4-.25.45-.55S131.37,68.9,131.17,69ZM131,90.1c-.15,0-.2.15-.2.25a.33.33,0,0,0,.25.31c.15,0,.2-.16.2-.31S131.17,90.05,131,90.1Zm0-5.59a.5.5,0,0,0-.15,0,.23.23,0,0,0,.15.25c.05,0,.15,0,.15-.1S131.07,84.51,131,84.51ZM133,79.37a5.93,5.93,0,0,0,.2-3.12.88.88,0,0,1,0-.71.45.45,0,0,0-.15-.5.26.26,0,0,0-.4-.05c-.2.15-.05.25,0,.35a.41.41,0,0,1,.15.56,1.39,1.39,0,0,0,0,1,2.1,2.1,0,0,1-.05,1.25,1.38,1.38,0,0,0,.1,1.26A.39.39,0,0,1,133,79.37Zm-.15,10.28a.13.13,0,0,0-.15.15c0,.1.1.15.2.15s.15,0,.15-.1S133,89.7,132.88,89.65Zm-.1-8.61c.05.15.1.35.3.35s.15-.2.15-.35a1.23,1.23,0,0,0-.35-1.16A3.2,3.2,0,0,0,132.78,81Zm.3,2a1.55,1.55,0,0,0-.05-1.06C132.68,82.45,132.68,82.55,133.08,83Zm.76,6.6c.25-.35.3-.61,0-.91A1.41,1.41,0,0,0,133.84,89.6Zm.6,1.16c0-.15,0-.36-.2-.41s-.25.1-.3.26c-.15.4-.35.85.25,1.25C134.29,91.46,134.34,91.11,134.44,90.76Zm1.46-9.47c2.07-.05,4.13,0,6.2-.1a6.54,6.54,0,0,0,2.62-.66A4.31,4.31,0,0,0,147,78.06a10.62,10.62,0,0,0,.5-2.52,7.1,7.1,0,0,0-.45-3.37,3.54,3.54,0,0,0-1.67-1.86,7.84,7.84,0,0,0-3.52-1.06c-2-.1-4,0-6,0-.65,0-.65,0-.65.6V80.58C135.25,81.24,135.25,81.29,135.9,81.29Zm0-17.48c0,.1,0,.2.16.2s.1-.1.1-.15a.22.22,0,0,0-.21-.2C135.85,63.66,135.85,63.76,135.9,63.81Zm.36,2.27c-.36.4-.15.65.05.9A1.41,1.41,0,0,0,136.26,66.08Zm1.21-1.36c.15-.31-.05-.61-.21-.91,0-.1-.15-.25-.3-.15s-.1.2-.05.3.3.45.15.6c-.4.51.1.71.3,1C137.42,65.27,137.26,65,137.47,64.72Zm-.11,2a.15.15,0,0,0-.2-.1c-.15,0-.2.15-.15.25a2.14,2.14,0,0,1,.25.81s.1.1.16.1.2-.1.2-.3A7.71,7.71,0,0,0,137.36,66.68Zm2.12-2.32a.29.29,0,0,0,.2.31c.1,0,.15-.11.15-.21a.3.3,0,0,0-.15-.3A.22.22,0,0,0,139.48,64.36Zm.71,21.41a.17.17,0,0,0-.05.1c0,.1.05.2.15.2s.1-.1.1-.15S140.34,85.72,140.19,85.77Zm.5-20.85c.05.15.15.25.3.2s.2-.15.2-.25a1.61,1.61,0,0,0-.5-1C140.44,64.36,140.69,64.61,140.69,64.92Zm.35,20.3a.27.27,0,0,0,.25.15,1.44,1.44,0,0,0,.21-.25c.1-.31-.06-.46-.71-.41A3.92,3.92,0,0,1,141,85.22Zm.05-2.32c-.05.1-.05.2,0,.2s.2,0,.2-.1a.38.38,0,0,0-.1-.2C141.14,82.8,141.09,82.85,141.09,82.9Zm2.47,1.46a2.34,2.34,0,0,1-.05-1c.05,0,0-.15-.1-.2s-.15,0-.2.1c-.15.2-.15.66-.56.51s-.15-.51-.15-.76-.1-.25-.25-.25-.3.1-.25.3.2.4.1.6c-.15.46.1.61.45.76s.56.2.66.55C143.31,84.71,143.61,84.61,143.56,84.36Zm-.91-19a.19.19,0,0,0,.21.2c.1,0,.15-.1.1-.15s-.05-.2-.21-.2S142.6,65.27,142.65,65.32Zm.61,2.12a.29.29,0,0,0-.3.3c0,.1,0,.25.15.25s.25-.2.3-.35S143.36,67.44,143.26,67.44Zm1-.91c-.06,0-.16.1-.11.15a.54.54,0,0,0,.46.45c.1,0,.15,0,.1-.25A.44.44,0,0,0,144.22,66.53Zm.5-.66c0,.21.15.31.35.21s.4-.16.25-.36,0-.6-.25-.9A.92.92,0,0,0,144.72,65.87Zm.2,2.32c-.15,0-.2.1-.2.2s.1.2.2.15.15-.05.15-.1S145,68.19,144.92,68.19Zm1-1.76c.15.1.35,0,.35-.15a1.56,1.56,0,0,1,.2-1.06c0-.1,0-.2-.15-.25a.15.15,0,0,0-.2.15c0,.4-.35.5-.66.75C145.68,66.08,145.78,66.28,145.93,66.43Zm.1,1.06c-.1.35.1.6.2,1C146.58,67.89,146.58,67.89,146,67.49Zm.25,15.91c.3.41.05.81.1,1.26.25-.1.35-.25.35-.4-.1-.4.21-.81.05-1.21a1.24,1.24,0,0,0-.65-.76A2.07,2.07,0,0,0,146.28,83.4Zm.4-3a.66.66,0,0,0,1-.05A1.25,1.25,0,0,0,146.68,80.43ZM148.3,72c-.26-.86-.16-1.76-.36-2.62a.94.94,0,0,1,.1-.81.94.94,0,0,0-.1-1,2,2,0,0,1-.15-1.21c.05-.61-.2-1.21-.2-1.87,0-.15-.15-.2-.3-.15s-.15.1-.15.2a7.6,7.6,0,0,0,.05,1.52,18.7,18.7,0,0,1,.4,3.32c0,.35-.15.6-.1,1a11.36,11.36,0,0,0,.7,2.21C148.45,72.42,148.35,72.22,148.3,72Zm.55,10.38c.3,0,.55,0,.6.35s-.1.45-.35.55-.2.15-.2.3c-.05.36-.1.71-.15,1.11,0,.2-.05.51.25.61s.55-.31.55-.61a1.18,1.18,0,0,0-.1-.4c0-.2,0-.4.1-.5.56-.51.36-1.11.26-1.72s-.26-1.11-.26-1.71a5.51,5.51,0,0,0-.45-2.22c-.1-.2-.2-.3-.4-.2s-.1.2,0,.36.05.45-.3.4-.46.1-.36.45c.1.15.1.35.31.45.2-.05.25-.45.55-.3s0,.46.1.66c.15.45-.1,1,.15,1.41s0,.75-.35,1Zm-.15-5a5.53,5.53,0,0,0-.3-3.93C148.65,74.69,148.14,76,148.7,77.36Zm.75-10.83a.23.23,0,0,0-.2.25.29.29,0,0,0,.3.3c.16,0,.16-.1.16-.15A.32.32,0,0,0,149.45,66.53Zm.31,5.09a.24.24,0,0,0-.26.25.28.28,0,0,0,.26.25c.15,0,.2-.05.2-.2A.27.27,0,0,0,149.76,71.62Zm.8,3.82c-.5-.3-.5-.3-.91.1A1.37,1.37,0,0,0,150.56,75.44Zm-.4,1.41a.27.27,0,0,0-.15-.25s-.1,0-.1.05a.2.2,0,0,0,.1.26A.17.17,0,0,0,150.16,76.85ZM150,79.68c0,.2.35.6.5.55s.35-.2.35-.45-.3-.21-.45-.26S150.06,79.47,150,79.68Zm.55-2c-.6.4-.6.4.05,1.26A3.56,3.56,0,0,0,150.56,77.71Zm.35,3.53c0-.1-.1-.31-.3-.26s-.1.21-.1.36a.59.59,0,0,1,0,.5c-.1.15-.35.35-.1.45s.4-.05.45-.35c.05-.15.15-.25.21-.45C151,81.44,151,81.34,150.91,81.24Zm.26-12.39a.35.35,0,0,0,.45.35c.3-.76-.1-1.46-.1-2.22A3.4,3.4,0,0,0,151.17,68.85Zm.65,4.08c0-.1-.15-.21-.25-.16s-.2.21-.1.31a1.2,1.2,0,0,1,.15,1.16.38.38,0,0,0,.1.25c0,.05.1.1.15.1a.38.38,0,0,0,.2-.1.81.81,0,0,1,.05-.36A4.22,4.22,0,0,0,151.82,72.93Zm.4,4c-.25.35-.45.65-.15,1a4.17,4.17,0,0,1,.51.91C152.53,78.16,152.73,77.51,152.22,76.91Zm-.3-1.47c.05,0,.05.21.2.21a.29.29,0,0,0,.15-.26.18.18,0,0,0-.2-.2C152,75.19,151.92,75.34,151.92,75.44Zm.51,4.08c-.26,0-.26.21-.26.41s0,.2.15.2.21-.15.26-.3S152.58,79.52,152.43,79.52Zm.85-.3c-.05.15-.2.3.05.4s.25-.15.25-.35a1,1,0,0,0-.05-.35C153.33,79,153.28,79.12,153.28,79.22Z"/><path class="cls-2" d="M167.59,96.45c-2.22,0-4.44,0-6.6,0-.55,0-.55,0-.61-.61V63.61c0-1.11-.1-1,1.06-1h5.79c.91,0,.91-.1.91.86V95.34a2,2,0,0,0,0,.55C168.19,96.35,167.94,96.45,167.59,96.45Zm-5.44-10.18c0-.1,0-.25-.05-.3s-.25.1-.25.25a.17.17,0,1,0,.3,0Zm-.2-20.7c-.1.05,0,.25.15.3a.57.57,0,0,0,.65-.2c.15-.15.1-.35-.05-.55s-.2-.3-.5-.25C162.1,65.07,162.25,65.42,162,65.57Zm1,3c-.2,0-.25.2-.25.36s0,.45.35.45c.15,0,.21-.2.26-.35S163.15,68.54,162.9,68.54Zm.31,5.34a.45.45,0,0,0-.21-.1.17.17,0,0,0-.15.25c.15.41,0,.86.2,1.41A1.24,1.24,0,0,0,163.21,73.88Zm-.06-10c-.3,0-.25.2-.3.35s0,.2.15.25.26-.2.31-.35S163.26,63.91,163.15,63.91Zm.11,22.16c-.15,0-.26.2-.31.35a.56.56,0,0,0,.16.56s.2,0,.25,0c.15-.15.1-.35.1-.56S163.56,86.07,163.26,86.07Zm-.11-4.43a.26.26,0,0,0-.2.3c0,.15.05.3.2.25a.27.27,0,0,0,.26-.25C163.36,81.79,163.31,81.64,163.15,81.64Zm.06,8.11a.16.16,0,0,0-.16.15c0,.15.31.45.41.4s0-.1.1-.15C163.51,89.9,163.46,89.75,163.21,89.75Zm.65-22.62c-.35-.3-.35-.3-.71-.3C163.41,67.23,163.41,67.23,163.86,67.13Zm-.4,20.4a.18.18,0,0,0-.2.2c0,.21,0,.41.3.41.1,0,.15-.1.2-.25S163.66,87.58,163.46,87.53Zm-.05-4.48c0,.1,0,.25.1.3a.24.24,0,0,0,.3-.15,1.06,1.06,0,0,0,.1-.8A.91.91,0,0,0,163.41,83.05Zm.3-2.62c0,.15.1.15.2.15s.2-.1.15-.25-.1-.1-.2-.1S163.66,80.33,163.71,80.43Zm1.06,12c0-.1-.05-.2-.15-.2s-.21.15-.21.3.05.2.16.2A.27.27,0,0,0,164.77,92.47Zm0-24.38c-.15,0-.25,0-.25.2s.1.2.25.2.2,0,.2-.15S165,68.09,164.82,68.09Zm.6-2.92a.27.27,0,0,0-.25-.15c-.1,0-.2.15-.15.25a2.34,2.34,0,0,1,0,1.31c-.05,0,0,.2.15.2s.25,0,.25-.15a3.69,3.69,0,0,0,.2-.81C165.57,65.62,165.47,65.42,165.42,65.17Zm.3,5.84v1.66c0,.41,0,.76-.35,1a.33.33,0,0,0-.1.45,1.67,1.67,0,0,1,.1,1.47c-.1.2.15.6.4.55s.26-.25.26-.45V74.49a1.48,1.48,0,0,1,.05-.66,8.16,8.16,0,0,0,.25-2.92.67.67,0,0,0-.35-.7C165.67,70.41,165.72,70.71,165.72,71Zm-.15,19.34c0,.05,0,.15.05.15s.15,0,.2-.15,0-.15-.1-.2S165.57,90.25,165.57,90.35ZM167,89.4a.42.42,0,0,1,.05-.26c.46-.55-.05-1.15,0-1.76a.62.62,0,0,0-.2-.4.83.83,0,0,1-.6-.91.27.27,0,0,0-.25-.25c-.21,0-.26.15-.31.3,0,.41-.05.81-.05,1.21,0,.2.1.25.31.15.55-.15.55-.15.7.3a1.26,1.26,0,0,1,0,.61,6.05,6.05,0,0,0,0,2.11C167.08,90,167.08,90,167,89.4Zm-1.21-1c-.15,0-.15.1-.15.2s0,.25.15.25.16-.1.21-.25S166,88.39,165.82,88.44Zm.11-19c0,.1.1.15.2,0a.23.23,0,0,0,.15-.15c-.1-.4,0-.86-.35-1.31A1.49,1.49,0,0,0,165.93,69.45Zm.85-1.76c0,.2-.05.5.25.5a.33.33,0,0,0,.2-.45,3.8,3.8,0,0,1,0-1.26,2.58,2.58,0,0,0,0-1c0-.25,0-.55-.4-.45s-.45.25-.35.6a5.59,5.59,0,0,1,.35,1.61A1.92,1.92,0,0,1,166.78,67.69Zm-.05,14.81a1.4,1.4,0,0,1,.05,1c-.15.51.1.56.51.66V82.7c-.06-.46-.36-.81-.41-1.21A.85.85,0,0,0,166.73,82.5Zm.5-3.73a1,1,0,0,0,0-.86C166.83,78.42,166.83,78.42,167.23,78.77Z"/><path class="cls-2" d="M202.39,89.5c.35.2.35.35.2.7a12.23,12.23,0,0,1-2.06,3,10.94,10.94,0,0,1-4.94,3,14.53,14.53,0,0,1-3.52.65,25.49,25.49,0,0,1-3.38.15,19.18,19.18,0,0,1-7.15-1.41,10.3,10.3,0,0,1-4.94-4.23A17.2,17.2,0,0,1,174.34,85a39.62,39.62,0,0,1-.41-4.33,27.44,27.44,0,0,1-.05-3.52,38.28,38.28,0,0,1,.71-5.8,12,12,0,0,1,4.33-6.9,9.19,9.19,0,0,1,2.57-1.31,16.65,16.65,0,0,1,4.68-1,25.75,25.75,0,0,1,3.43-.26c.8,0,1.66.11,2.52.21a23.2,23.2,0,0,1,2.67.4c3.37.65,6.09,2.22,7.55,5.49a12.81,12.81,0,0,1,1,4.18c.1,1.36,0,2.72,0,4.08-.05.71-.05.71-.66.71h-6.19c-.55,0-.61,0-.55-.56,0-.91,0-1.81,0-2.72a5,5,0,0,0-4.44-4.94,18.46,18.46,0,0,0-3.32-.15,7.12,7.12,0,0,0-3.73,1.16,5,5,0,0,0-1.91,2.52,14.75,14.75,0,0,0-.81,4.23,29.08,29.08,0,0,0-.1,3,26.35,26.35,0,0,0,.81,6.3,5.91,5.91,0,0,0,4.68,4.48,7.74,7.74,0,0,0,3.43.15,14.84,14.84,0,0,0,2-.45,7.16,7.16,0,0,0,3.88-3.32c.1-.16.15-.31.25-.51a.15.15,0,0,0,.1,0C198.61,87.18,200.53,88.34,202.39,89.5Zm-27.2-12.34c.05.4.05.65-.3.9a.34.34,0,0,0,0,.61.83.83,0,0,1,.35,1,2.09,2.09,0,0,0,.15.81,1.64,1.64,0,0,1,.05.71,4.39,4.39,0,0,0,.21,2.16A4.82,4.82,0,0,1,175.9,85a5.19,5.19,0,0,1-.05,1.26c0,.15,0,.25.1.25s.25,0,.3-.15a.39.39,0,0,0,.05-.4,1.13,1.13,0,0,1-.05-.7c.05-.26.4-.26.45-.51a3.91,3.91,0,0,1-.8-3.12c.2-.86-.41-1.71.15-2.47.1-.1-.1-.25-.15-.4a2.38,2.38,0,0,1,0-2.52c.05,0,.05-.1.05-.15C175.49,76.25,175.09,76.6,175.19,77.16Zm.36-2.22c-.11,0-.21,0-.21,0-.15.25.1.4.26.55.05,0,.05,0,.15.06C175.9,75.24,175.8,75,175.55,74.94ZM176.4,83a.18.18,0,0,0,.2.2c.15,0,.26,0,.26-.25s-.11-.15-.21-.15S176.45,82.85,176.4,83Zm1.11-1.46c0-.15-.1-.25-.25-.2s-.2.15-.15.25a.18.18,0,0,0,.2.2C177.41,81.74,177.51,81.69,177.51,81.54Zm0-7.1a.26.26,0,0,0,.1.2c.1.1.1,0,.15-.1s0-.2-.1-.2S177.41,74.34,177.46,74.44Zm1.16,16.92a2.18,2.18,0,0,1-.2-1c.05-.35-.1-1,.25-1,.5,0,.25.55.3.9s-.1.56.25.66c.15-.15.1-.3.1-.45a6.17,6.17,0,0,0-.3-1.92,2.46,2.46,0,0,0-.65-1.46c-.1-.1-.15-.2-.26-.15a.25.25,0,0,0-.05.35c.1.15.26.3.36.45s.25.61.05.76c-.36.25-.2.55-.31.81-.2.65,0,1.41-.55,2a2.16,2.16,0,0,1,.81.71A.68.68,0,0,0,178.62,91.36Zm-.35-22.67c.3-.3.25-.55-.05-1C178.06,68.14,178,68.39,178.27,68.69Zm.2.86a.17.17,0,0,0-.31,0,.31.31,0,0,0,0,.35c.26.31.46.36.76.1C178.82,69.75,178.62,69.7,178.47,69.55Zm-.15,2.17a.18.18,0,0,0,.05.15c0,.15.1.3.3.25a.25.25,0,0,0,.1-.4,1,1,0,0,1-.05-1.11C178,71,178,71,178.32,71.72Zm.2,1.56a1.86,1.86,0,0,1-.1,1.46.43.43,0,0,0,.3.6c.35,0,.4-.25.4-.5a14.32,14.32,0,0,0-.1-1.46c-.05-.3,0-.61-.25-.91A.69.69,0,0,0,178.52,73.28Zm.35,7.5c.15,0,.4,0,.35-.3a.52.52,0,0,0-.45-.5c-.25,0-.25.2-.25.3C178.57,80.58,178.52,80.83,178.87,80.78Zm-.05-4.73s-.15,0-.2.1c-.15.3.1.55.3.81C179,76.6,179.17,76.3,178.82,76.05Zm-.15,5.59c.1.45.35.5.75.4A.78.78,0,0,0,178.67,81.64Zm.3,2.27c.3-.41,0-1,.5-1.21C178.72,82.7,178.57,83.05,179,83.91Zm.25,1.41a.12.12,0,0,0,.2,0c.21-.31,0-.46-.3-.61h-.05A.45.45,0,0,0,179.22,85.32Zm.1,1.05c-.3.61.21.91.36,1.31,0,.1.15.21.3.1s.05-.2,0-.3a1.45,1.45,0,0,1-.35-1c0-.3,0-.65-.36-.8C179,85.92,179.42,86.17,179.32,86.37Zm.86-18.58a.65.65,0,0,0-.65.2.13.13,0,0,0,0,.2c.2.15.4,0,.6,0a.33.33,0,0,0,.35-.2C180.43,67.89,180.33,67.84,180.18,67.79Zm-.55,2.67c0,.05,0,.2.15.2s.2-.25.2-.4a.27.27,0,0,0-.2-.31C179.57,70.05,179.63,70.26,179.63,70.46Zm1.2,2.06a2.52,2.52,0,0,0-1,.51.38.38,0,0,0,.1.2,1.52,1.52,0,0,0,1-.61C180.88,72.57,180.88,72.52,180.83,72.52Zm-1,16.73s.05.1.1.15a.1.1,0,0,0,.15-.05c.05-.15,0-.21-.1-.26S179.88,89.14,179.88,89.25Zm.7-24c-.2.3-.05.5.15.7A.6.6,0,0,0,180.58,65.27Zm.91,5.44c-.05.2.15.3.3.3s.25-.25.25-.4,0-.25-.3-.25A.39.39,0,0,0,181.49,70.71Zm.55-6.85c-.3.1-.4.45-.1.6.51.26.46.66.46,1.11a4.14,4.14,0,0,0,0,1.11c.2.71.25,1.41-.56,1.76.15.36.61.15.61.56s-.05.6.25.8a.59.59,0,0,0,.35-.8,1.83,1.83,0,0,1,0-1.16,2.3,2.3,0,0,0-.05-1,4.69,4.69,0,0,1-.15-1.66V63.66A1,1,0,0,0,182,63.86Zm-.1,2.87a.18.18,0,0,0-.15,0c0,.1,0,.15.1.2s.1,0,.1,0S182,66.78,181.94,66.73Zm1.31,26.85c.05-.1,0-.15-.1-.2s-.2,0-.2.1.05.15.1.15S183.2,93.63,183.25,93.58Zm.46-1.92c.1-.2.3-.4.25-.55a13.67,13.67,0,0,1-.2-1.41.6.6,0,0,0-.16,0s-.1,0-.1.1a2.83,2.83,0,0,0,0,.65,2.25,2.25,0,0,1,0,1.31A.28.28,0,0,0,183.71,91.66Zm.65,2.77a.25.25,0,0,0,0,.36c.25,0,.3-.1.35-.26a.44.44,0,0,0-.2-.45A1.25,1.25,0,0,0,184.36,94.43Zm.6-1.26a.19.19,0,0,0,.06-.3.59.59,0,0,0-.36-.15c-.2,0-.2.15-.2.3a1.45,1.45,0,0,0,.1.76C184.86,93.63,184.71,93.27,185,93.17Zm3.18-27c0-.1-.1-.15-.2-.15s-.1,0-.16,0c.21.4-.25.85.16,1.41A3.25,3.25,0,0,0,188.14,66.18Zm0,27.15a.11.11,0,0,0-.1.1.13.13,0,0,0,.15.15c.1,0,.1,0,.1-.15S188.24,93.27,188.14,93.33Zm2.16,1.41c-.1.2.1.25.26.25s.55.05.6-.35a.42.42,0,0,0-.35-.41C190.61,94.33,190.35,94.43,190.3,94.74Zm.46-3.33c-.36.56,0,.81.2,1.11A1.49,1.49,0,0,0,190.76,91.41Zm.25,1.41c-.1-.1-.2.05-.2.15a.39.39,0,0,0,.2.41.84.84,0,0,1,.2-.16A1,1,0,0,0,191,92.82Zm.45-27.95c-.15.25-.05.4.2.45s.46.15.61,0-.15-.3-.3-.4,0-.36-.26-.36S191.56,64.77,191.46,64.87Zm.36-1.56c-.11-.06-.16,0-.21.1a.27.27,0,0,0,.15.25c.1.05.16,0,.21-.15S191.92,63.31,191.82,63.31Zm.4,4.63c.35,0,.3-.35.35-.55a.46.46,0,0,0-.45-.51c-.2,0-.26.2-.26.45S191.86,67.89,192.22,67.94Zm.65,25c0,.36.15.81-.05,1.06-.35.45.1.91,0,1.36a.32.32,0,0,0,.25.3.33.33,0,0,0,.31-.25,2.35,2.35,0,0,0,.15-.86,11.42,11.42,0,0,1-.1-2.61,1,1,0,0,0-.36-.81A7.59,7.59,0,0,0,192.87,93Zm.86-25.23c.05-.41.15-.71-.2-1C193.53,67.08,193.33,67.44,193.73,67.74Zm.4,23.82a3.54,3.54,0,0,0,.1,2.42A2.17,2.17,0,0,0,194.13,91.56Zm1.21-24.68-.15-1.06H195c.05.36.1.76.15,1.11C195.24,66.93,195.29,66.88,195.34,66.88Zm1.21,25.64a1.22,1.22,0,0,1,0-2c-.15-.15-.5.26-.45-.2,0-.1.05-.3-.1-.3s-.26.15-.26.3v2.47c0,.15,0,.25.26.4C196.2,93,196.35,92.72,196.55,92.52ZM196,67.94c-.06.1.05.2.15.25l.15-.15c0-.1-.05-.2-.15-.25S196.05,67.84,196,67.94Zm.2,1.51c-.15,0-.2.15-.15.3s.1.46.45.46c.1,0,.15-.11.15-.26S196.5,69.45,196.2,69.45Zm.35-5a.24.24,0,0,0-.25-.25c-.15,0-.2.15-.25.25a1.91,1.91,0,0,0,0,.56c.05.3-.16.8.3.75s.1-.45.15-.75Zm1.26,8.21c0-.15-.05-.3-.25-.3s-.36.2-.31.4.16.56.51.61C197.91,73.13,197.76,72.93,197.81,72.67ZM197.56,69c-.05.15-.1.3.05.35s.25-.1.3-.25,0-.25-.1-.41A.48.48,0,0,0,197.56,69Zm.9-2a.2.2,0,0,0-.2.25c0,.21.25.26.46.31s.15-.05.15-.21S198.77,66.93,198.46,67Zm.26,1.92c-.06-.05-.11-.16-.26-.16s-.15.16-.15.26a1.86,1.86,0,0,0,.35.9A1,1,0,0,0,198.72,68.9Zm.95-3.08c-.3.56-.3.81.05,1.67A2.37,2.37,0,0,0,199.67,65.82Zm.61,6.6h-.1c-.15.25-.11.41.15.61A.47.47,0,0,0,200.28,72.42Zm.3,1.31s0-.2-.1-.2a.23.23,0,0,0-.25.25.26.26,0,0,0,.2.25C200.58,74,200.58,73.88,200.58,73.73Zm.35-5.89c-.15,0-.2.15-.2.3s.05.1.15.1a.24.24,0,0,0,.25-.25C201.13,67.89,201,67.84,200.93,67.84Zm0,2c0,.1.1.2.2.15s.2,0,.2-.1c0-.35.11-.7-.15-1A1.27,1.27,0,0,0,200.93,69.8Zm.86,1.87c-.2,0-.25.1-.25.2s0,.3.15.3.25-.1.25-.2S201.94,71.67,201.79,71.67Z"/><path class="cls-2" d="M79.36,123.43H75.17c-.44,0-.44,0-.44-.45V106.85a1.4,1.4,0,0,1,0-.41c0-.2-.1-.26-.29-.26H68.53c-.19,0-.25-.1-.25-.26v-3.41c0-.51,0-.51.51-.51h17c.25,0,.35.06.35.32,0,1.15,0,2.33,0,3.51,0,.29-.13.35-.35.35-.67,0-1.31,0-2,0H80.35c-.71,0-.64-.06-.64.64V123C79.71,123.39,79.71,123.43,79.36,123.43ZM72.23,105c-.06,0-.12,0-.12,0s0,.16.09.16.1,0,.13,0S72.3,105,72.23,105Zm.2-2.08c0,.13.06.16.16.19s.16-.06.12-.12,0-.23-.12-.23A.17.17,0,0,0,72.43,102.92Zm.51,2a.39.39,0,0,0,0,.58C73,105.29,73.19,105.09,72.94,104.9Zm2,.45a.82.82,0,0,1,0-.54.48.48,0,0,0,0-.58c-.06-.16-.16-.29,0-.48s0-.22-.16-.22a.44.44,0,0,0-.32.25c-.06.2,0,.42.16.48s.19.26.13.45a1.39,1.39,0,0,0,0,1A.3.3,0,0,0,75,105.35Zm.93,7.7c-.07.22-.07.41.09.48s.32-.13.48-.26C76.23,113.21,76.07,113.11,75.88,113.05Zm.19-5.24c0,.09,0,.19.12.25a.13.13,0,0,0,.1-.09.17.17,0,0,0-.1-.23C76.13,107.74,76.07,107.78,76.07,107.81Zm.25,10a.2.2,0,0,0,0,.28,5,5,0,0,1,.45,1c.22-.19.16-.35.06-.54s-.29-.58-.13-1c0-.06,0-.19-.16-.29C76.45,117.49,76.51,117.68,76.32,117.81Zm0-11.5s.07.09.1.09.09-.06.13-.09a.52.52,0,0,0-.13-.51A.46.46,0,0,0,76.32,106.31Zm.29,10.35c-.06,0-.1.06-.13.12s0,.16.1.16.09-.06.09-.09S76.67,116.69,76.61,116.66Zm0,3.22s.06,0,.1,0,.09-.25,0-.38l-.07,0C76.61,119.59,76.51,119.72,76.61,119.88Zm.1-14.31c0,.07,0,.13.12.1s.13-.1.13-.13c-.06-.29-.19-.54,0-.8,0,0-.06-.16-.16-.19s-.12.07-.16.13-.06.22-.09.38S76.64,105.38,76.71,105.57Zm.48,3.9c-.23-.13-.36-.1-.42.16,0,.06-.06.13-.06.19s0,.13,0,.13a.09.09,0,0,0,.16,0c.09-.19.35-.16.48-.32C77.34,109.5,77.25,109.5,77.19,109.47Zm-.42,11.59c.06.26-.06.51.06.77,0,.06,0,.22.2.19a.3.3,0,0,0,.12-.26c-.06-.25-.16-.47-.22-.73A.36.36,0,0,1,76.77,121.06Zm.51-14.59a.33.33,0,0,0-.06-.39c0-.06-.1,0-.16,0a.32.32,0,0,0-.19.35,1.37,1.37,0,0,0,.19.67C77.15,106.82,77.12,106.63,77.28,106.47Zm-.16,3.89c-.06,0-.13.07-.13.16s.07.19.2.19a.11.11,0,0,0,.12-.12C77.25,110.52,77.22,110.4,77.12,110.36Zm0-2.81a.91.91,0,0,0,.13.74C77.41,107.84,77.41,107.78,77.12,107.55Zm.32,1.15c0-.12,0-.22-.13-.22s-.09.06-.09.13,0,.16.09.22S77.44,108.77,77.44,108.7Zm0-6.13a.49.49,0,0,0,0,.48C77.6,102.73,77.6,102.73,77.41,102.57Zm.06,18.05c0,.06,0,.12.1.15s.06,0,.09-.09,0-.13-.09-.16A.1.1,0,0,0,77.47,120.62Zm.16-1.12c0-.1,0-.29-.06-.23s0,.36,0,.55C77.63,119.72,77.57,119.59,77.63,119.5Zm0-.83a.09.09,0,0,0,.1-.1c0-.06,0-.16-.07-.16a.08.08,0,0,0-.13.07A.16.16,0,0,0,77.6,118.67Zm.06-3.9c0,.42.26.77.16,1.21a1,1,0,0,1-.16.45c-.06.1,0,.16,0,.19a.17.17,0,0,0,.16-.06s0-.1.06-.13a4.5,4.5,0,0,0-.26-2.59s0-.06-.09,0A5.2,5.2,0,0,0,77.66,114.77Zm.1-9.07c-.06,0-.13,0-.16.06s0,.13.1.13.12,0,.12-.09S77.79,105.73,77.76,105.7Zm0,7.09c-.13.29-.13.29,0,.64C77.82,113.14,77.86,113,77.73,112.79Zm.13-6.45c0,.1.06.1.12.1a.12.12,0,0,0,.13-.13s0-.1-.09-.07S77.86,106.24,77.86,106.34Zm.73.06c-.26.29-.22.32,0,.55,0,.06.07.09,0,.12s-.06.13-.12.07-.23,0-.23.13,0,.25.19.16.42.09.64,0c-.35-.44-.22-1-.38-1.53C78.56,106.08,78.72,106.24,78.59,106.4Zm.13,14.5a.06.06,0,0,0,.09,0,.27.27,0,0,0,0-.41C78.62,120.62,78.59,120.74,78.72,120.9Zm0,.64c-.06,0-.1.07-.1.13s0,.16.1.16.13-.07.13-.16A.15.15,0,0,0,78.75,121.54Zm.57-17.08s.07,0,.1,0,0-.19-.16-.32C79.23,104.26,79.16,104.36,79.32,104.46Zm.1-1.09c0-.16.19-.35-.1-.54,0,.38-.19.7-.06,1.11C79.48,103.75,79.42,103.56,79.42,103.37Zm.45,2.17c0,.06.06.06.13.06s.12,0,.09-.06c-.06-.19.06-.35-.09-.57A.79.79,0,0,0,79.87,105.54Zm1.5-2.11s0,.1,0,.13c.32-.22.32-.22-.1-.54C81.34,103.21,81.34,103.31,81.37,103.43Zm.51,1.06c-.06,0-.13-.16-.19,0s0,.16,0,.22.16.06.22,0A.11.11,0,0,0,81.88,104.49Zm1.4-1.66a.26.26,0,0,0-.09-.19.21.21,0,0,0-.35,0,.4.4,0,0,0,0,.35c.09.16,0,.28,0,.44s-.22.61,0,.9a.55.55,0,0,1,.09.48,3.71,3.71,0,0,0-.06.54.19.19,0,0,0,.13.25.24.24,0,0,0,.25-.15,1.46,1.46,0,0,0,.19-1C83.48,103.91,83.22,103.37,83.28,102.83Zm.83.22a.11.11,0,0,1-.09,0c-.22,0-.19.09-.19.22l.09.23a.8.8,0,0,1,.23.7v.45c0,.06,0,.15.09.15s.16-.06.16-.15c0-.42.07-.84.13-1.38C84.53,103,84.5,103,84.11,103.05Z"/><path class="cls-2" d="M87.76,108a8.35,8.35,0,0,1,1.76-3.73,6.52,6.52,0,0,1,3-2,13.78,13.78,0,0,1,2.81-.61,20.65,20.65,0,0,1,3.77-.06,12.53,12.53,0,0,1,3.86.79,6.45,6.45,0,0,1,3.8,3.68,12.81,12.81,0,0,1,.93,4.09c.06,1,.06,2,0,3.06a14.6,14.6,0,0,1-1.18,6,7,7,0,0,1-4.18,3.86,12.41,12.41,0,0,1-3.39.61c-.45,0-.89.06-1.34.06a16.75,16.75,0,0,1-4-.41,7,7,0,0,1-4.86-3.67,13,13,0,0,1-1.08-3.42,21.59,21.59,0,0,1-.29-4.15A16,16,0,0,1,87.76,108Zm2.62,8s0-.12-.07-.16a2.22,2.22,0,0,1-.32-1,1.27,1.27,0,0,0-.28-.8,1.81,1.81,0,0,1-.26-1.5,2.06,2.06,0,0,0-.06-1,1,1,0,0,1,0-.54,2,2,0,0,0,.06-1.22,1.92,1.92,0,0,1-.06-1.11c0-.13,0-.29.16-.39a.22.22,0,0,0,0-.32c-.1-.16-.06-.28-.1-.44a3,3,0,0,1-.16-1.44.25.25,0,0,0-.06-.13.1.1,0,0,0-.13,0c-.19.13-.35,1-.19,1.12.48.39.35.83.26,1.31a3.14,3.14,0,0,0-.1,1c.16.93-.35,1.92.06,2.84,0,.07,0,.16,0,.26a3.74,3.74,0,0,0,.42,1.82,1.74,1.74,0,0,1,.22.83c0,.38.13.76.16,1.15a.88.88,0,0,0,.48.57C90.41,116.5,90.28,116.24,90.38,116Zm-.54-2.87c.09,0,.15-.06.15-.16a.14.14,0,0,0-.15-.16c-.1,0-.13.06-.13.1S89.77,113.11,89.84,113.11Zm.31-1.25a1.31,1.31,0,0,0,.07,1c0,.09.06.19.19.16a.2.2,0,0,0,.13-.26.75.75,0,0,1,0-.7.24.24,0,0,0-.22-.35A.23.23,0,0,0,90.15,111.86Zm.32-6.51a.21.21,0,0,0,.2.16.18.18,0,0,0,.12-.22c-.06-.29-.12-.58-.19-.83,0-.1-.13-.2-.22-.13s-.1.13-.07.29S90.41,105.09,90.47,105.35Zm0,8.4c-.13,0-.13.09-.13.16s.07.19.2.19.12-.1.09-.19A.15.15,0,0,0,90.44,113.75Zm.58,4.53c-.07-.06-.13-.12-.23-.06a.09.09,0,0,0,0,.16c.13.13.1.32.32.48A.86.86,0,0,0,91,118.28Zm-.07-8.4c.13,0,.16-.09.16-.22s0-.29-.19-.29-.1.13-.1.23S90.82,109.88,91,109.88Zm.29,9.43s.06-.07.06-.1,0-.19-.09-.19-.06.09-.1.16S91.15,119.34,91.24,119.31ZM91.15,105s0,.09.09.06a.15.15,0,0,0,.06-.1c0-.12,0-.22-.12-.28A.32.32,0,0,0,91.15,105Zm.63.09s0,.13.13.13A.17.17,0,0,0,92,105a1.89,1.89,0,0,0-.35-1C91.69,104.42,91.78,104.74,91.78,105.06Zm0,3.32a.12.12,0,0,0-.12.13.17.17,0,0,0,.09.16c.1,0,.1-.06.13-.13S91.85,108.42,91.78,108.38ZM91.66,110s0,.09.06.09.13,0,.13-.09,0-.1-.07-.1S91.66,109.88,91.66,110Zm.54,9.26c0-.13-.1-.19-.22-.19a.17.17,0,0,0-.13.19,1.33,1.33,0,0,0,.25.67A1.81,1.81,0,0,0,92.2,119.21ZM92,105.89a.9.9,0,0,0,.16.8A1,1,0,0,0,92,105.89Zm.09,10.73s-.06.07-.06.1a.07.07,0,0,0,.1.06s0,0,.06-.06A.11.11,0,0,0,92.13,116.62ZM95,106.21a3.37,3.37,0,0,0-2.14,2,11.39,11.39,0,0,0-.58,4.25,18.82,18.82,0,0,0,.13,2.24,10.15,10.15,0,0,0,.67,2.71,3.63,3.63,0,0,0,1.85,1.85,5.73,5.73,0,0,0,2,.45,7.14,7.14,0,0,0,3-.38,3.67,3.67,0,0,0,2.17-2.24,15.17,15.17,0,0,0,.71-4.5,14.31,14.31,0,0,0-.13-2.37,8.38,8.38,0,0,0-.42-1.78,3.46,3.46,0,0,0-2.17-2.21,7.6,7.6,0,0,0-2.49-.41A7.25,7.25,0,0,0,95,106.21Zm-2.27,15.08a4.43,4.43,0,0,1-.06-1v0a.2.2,0,0,0-.19-.16.16.16,0,0,0-.1.16,8.22,8.22,0,0,0,0,.86.44.44,0,0,0,.22.35A.19.19,0,0,0,92.74,121.29Zm1,.57a.43.43,0,0,0,0-.22c0-.23,0-.35-.13-.26s-.1.35-.1.51a.18.18,0,0,0,.1.19C93.8,122.05,93.76,122,93.76,121.86Zm.16-17.24a.24.24,0,0,0-.19.25.27.27,0,0,0,.19.22c.16,0,.19-.12.23-.25S94.08,104.62,93.92,104.62ZM95,120.74c-.16,0-.19.16-.16.26s0,.32.16.32.1-.19.13-.29S95.17,120.74,95,120.74Zm0,1.44s-.1,0-.1,0c-.12.19,0,.35.07.54,0,0,.06.1.09.13l.13,0a.28.28,0,0,0,.13-.19A1.59,1.59,0,0,0,95,122.18Zm.35-2.17c-.19,0-.19.16-.22.29s0,.22.16.22.19-.16.19-.26S95.49,120,95.36,120Zm.32-16.93c0-.06-.13-.13-.19-.06s-.07.09-.07.16a6.83,6.83,0,0,1,.23.73c0,.07.06.16.16.16s.13-.16.13-.25A1.69,1.69,0,0,0,95.68,103.08Zm.93,17.25s-.1-.1-.13-.07-.1.1-.1.13c0,.19.07.42.1.64a.18.18,0,0,0,.16.1c.09,0,.09-.07.13-.16v-.23C96.8,120.58,96.67,120.46,96.61,120.33Zm.22,1.88c0-.06-.06-.09-.13-.06a.06.06,0,0,0-.06.06,3.44,3.44,0,0,1-.16.8c0,.13,0,.22.19.26s.19-.1.19-.23a1.33,1.33,0,0,1,0-.6A.2.2,0,0,0,96.83,122.21Zm2.3-18.81c0-.19-.06-.35-.26-.38a.12.12,0,0,0-.12.19c0,.16,0,.35.22.41A.22.22,0,0,0,99.13,103.4Zm.25,1.44a.87.87,0,0,0-.28-.67c0-.1-.16-.07-.23,0s-.09.13-.06.16c.29.25.09.48,0,.7C99.22,105.16,99.35,105.09,99.38,104.84Zm.16,16.64a.08.08,0,0,0-.09.09.12.12,0,0,0,.13.13s0-.06.06-.09S99.58,121.48,99.54,121.48Zm.67,1.56c.16,0,.1-.16.1-.25s0-.13,0-.19.13-.2,0-.23-.13.1-.16.19a.69.69,0,0,0,0,.26C100.09,122.91,100.09,123,100.21,123Zm3.2-19.42a2,2,0,0,0,.25,1.31A1.64,1.64,0,0,0,103.41,103.62Zm.54,4.22a.36.36,0,0,1,0,.16,6.24,6.24,0,0,0-.09,1.72,1,1,0,0,0,.38,1,.2.2,0,0,0,.13-.22c0-.38-.13-.77-.1-1.18a19.15,19.15,0,0,1-.09-2.27c0-.13-.07-.25-.16-.38A1.66,1.66,0,0,0,104,107.84Zm2.17,1.28a.2.2,0,0,0-.19.16.12.12,0,0,0,.13.13.31.31,0,0,0,.16-.16C106.22,109.18,106.15,109.15,106.12,109.12Zm.07-1.34c-.1,0-.2,0-.2.12s.1.26.26.26a.22.22,0,0,0,.26-.19C106.47,107.84,106.31,107.81,106.19,107.78Z"/><path class="cls-2" d="M110.92,108a8.44,8.44,0,0,1,1.75-3.73,6.55,6.55,0,0,1,3-2,13.78,13.78,0,0,1,2.81-.61,20.64,20.64,0,0,1,3.77-.06,12.59,12.59,0,0,1,3.86.79,6.45,6.45,0,0,1,3.8,3.68,12.81,12.81,0,0,1,.93,4.09c.06,1,.06,2,0,3.06a14.6,14.6,0,0,1-1.18,6,7.06,7.06,0,0,1-4.19,3.86,12.27,12.27,0,0,1-3.38.61c-.45,0-.9.06-1.34.06a16.83,16.83,0,0,1-4-.41,7,7,0,0,1-4.85-3.67,13.37,13.37,0,0,1-1.09-3.42,22.44,22.44,0,0,1-.28-4.15A15.59,15.59,0,0,1,110.92,108Zm2.62,8s0-.12-.07-.16a2.11,2.11,0,0,1-.32-1,1.27,1.27,0,0,0-.29-.8,1.84,1.84,0,0,1-.25-1.5,2.19,2.19,0,0,0-.06-1,.9.9,0,0,1,0-.54,2.12,2.12,0,0,0,.06-1.22,1.84,1.84,0,0,1-.06-1.11c0-.13,0-.29.15-.39a.22.22,0,0,0,0-.32,1,1,0,0,1-.1-.44,2.76,2.76,0,0,1-.16-1.44.25.25,0,0,0-.06-.13.1.1,0,0,0-.13,0c-.19.13-.35,1-.19,1.12.48.39.35.83.25,1.31a3.13,3.13,0,0,0-.09,1c.16.93-.35,1.92.06,2.84a.75.75,0,0,1,0,.26,3.64,3.64,0,0,0,.42,1.82,1.74,1.74,0,0,1,.22.83c0,.38.13.76.16,1.15a.83.83,0,0,0,.48.57C113.57,116.5,113.44,116.24,113.54,116Zm-.55-2.87c.1,0,.16-.06.16-.16a.15.15,0,0,0-.16-.16.12.12,0,0,0-.13.1C112.86,113.05,112.93,113.11,113,113.11Zm.32-1.25a1.27,1.27,0,0,0,.07,1c0,.09.06.19.19.16a.19.19,0,0,0,.12-.26.78.78,0,0,1,0-.7.25.25,0,0,0-.23-.35A.22.22,0,0,0,113.31,111.86Zm.32-6.51a.2.2,0,0,0,.19.16.18.18,0,0,0,.13-.22c-.06-.29-.13-.58-.19-.83,0-.1-.13-.2-.22-.13s-.1.13-.07.29S113.57,105.09,113.63,105.35Zm0,8.4c-.13,0-.13.09-.13.16a.17.17,0,0,0,.19.19c.1,0,.13-.1.1-.19A.15.15,0,0,0,113.6,113.75Zm.57,4.53c-.06-.06-.12-.12-.22-.06a.09.09,0,0,0,0,.16c.13.13.1.32.32.48A.86.86,0,0,0,114.17,118.28Zm-.06-8.4c.13,0,.16-.09.16-.22s0-.29-.19-.29-.1.13-.1.23S114,109.88,114.11,109.88Zm.29,9.43s.06-.07.06-.1,0-.19-.09-.19-.07.09-.1.16S114.3,119.34,114.4,119.31ZM114.3,105a.07.07,0,0,0,.1.06.15.15,0,0,0,.06-.1c0-.12,0-.22-.13-.28A.38.38,0,0,0,114.3,105Zm.64.09a.14.14,0,0,0,.13.13.18.18,0,0,0,.09-.16,1.73,1.73,0,0,0-.35-1C114.84,104.42,114.94,104.74,114.94,105.06Zm0,3.32a.12.12,0,0,0-.13.13.16.16,0,0,0,.1.16c.09,0,.09-.06.13-.13S115,108.42,114.94,108.38Zm-.13,1.57s0,.09.07.09.12,0,.12-.09,0-.1-.06-.1S114.81,109.88,114.81,110Zm.55,9.26c0-.13-.1-.19-.23-.19a.18.18,0,0,0-.13.19,1.46,1.46,0,0,0,.26.67A1.81,1.81,0,0,0,115.36,119.21Zm-.16-13.32a.9.9,0,0,0,.16.8A1,1,0,0,0,115.2,105.89Zm.09,10.73s-.06.07-.06.1,0,.09.09.06,0,0,.07-.06A.12.12,0,0,0,115.29,116.62Zm2.88-10.41a3.35,3.35,0,0,0-2.14,2,11.19,11.19,0,0,0-.58,4.25,16.93,16.93,0,0,0,.13,2.24,9.79,9.79,0,0,0,.67,2.71,3.59,3.59,0,0,0,1.85,1.85,5.64,5.64,0,0,0,2.05.45,7.14,7.14,0,0,0,3-.38,3.67,3.67,0,0,0,2.17-2.24,14.85,14.85,0,0,0,.7-4.5,14.31,14.31,0,0,0-.12-2.37,9,9,0,0,0-.42-1.78,3.46,3.46,0,0,0-2.17-2.21,7.6,7.6,0,0,0-2.49-.41A7.25,7.25,0,0,0,118.17,106.21Zm-2.27,15.08a5.17,5.17,0,0,1-.07-1v0a.19.19,0,0,0-.19-.16.17.17,0,0,0-.09.16,8.22,8.22,0,0,0,0,.86.41.41,0,0,0,.22.35A.19.19,0,0,0,115.9,121.29Zm1,.57a.56.56,0,0,0,0-.22c0-.23,0-.35-.13-.26s-.09.35-.09.51a.19.19,0,0,0,.09.19C117,122.05,116.92,122,116.92,121.86Zm.16-17.24a.23.23,0,0,0-.19.25c0,.1.06.19.19.22s.19-.12.22-.25S117.24,104.62,117.08,104.62Zm1.09,16.12a.18.18,0,0,0-.16.26c0,.13,0,.32.16.32s.09-.19.12-.29S118.33,120.74,118.17,120.74Zm0,1.44a.11.11,0,0,0-.1,0c-.13.19,0,.35.06.54,0,0,.07.1.1.13l.13,0c.06,0,.09-.09.13-.19A1.59,1.59,0,0,0,118.17,122.18Zm.35-2.17c-.19,0-.19.16-.23.29s0,.22.16.22.2-.16.2-.26S118.65,120,118.52,120Zm.32-16.93c0-.06-.13-.13-.19-.06s-.07.09-.07.16a6.83,6.83,0,0,1,.23.73c0,.07.06.16.15.16s.13-.16.13-.25A1.56,1.56,0,0,0,118.84,103.08Zm.92,17.25s-.09-.1-.12-.07-.1.1-.1.13c0,.19.06.42.1.64a.18.18,0,0,0,.15.1c.1,0,.1-.07.13-.16v-.23C120,120.58,119.83,120.46,119.76,120.33Zm.23,1.88c0-.06-.07-.09-.13-.06s-.07,0-.07.06a3.43,3.43,0,0,1-.15.8c0,.13,0,.22.19.26s.19-.1.19-.23a1.33,1.33,0,0,1,0-.6A.22.22,0,0,0,120,122.21Zm2.3-18.81c0-.19-.07-.35-.26-.38a.13.13,0,0,0-.13.19c0,.16,0,.35.23.41A.24.24,0,0,0,122.29,103.4Zm.25,1.44a.92.92,0,0,0-.29-.67c0-.1-.16-.07-.22,0s-.09.13-.06.16c.28.25.09.48,0,.7C122.38,105.16,122.51,105.09,122.54,104.84Zm.16,16.64a.08.08,0,0,0-.09.09c0,.07,0,.13.12.13s0-.06.07-.09S122.73,121.48,122.7,121.48Zm.67,1.56c.16,0,.1-.16.1-.25s0-.13,0-.19.13-.2,0-.23-.13.1-.16.19a.69.69,0,0,0,0,.26C123.24,122.91,123.24,123,123.37,123Zm3.2-19.42a2,2,0,0,0,.25,1.31A1.68,1.68,0,0,0,126.57,103.62Zm.54,4.22a.36.36,0,0,1,0,.16,6.66,6.66,0,0,0-.1,1.72,1,1,0,0,0,.39,1,.21.21,0,0,0,.13-.22c0-.38-.13-.77-.1-1.18a17.25,17.25,0,0,1-.1-2.27c0-.13-.06-.25-.16-.38A1.71,1.71,0,0,0,127.11,107.84Zm2.17,1.28a.19.19,0,0,0-.19.16.12.12,0,0,0,.13.13.35.35,0,0,0,.16-.16C129.38,109.18,129.31,109.15,129.28,109.12Zm.06-1.34c-.09,0-.19,0-.19.12s.1.26.26.26.22,0,.25-.19S129.47,107.81,129.34,107.78Z"/><path class="cls-2" d="M147.2,123.46H134.87c-.22,0-.28-.1-.28-.29a2,2,0,0,0,0-.42V102.38c0-.38,0-.38.38-.38h4.18c.26,0,.39.06.35.32a1.87,1.87,0,0,0,0,.41v15.94c0,.67-.09.6.64.6h6.93c.61,0,.55,0,.55.55,0,1.08,0,2.14,0,3.22C147.62,123.46,147.62,123.46,147.2,123.46Zm-11.59-14.57c-.07.58.13,1.19-.39,1.67a.2.2,0,0,0,0,.28.21.21,0,0,0,.28,0,1.22,1.22,0,0,0,.32-.32c.1-.12,0-.22,0-.32a.87.87,0,0,1,0-.28c-.13-.32.13-.64,0-1a1.1,1.1,0,0,1,0-.54.77.77,0,0,0-.09-.74C135.67,108.1,135.64,108.48,135.61,108.89Zm-.16,4.57a.87.87,0,0,0,0,1.06C135.61,114.16,135.45,113.81,135.45,113.46Zm.35,2.91c.13-.13.26-.23.38-.35C135.77,116.05,135.77,116.05,135.8,116.37Zm.13-9.49s0,0-.07,0,0,.26,0,.39C135.86,107.14,136.06,107,135.93,106.88Zm.38,13.64c-.06,0-.1,0-.1.06s0,.16.13.13,0-.06.07-.06S136.37,120.52,136.31,120.52Zm.54-8.69c-.06-.19-.16-.35-.09-.54.16-.45-.13-1,.13-1.41,0-.06,0-.12-.07-.19s-.06-.25,0-.41c0-.35.22-.7-.06-1,.19-.26,0-.45,0-.71a.19.19,0,0,1,.16-.25c.15-.1.19-.19.09-.32s-.09-.29.06-.35a.23.23,0,0,1,.32.09.31.31,0,0,0,.45.13c.16-.06.26.1.19.26s-.06.35.13.35.13-.23.13-.39c0-.57,0-.67-.61-.6a.4.4,0,0,0,0-.19.67.67,0,0,1,.1-.93c-.07-.35.16-.51.44-.67a.19.19,0,0,0,.07-.26.16.16,0,0,0-.26,0c-.13.12-.22.06-.32,0s-.19-.09-.29-.19a.22.22,0,0,0-.35-.09c-.12.12,0,.22,0,.35.2.38.16.44-.15.7s-.36.45-.16.83a.63.63,0,0,1-.23.8c-.13.09-.29.19-.13.35s.13.51.1.77-.19.6,0,.92c.07.07,0,.19-.06.26-.26.16-.19.29,0,.45a.31.31,0,0,1,0,.51c-.29.28-.32.35-.13.63s.19.23.16.39c-.19.48.16.83.39,1.24C137.08,112.12,136.92,112,136.85,111.83Zm-.09-8.78a.25.25,0,0,1,.28-.13.31.31,0,0,1,.16.29c0,.1,0,.22,0,.32s.09.32.28.29.23-.2.23-.35a.24.24,0,0,0-.13-.29.29.29,0,0,1-.19-.32c-.07-.26-.16-.29-.39-.19s-.22.09-.35.12-.19.23-.16.42C136.69,103.21,136.69,103.11,136.76,103.05Zm.06,10.51c0,.22-.19.48-.06.76a1.64,1.64,0,0,0,.13-1.66C136.76,113,136.89,113.27,136.82,113.56Zm0,2.2a.42.42,0,0,0,0,.48A.32.32,0,0,0,136.79,115.76Zm.16-9.9c-.1,0-.1-.1-.1-.16s0-.19.13-.16.13.1.13.19S137,105.89,137,105.86Zm.77,9.58a.21.21,0,0,1,0,.13,7.9,7.9,0,0,0,.13,1,13.22,13.22,0,0,0,.25,1.69,2.07,2.07,0,0,1,.13,1,.75.75,0,0,0,.06.45,2.07,2.07,0,0,1,.26,1.37.69.69,0,0,0,0,.26,1.65,1.65,0,0,1,.16.79.88.88,0,0,0,.26.71c.15-.42,0-.77,0-1.09a10.32,10.32,0,0,0-.41-2.81c-.07-.35.06-.77-.29-1,0,0,0-.16,0-.23a2.58,2.58,0,0,0,0-.48,5.75,5.75,0,0,1-.2-2.3.41.41,0,0,0-.12-.28c-.19-.1-.19-.26-.19-.45s.06-.26-.16-.42C137.49,114.32,137.24,114.9,137.72,115.44Zm0-2.65c-.16.16-.16.26,0,.45A.54.54,0,0,0,137.68,112.79Zm0-.61c-.07,0-.07,0-.07.1s0,.16,0,.19a.13.13,0,0,0,.13-.13C137.81,112.25,137.78,112.18,137.72,112.18Zm.38-6.13c.16-.22-.13-.48,0-.7,0,0-.06-.1-.1-.06-.19.12-.06.35-.15.51a.32.32,0,0,0,0,.35A.19.19,0,0,0,138.1,106.05Zm.83,3.45c-.26-.13-.42-.06-.45.16s-.06.58-.09,1C138.9,110.3,138.45,109.72,138.93,109.5Zm-.1-1.44a.15.15,0,0,0-.19.13s.13.1.19.13a.1.1,0,0,0,.13-.1C139,108.13,138.93,108.06,138.83,108.06Zm0,3s-.09,0-.09.06.06.1.09.1.1,0,.1-.07S138.86,111.1,138.8,111.1Zm.16,1a.11.11,0,0,0,0-.07c-.07,0-.1,0-.13.07s0,.06.06.09S139,112.12,139,112.06Zm-.13-4.73a.12.12,0,0,0,.1.1.11.11,0,0,0,0-.16s0-.1-.06-.07S138.8,107.27,138.83,107.33ZM144.68,121a.85.85,0,0,0-.23-.83,4.68,4.68,0,0,0,.23,1.53C144.9,121.41,144.65,121.19,144.68,121Z"/><path class="cls-2" d="M167.23,123.46h-4.95a.59.59,0,0,1-.58-.32c-1.4-2.33-2.84-4.63-4.25-6.93a.54.54,0,0,0-.57-.35c-.45,0-.86,0-1.28,0s-.38,0-.38.38v6.83c0,.39,0,.39-.38.39h-4.06c-.38,0-.38,0-.38-.35V102.44c0-.44,0-.44.44-.44h3.87c.54,0,.51,0,.51.47v8.63c0,.67-.1.6.61.6a2.92,2.92,0,0,0,1.18,0c.35-.12.6-.51.89-.83a27.94,27.94,0,0,0,3.26-3.7,9.07,9.07,0,0,0,1.44-3.23,8.71,8.71,0,0,0,.06-1.53c0-.38,0-.38.42-.38h4.18c.35,0,.35,0,.38.35a8.84,8.84,0,0,1-.86,4.44,13.64,13.64,0,0,1-2.08,3.13c-1,1.21-2.13,2.39-3.19,3.57-.19.23-.25.35,0,.67,1.24,1.86,2.52,3.71,3.74,5.56.73,1.15,1.5,2.24,2.23,3.35.06.1.16.2.13.32S167.36,123.46,167.23,123.46ZM151.39,104.1a1.28,1.28,0,0,1,0,.58,1.84,1.84,0,0,0,0,1,10.46,10.46,0,0,1,.35,2.81.62.62,0,0,0,.06.41.47.47,0,0,1,.13-.09,16,16,0,0,0,0-2.08,7.82,7.82,0,0,1-.16-1.6c0-.35,0-.7,0-1a1.46,1.46,0,0,0-.23-.8A.73.73,0,0,0,151.39,104.1Zm.38,5.91a2.72,2.72,0,0,1,.1.45c.06.57,0,1.15.06,1.72a1.18,1.18,0,0,0,0,.45s.07.1.13.06l.1-.09s0-.1,0-.16c0-.7-.07-1.44-.07-2.17a2,2,0,0,0-.22-.93A.59.59,0,0,0,151.77,110Zm.45,8.15c.16,0,.19-.16.19-.29s0-.23-.16-.23-.19.17-.19.29S152.06,118.19,152.22,118.16Zm-.1-1.41a.18.18,0,0,0,.16.16c.13,0,.19-.06.22-.16a.46.46,0,0,0-.22-.48A.63.63,0,0,0,152.12,116.75Zm.35,2a.68.68,0,0,0,0-.12c-.16,0-.16.12-.16.22s0,.06.1.1S152.47,118.86,152.47,118.79Zm.74-11.33s.06.06.12,0a.25.25,0,0,0,.07-.22c0-.07-.07-.07-.1-.1S153.18,107.33,153.21,107.46Zm.41,2.94a.49.49,0,0,0,0-.52C153.43,110.08,153.43,110.24,153.62,110.4Zm-.13.73c0,.38,0,.73,0,1.12a12.15,12.15,0,0,1,.12,1.59c0,.42,0,.84,0,1.25s.23.77.16,1.15a1.8,1.8,0,0,0,0,.8,4.09,4.09,0,0,1,.1,1.4c0,.87.16,1.73.13,2.59a2.9,2.9,0,0,0,.09.54c0,.1.07.19.16.19s.13-.15.13-.25c0-.35-.13-.7-.1-1.05a6.22,6.22,0,0,0-.06-1.06c0-.32-.13-.61-.13-.92a7.45,7.45,0,0,0-.06-1.7c-.07-.51-.13-1-.16-1.56a23.58,23.58,0,0,0-.1-3c-.06-.38-.06-.79-.13-1.18C153.53,111,153.49,111.07,153.49,111.13Zm2.62,4.09a17.32,17.32,0,0,1,.13-2.49c0-.13.07-.42-.16-.39s-.13.26-.13.39,0,.25,0,.35a1.3,1.3,0,0,1,0,.48,5,5,0,0,0,0,1.72Zm.74-1.79a.12.12,0,0,0-.13.13c0,.09,0,.19.19.19a.17.17,0,0,0,.1-.16A.15.15,0,0,0,156.85,113.43Zm1.08-.86c0-.07,0-.16-.06-.23s0,0-.06,0,.06.16.09.22h0Zm.23.8c0-.07,0-.16-.16-.13a.12.12,0,0,0-.1.16c.16.28,0,.57.1.86a4.5,4.5,0,0,1,.06,1.6c0,.06,0,.12,0,.19s.07.13.13.13.13-.07.13-.16a.31.31,0,0,0,0-.23,1.16,1.16,0,0,1,0-.76.75.75,0,0,0,0-.39,2.31,2.31,0,0,1-.12-.73A3.22,3.22,0,0,0,158.16,113.37Zm1,2.61c-.1,0-.16,0-.16.13a.23.23,0,0,0,.22.16c.07,0,.1,0,.13-.13S159.28,116,159.15,116Zm0-4.53c0,.06.06.13.13.13a.17.17,0,0,0,.16-.1c.19-.22-.1-.29-.13-.48A.49.49,0,0,0,159.18,111.45Zm.51-.19a.27.27,0,0,0,.22.22c.07,0,.1-.06.1-.13s-.06-.22-.19-.25A.19.19,0,0,0,159.69,111.26Zm.13,2.39c0,.26-.1.45,0,.64C159.85,114.1,160.07,113.91,159.82,113.65Zm0,1.95s.06,0,.06,0,.07-.22-.06-.32A.24.24,0,0,0,159.85,115.6Zm.38,1.53c.07-.12,0-.19-.12-.22s-.07-.06-.13,0a.17.17,0,0,0,0,.22c0,.1,0,.2.12.26S160.2,117.23,160.23,117.13Zm0,1.92c.19-.38,0-.8.19-1.18,0,0-.06-.1-.12-.13s-.16,0-.16.13a3.33,3.33,0,0,0,0,1.18Zm.38-9.1c-.19.19-.19.35,0,.57C160.68,110.2,160.68,110.2,160.58,110Zm.48,9.84c0,.12-.06.31.1.35s.16-.16.16-.29a.27.27,0,0,0-.16-.26Zm.2-2.34c-.13,0-.16.13-.13.23s.06.16.16.13a.12.12,0,0,0,.12-.13C161.41,117.55,161.35,117.45,161.26,117.45Zm.89-6.19c0,.06,0,.09.09.13s.1-.07.13-.13a1,1,0,0,0-.16-.67C162.09,110.81,162.18,111,162.15,111.26Zm.19-4.31c.06.09.16.09.26,0s.06-.13,0-.19-.1-.29-.32-.35A.54.54,0,0,0,162.34,107Zm.06.64c0,.09.07.12.13.12a.1.1,0,0,0,.1-.09c0-.1-.06-.1-.13-.1S162.4,107.55,162.4,107.59Zm.93.19c0-.1,0-.23-.13-.23a.25.25,0,0,0-.22.26c0,.09.1.16.19.19A.2.2,0,0,0,163.33,107.78Zm-.25-2.59a3.43,3.43,0,0,1,.12.8c.16-.1.13-.23.2-.29s.25-.35-.07-.54c-.13-.07,0-.26.16-.26s.19.1.22-.06,0-.16-.09-.22-.19-.13-.35-.26C163.3,104.71,163,104.9,163.08,105.19Zm.22,1.5a.2.2,0,0,0-.22.22.18.18,0,0,0,.12.23.37.37,0,0,0,.35-.26C163.52,106.72,163.4,106.72,163.3,106.69Zm.1,2.2c-.48.1-.2.39-.23.68.48-.68.48-.68.35-1C163.43,108.67,163.49,108.86,163.4,108.89Zm0,12.94a15.52,15.52,0,0,0,.06-3c0-.13,0-.29-.19-.35A19.18,19.18,0,0,0,163.43,121.83ZM164.8,103c0-.1,0-.19-.16-.19a.19.19,0,0,0-.13.25,7.47,7.47,0,0,1,.07,1.15,1,1,0,0,0,.06.29.14.14,0,0,0,.13.13c.13,0,.09-.1.09-.19,0-.32,0-.64,0-.93S164.8,103.18,164.8,103Zm0,2.36s-.07-.09-.1-.06a.16.16,0,0,0-.06.13s0,.09.06.09A.14.14,0,0,0,164.77,105.38Z"/><path class="cls-2" d="M175.18,123.46c-1.4,0-2.81,0-4.18,0-.35,0-.35,0-.38-.39v-20.4c0-.71-.07-.64.67-.64H175c.57,0,.57-.07.57.54v20.21a1.44,1.44,0,0,0,0,.36C175.57,123.39,175.41,123.46,175.18,123.46ZM171.73,117a.14.14,0,0,0,0-.2c-.09,0-.16.07-.16.16a.11.11,0,0,0,.07.16A.11.11,0,0,0,171.73,117Zm-.12-13.13c-.07,0,0,.16.09.19s.29,0,.42-.13.06-.22,0-.35-.13-.19-.32-.16S171.8,103.78,171.61,103.88Zm.6,1.88c-.12,0-.16.13-.16.23s0,.29.23.29.12-.13.16-.23S172.37,105.76,172.21,105.76Zm.16-2.93c-.19,0-.16.12-.19.22s0,.13.1.16.16-.13.19-.22S172.44,102.83,172.37,102.83Zm0,6.32a.23.23,0,0,0-.12-.06.11.11,0,0,0-.1.16c.1.25,0,.54.13.89C172.6,109.72,172.6,109.44,172.4,109.15Zm0,7.73c-.1,0-.16.13-.2.22a.35.35,0,0,0,.1.35s.13,0,.16,0,.06-.23.06-.36S172.63,116.88,172.44,116.88Zm-.07-2.81a.16.16,0,0,0-.13.19c0,.1,0,.19.13.16a.17.17,0,0,0,.16-.16C172.5,114.16,172.47,114.07,172.37,114.07Zm0,5.14a.1.1,0,0,0-.09.1c0,.09.19.28.25.25s0-.06.07-.09S172.56,119.21,172.4,119.21Zm.42-14.34c-.22-.19-.22-.19-.45-.19C172.53,104.93,172.53,104.93,172.82,104.87Zm-.26,12.94a.11.11,0,0,0-.12.12c0,.13,0,.26.19.26s.09-.07.13-.16S172.69,117.84,172.56,117.81Zm0-2.85c0,.07,0,.16.07.19a.15.15,0,0,0,.19-.09.67.67,0,0,0,.06-.51C172.66,114.68,172.56,114.77,172.53,115Zm.19-1.66c0,.1.07.1.13.1s.13-.07.1-.16-.07-.07-.13-.07S172.69,113.24,172.72,113.3Zm.67,7.63c0-.06,0-.12-.09-.12s-.13.09-.13.19,0,.13.1.13A.19.19,0,0,0,173.39,120.93Zm0-15.45a.11.11,0,0,0-.16.12c0,.1.06.13.16.13s.12,0,.12-.09S173.52,105.48,173.43,105.48Zm.38-1.86a.18.18,0,0,0-.16-.09c-.06,0-.13.09-.1.16a1.38,1.38,0,0,1,0,.83s0,.13.1.13.16,0,.16-.1a2.54,2.54,0,0,0,.13-.51C173.91,103.91,173.84,103.78,173.81,103.62Zm.19,3.71v1c0,.26,0,.48-.22.64a.21.21,0,0,0-.07.29,1,1,0,0,1,.07.93c-.07.12.09.38.25.35s.16-.16.16-.29v-.77a.84.84,0,0,1,0-.41,5.24,5.24,0,0,0,.15-1.85.43.43,0,0,0-.22-.45C174,107,174,107.14,174,107.33Zm-.09,12.26s0,.1,0,.1.09,0,.13-.1,0-.09-.07-.12S173.91,119.53,173.91,119.59Zm.92-.6c0-.07,0-.13,0-.16.29-.35,0-.74,0-1.12a.42.42,0,0,0-.12-.26.52.52,0,0,1-.39-.57.16.16,0,0,0-.16-.16c-.12,0-.16.09-.19.19,0,.26,0,.51,0,.77s.06.16.19.09c.35-.09.35-.09.45.19a.86.86,0,0,1,0,.39,3.59,3.59,0,0,0,0,1.34C174.86,119.34,174.86,119.34,174.83,119Zm-.76-.61c-.1,0-.1.06-.1.13s0,.16.1.16.09-.07.12-.16S174.16,118.35,174.07,118.38Zm.06-12c0,.06.06.1.13,0a.14.14,0,0,0,.09-.09c-.06-.26,0-.55-.22-.83C173.91,105.8,174.07,106.08,174.13,106.34Zm.54-1.12c0,.13,0,.32.16.32s.16-.16.13-.29a2.33,2.33,0,0,1,0-.79,2.07,2.07,0,0,0,0-.61c0-.16,0-.35-.26-.29s-.28.16-.22.38a3.18,3.18,0,0,1,.22,1A1.17,1.17,0,0,1,174.67,105.22Zm0,9.39a.89.89,0,0,1,0,.64c-.09.32.07.35.32.41v-.92c0-.29-.22-.51-.25-.77A.52.52,0,0,0,174.64,114.61Zm.32-2.36c.1-.16.06-.32,0-.55C174.7,112,174.7,112,175,112.25Z"/><path class="cls-2" d="M189.36,123.43h-4.18c-.45,0-.45,0-.45-.45V106.85a1.87,1.87,0,0,1,0-.41c0-.2-.09-.26-.28-.26h-5.91a.23.23,0,0,1-.26-.26v-3.41c0-.51,0-.51.51-.51h17c.25,0,.35.06.35.32,0,1.15,0,2.33,0,3.51,0,.29-.13.35-.35.35-.67,0-1.31,0-1.95,0h-3.52c-.7,0-.63-.06-.63.64V123C189.72,123.39,189.72,123.43,189.36,123.43ZM182.24,105c-.06,0-.13,0-.13,0s0,.16.1.16.1,0,.13,0S182.31,105,182.24,105Zm.19-2.08c0,.13.07.16.16.19s.16-.06.13-.12,0-.23-.13-.23A.18.18,0,0,0,182.43,102.92Zm.51,2a.39.39,0,0,0,0,.58C183,105.29,183.2,105.09,182.94,104.9Zm2,.45a.77.77,0,0,1,0-.54.49.49,0,0,0,0-.58c-.07-.16-.16-.29,0-.48s0-.22-.16-.22a.44.44,0,0,0-.32.25c-.07.2,0,.42.16.48s.19.26.13.45a1.39,1.39,0,0,0,0,1A.3.3,0,0,0,185,105.35Zm.92,7.7c-.06.22-.06.41.1.48s.32-.13.48-.26C186.23,113.21,186.07,113.11,185.88,113.05Zm.19-5.24a.24.24,0,0,0,.13.25s.1-.06.1-.09a.17.17,0,0,0-.1-.23C186.14,107.74,186.07,107.78,186.07,107.81Zm.26,10a.19.19,0,0,0,0,.28,5,5,0,0,1,.45,1c.22-.19.15-.35.06-.54a1.21,1.21,0,0,1-.13-1c0-.06,0-.19-.16-.29C186.46,117.49,186.52,117.68,186.33,117.81Zm0-11.5a.13.13,0,0,0,.1.09s.09-.06.12-.09a.51.51,0,0,0-.12-.51A.46.46,0,0,0,186.33,106.31Zm.29,10.35c-.07,0-.1.06-.13.12s0,.16.1.16.09-.06.09-.09S186.68,116.69,186.62,116.66Zm0,3.22s.06,0,.09,0,.1-.25,0-.38l-.07,0C186.62,119.59,186.52,119.72,186.62,119.88Zm.09-14.31c0,.07,0,.13.13.1s.13-.1.13-.13c-.07-.29-.19-.54,0-.8,0,0-.06-.16-.16-.19s-.13.07-.16.13-.06.22-.09.38S186.65,105.38,186.71,105.57Zm.48,3.9c-.22-.13-.35-.1-.41.16,0,.06-.07.13-.07.19s0,.13,0,.13a.09.09,0,0,0,.15,0c.1-.19.36-.16.48-.32C187.35,109.5,187.26,109.5,187.19,109.47Zm-.41,11.59c.06.26-.07.51.06.77,0,.06,0,.22.19.19a.28.28,0,0,0,.13-.26c-.06-.25-.16-.47-.22-.73A.39.39,0,0,1,186.78,121.06Zm.51-14.59a.32.32,0,0,0-.07-.39c0-.06-.09,0-.15,0a.32.32,0,0,0-.2.35,1.39,1.39,0,0,0,.2.67C187.16,106.82,187.13,106.63,187.29,106.47Zm-.16,3.89c-.06,0-.13.07-.13.16s.07.19.19.19.13,0,.13-.12S187.22,110.4,187.13,110.36Zm0-2.81a.91.91,0,0,0,.13.74C187.42,107.84,187.42,107.78,187.13,107.55Zm.32,1.15c0-.12,0-.22-.13-.22s-.1.06-.1.13,0,.16.1.22S187.45,108.77,187.45,108.7Zm0-6.13a.49.49,0,0,0,0,.48C187.61,102.73,187.61,102.73,187.42,102.57Zm.06,18.05c0,.06,0,.12.1.15s.06,0,.09-.09,0-.13-.09-.16A.1.1,0,0,0,187.48,120.62Zm.16-1.12c0-.1,0-.29-.06-.23s0,.36,0,.55C187.64,119.72,187.58,119.59,187.64,119.5Zm0-.83c.06,0,.09,0,.09-.1s0-.16-.06-.16a.08.08,0,0,0-.13.07A.15.15,0,0,0,187.61,118.67Zm.06-3.9c0,.42.26.77.16,1.21a1,1,0,0,1-.16.45c-.06.1,0,.16,0,.19s.13,0,.16-.06,0-.1.07-.13a4.5,4.5,0,0,0-.26-2.59s0-.06-.09,0A4.46,4.46,0,0,0,187.67,114.77Zm.1-9.07c-.07,0-.13,0-.16.06s0,.13.09.13.13,0,.13-.09S187.8,105.73,187.77,105.7Zm0,7.09c-.13.29-.13.29,0,.64C187.83,113.14,187.86,113,187.74,112.79Zm.12-6.45c0,.1.07.1.13.1a.12.12,0,0,0,.13-.13s0-.1-.1-.07S187.86,106.24,187.86,106.34Zm.74.06c-.26.29-.23.32,0,.55,0,.06.06.09,0,.12s-.06.13-.13.07-.22,0-.22.13,0,.25.19.16.42.09.64,0c-.35-.44-.22-1-.38-1.53C188.57,106.08,188.73,106.24,188.6,106.4Zm.13,14.5a.06.06,0,0,0,.09,0,.27.27,0,0,0,0-.41C188.63,120.62,188.6,120.74,188.73,120.9Zm0,.64c-.07,0-.1.07-.1.13s0,.16.1.16.13-.07.13-.16A.15.15,0,0,0,188.76,121.54Zm.57-17.08s.07,0,.1,0,0-.19-.16-.32C189.24,104.26,189.17,104.36,189.33,104.46Zm.1-1.09c0-.16.19-.35-.1-.54,0,.38-.19.7-.06,1.11C189.49,103.75,189.43,103.56,189.43,103.37Zm.45,2.17c0,.06.06.06.12.06s.13,0,.1-.06c-.07-.19.06-.35-.1-.57A.78.78,0,0,0,189.88,105.54Zm1.5-2.11s0,.1,0,.13c.32-.22.32-.22-.1-.54A2.63,2.63,0,0,0,191.38,103.43Zm.51,1.06c-.07,0-.13-.16-.19,0s0,.16,0,.22.16.06.22,0A.12.12,0,0,0,191.89,104.49Zm1.4-1.66a.26.26,0,0,0-.09-.19.21.21,0,0,0-.35,0,.44.44,0,0,0,0,.35c.1.16,0,.28,0,.44s-.22.61,0,.9a.52.52,0,0,1,.1.48,3.71,3.71,0,0,0-.06.54.19.19,0,0,0,.12.25.25.25,0,0,0,.26-.15,1.46,1.46,0,0,0,.19-1C193.48,103.91,193.23,103.37,193.29,102.83Zm.83.22a.11.11,0,0,1-.09,0c-.23,0-.19.09-.19.22l.09.23a.82.82,0,0,1,.22.7v.45c0,.06,0,.15.1.15s.16-.06.16-.15c0-.42.06-.84.13-1.38C194.54,103,194.51,103,194.12,103.05Z"/></g></g></svg>